<svg fill="none" height="64" viewBox="0 0 64 64" width="64" xmlns="http://www.w3.org/2000/svg"><rect fill="#1b76ff" height="49" rx="9" width="64" y="7"/><g fill="#fff"><path d="m18.2319 45.0565v-23.4363h-8.7319v-3.591h21.6596v3.591h-8.7319v23.4363z"/><path d="m43.3695 29.1803c1.2852.3276 2.5326.6804 3.7422 1.0584 1.2348.3781 2.3311.8569 3.2887 1.4365s1.7136 1.3356 2.268 2.268c.5544.9072.8316 2.079.8316 3.5154 0 1.5372-.3654 2.9233-1.0962 4.1581-.7056 1.2348-1.7892 2.205-3.2509 2.9106-1.4616.7056-3.3138 1.0584-5.5566 1.0584-2.2932 0-4.3219-.378-6.0859-1.134-1.7388-.756-3.1248-1.8522-4.158-3.2886s-1.6003-3.1753-1.7011-5.2165h4.3093c.1008 1.1844.4158 2.2428.945 3.1753.5544.9324 1.3608 1.6506 2.4192 2.1546 1.0836.504 2.4697.756 4.1581.756 1.4616 0 2.5956-.189 3.402-.567.8064-.4032 1.386-.9324 1.7388-1.5876s.5292-1.3861.5292-2.1925c0-1.134-.2898-2.0034-.8694-2.6082s-1.4364-1.0836-2.5704-1.4364c-1.1088-.3528-2.4822-.7308-4.1202-1.134-1.0585-.2772-2.1169-.5922-3.1753-.945-1.0332-.3528-1.9908-.8064-2.8728-1.3609-.8568-.5796-1.5498-1.2852-2.079-2.1168-.504-.8568-.756-1.9278-.756-3.213 0-1.5624.378-2.8854 1.134-3.9691.7812-1.1088 1.8774-1.953 3.2886-2.5326s3.087-.8694 5.0275-.8694c2.0412 0 3.8304.3402 5.3676 1.0206 1.5372.6552 2.7469 1.6254 3.6289 2.9106.9072 1.2853 1.4364 2.8351 1.5876 4.6495h-4.3471c-.2268-1.638-.8316-2.8854-1.8144-3.7422-.9576-.8569-2.4318-1.2853-4.4226-1.2853-1.1088 0-2.0539.1386-2.8351.4158-.756.2772-1.3356.6805-1.7388 1.2097-.378.5292-.567 1.1844-.567 1.9656 0 .9828.2898 1.7514.8694 2.3058s1.3482.9954 2.3058 1.323c.9577.3276 2.0161.63 3.1753.9072z"/></g></svg>