<svg viewBox="0 0 132 30" xmlns="http://www.w3.org/2000/svg"><path d="m115.619019 1590.67915c-.516898-.7011-1.395805-1.27454-2.46022-1.27454-1.971418 0-3.393158 1.50464-3.393158 3.54267 0 2.03876 1.42174 3.54303 3.393158 3.54303.921052 0 1.781949-.39275 2.232209-.78405.030257-.02633.045746-.0642.045746-.10423v-1.10539c0-.06925-.056192-.12587-.125713-.12587h-2.535503c-.100858 0-.182625-.08187-.182625-.18249v-1.6406c0-.10098.081767-.18285.182625-.18285h4.546184v-2.43475l-1.467847.80389c-.078165.04292-.181905.01695-.234856-.05482zm-21.3413454 1.15206h2.708043c.7755276 0 1.2603674-.43711 1.2603674-1.13244 0-.6636-.4848398-1.13244-1.2603674-1.13244h-2.708043c-.0929336 0-.1678569.07537-.1678569.16806v1.92876c0 .09269.0749233.16806.1678569.16806zm11.0099344 6.35282c0 .08331-.067359.1504-.150206.1504h-1.993751c-.083208 0-.150567-.06709-.150567-.1504v-10.48915c0-.08295.067359-.15039.150567-.15039h1.993751c.082847 0 .150206.06744.150206.15039zm11.461095-25.11389-19.7725319 14.47435h.5104146c2.0521044 0 3.1021103 1.30988 3.1021103 2.74959 0 1.12019-.584617 1.94752-1.3691501 2.31322-.1303953.06095-.1257126.2456.0075644.30006.9145677.37471 1.5719477 1.3546 1.5719477 2.49894 0 1.63411-1.066576 2.92813-3.1345296 2.92813h-5.681199c-.0929337 0-.1682171-.07502-.1682171-.16807v-6.84406l-14.6669454 10.73692c-.2809621.20593-.1357983.6517.2128829.6517h39.6005362c.198835 0 .360208-.16157.360208-.36065v-5.43032c-1.059732.98927-2.453016 1.60887-4.163283 1.60887-3.166588 0-5.7518-2.18374-5.7518-5.58143 0-3.41356 2.585212-5.58107 5.7518-5.58107 1.991229 0 3.325079.90307 4.163283 2.0063v-16.01143c0-.29501-.334993-.46524-.573091-.29105zm-22.4710294 23.24205h2.8049389c.8562142 0 1.3731125-.45298 1.3731125-1.22946 0-.67911-.4841194-1.22946-1.3731125-1.22946h-2.8049389c-.0929336 0-.1678569.07538-.1678569.16806v2.12279c0 .09269.0749233.16807.1678569.16807zm34.5366254-.32729-1.235873-.6416c-.079606-.04148-.180104-.01118-.228372.06456-.522662.82048-1.486938 1.42961-2.534783 1.42961-2.057147 0-3.584429-1.64997-3.584429-3.89899 0-2.28075 1.527282-3.89863 3.584429-3.89863 1.047124 0 2.011041.59399 2.534063 1.42565.048628.07754.150206.10748.230893.06384l1.226508-.66901c.093294-.05085.126073-.16734.068799-.2575-.775887-1.22261-2.060749-2.24541-4.060263-2.24541-3.070412 0-5.454988 2.24901-5.454988 5.58106 0 3.31654 2.384576 5.58143 5.454988 5.58143 1.997353 0 3.267446-1.04986 4.069629-2.27318.060875-.09269.027376-.21098-.070601-.26183zm6.441958.85265c-2.106135 0-3.44791-1.68244-3.44791-3.899 0-2.23206 1.341775-3.89863 3.44791-3.89863 2.090287 0 3.44755 1.66657 3.44755 3.89863 0 2.21656-1.357263 3.899-3.44755 3.899zm-1.47325-9.29144c-2.317218.61996-3.84666 2.70812-3.84666 5.39244 0 3.21953 2.199789 5.58143 5.31991 5.58143 2.656894 0 4.662531-1.73004 5.185553-4.24738.851892-4.09951-2.742623-7.77382-6.658803-6.72649zm19.735179-.0105h-2.365126c-.10518 0-.199555.0642-.238097.1623l-2.860411 7.40379-2.87662-7.40451c-.038542-.09738-.132917-.16158-.238098-.16158h-2.365485c-.06988 0-.126793.05699-.126793.12695v10.53641c0 .06996.056913.12694.126793.12694h1.637145c.06988 0 .126793-.05698.126793-.12694v-8.20444l3.289779 8.27404c.013688.03462.047187.05734.084289.05734h.684395c.037101 0 .0706-.02272.084288-.05734l3.27357-8.27404v8.20444c0 .06996.056552.12694.126793.12694h1.636785c.07024 0 .126793-.05698.126793-.12694v-10.53641c0-.06996-.056553-.12695-.126793-.12695zm24.176325 0h-6.994517c-.107702 0-.194872.08728-.194872.19512v10.40007c0 .10784.08717.19511.194872.19511h6.994517c.107703 0 .194873-.08727.194873-.19511v-1.27598c0-.10783-.08717-.19511-.194873-.19511h-5.103785c-.107703 0-.194873-.08728-.194873-.19511v-2.61905c0-.10783.08717-.19511.194873-.19511h4.99104c.107342 0 .194873-.08764.194873-.19511v-1.27598c0-.10784-.087531-.19511-.194873-.19511h-4.99104c-.107703 0-.194873-.08728-.194873-.19511v-2.3922c0-.10783.08717-.19511.194873-.19511h5.103785c.107703 0 .194873-.08764.194873-.19511v-1.27598c0-.10784-.08717-.19512-.194873-.19512zm7.373708 5.09578h-2.40835c-.106621 0-.193071-.08656-.193071-.19331v-3.04317c0-.10675.08645-.19331.193071-.19331h2.40835c1.065855 0 1.841743.6636 1.841743 1.69903 0 1.05129-.775888 1.73076-1.841743 1.73076zm1.483336 1.40004c1.206337-.30439 2.297046-1.33873 2.297046-3.11493 0-2.00594-1.405531-3.38074-3.538322-3.38074h-4.541141c-.106622 0-.193071.08655-.193071.19331v10.40332c0 .10675.086449.19367.193071.19367h1.504228c.106622 0 .193432-.08692.193432-.19367v-3.64149c0-.10675.08645-.19331.193071-.19331h1.587076c.06844 0 .131476.03607.166416.09485l2.262826 3.83841c.03458.05878.097977.09521.166416.09521h1.738364c.151647 0 .244941-.16626.164255-.29501-.498888-.79812-1.868759-2.98944-2.319379-3.71038-.071682-.11396-.004683-.25642.125712-.28924zm17.145104-4.82972h5.113511c.104821 0 .18983-.08511.18983-.19042v-1.28536c0-.10495-.085009-.19042-.18983-.19042h-7.004242c-.104821 0-.19019.08547-.19019.19042v10.40945c0 .10531.085369.19043.19019.19043h7.004242c.104821 0 .18983-.08512.18983-.19043v-1.28536c0-.10494-.085009-.19006-.18983-.19006h-5.113511c-.105181 0-.19019-.08547-.19019-.19042v-2.62878c0-.10531.085009-.19043.19019-.19043h5.000406c.105181 0 .19019-.08511.19019-.19042v-1.28536c0-.10495-.085009-.19042-.19019-.19042h-5.000406c-.105181 0-.19019-.08511-.19019-.19042v-2.40158c0-.10531.085009-.19042.19019-.19042zm-4.00987 6.73832-1.235874-.6416c-.079606-.04147-.180104-.01118-.228371.06456-.522662.82048-1.486939 1.42962-2.534783 1.42962-2.057148 0-3.584429-1.64998-3.584429-3.89899 0-2.28076 1.527281-3.89863 3.584429-3.89863 1.047124 0 2.01104.59399 2.534062 1.42565.048628.07754.150207.10747.230893.06383l1.226508-.669c.093294-.05086.126073-.16771.0688-.25751-.775888-1.2226-2.060749-2.24541-4.060263-2.24541-3.070413 0-5.454989 2.24902-5.454989 5.58107 0 3.31654 2.384576 5.58142 5.454989 5.58142 1.996992 0 3.267445-1.04985 4.069628-2.27318.060876-.09268.027376-.21098-.0706-.26183zm-32.210295-8.40442h-2.365125c-.105181 0-.199555.0642-.238098.1623l-2.860411 7.40379-2.87662-7.40451c-.038542-.09738-.132917-.16158-.238097-.16158h-2.365486c-.06988 0-.126793.05699-.126793.12695v10.53641c0 .06996.056913.12694.126793.12694h1.637145c.069881 0 .126793-.05698.126793-.12694v-8.20444l3.289779 8.27404c.013688.03462.047187.05734.084289.05734h.684395c.037101 0 .070601-.02272.084289-.05734l3.273569-8.27404v8.20444c0 .06996.056553.12694.126793.12694h1.636785c.07024 0 .126793-.05698.126793-.12694v-10.53641c0-.06996-.056553-.12695-.126793-.12695z" fill-rule="evenodd" transform="translate(-77 -1573)"/></svg>
