<svg height="96" viewBox="0 0 382 96" xmlns="http://www.w3.org/2000/svg"><path d="m.00774375 47.9625c.01511245-23.175 18.79855625-41.9625 41.99225625-41.9625s42 18.8063 42 42-18.7875 41.9812-41.9812 42h-32.46942c-5.26688 0-9.53378-4.2562-9.54158-9.525h-.0078v-32.5125zm64.22975625-11.8313c0-7.4437-6.675-12.8437-13.725-12.8437-6.5438 0-12.3375 4.9313-13.1437 11.2313-.0375.7125-.0751.9375-.0751 1.5937-.0187 3.9563.0001 8.025-.1499 12.075.1687 4.8938.1875 9.7688 0 14.3625 0 5.0813-3.6376 8.5313-8.3813 8.5313-4.7438 0-8.5875-3.7875-8.5875-8.5313.0937-5.1937 4.2375-8.4937 9.0938-8.6438h.0375l4.9312-.0375v-6.9937l-4.9312.0375c-8.8313-.075-15.8588 6.8438-16.1138 15.6375 0 8.55 7.0387 15.5438 15.57 15.5438 8.0625 0 14.7562-6.3001 15.4875-14.1751l.0375-10.0312 6.1125-.0562c4.7437.0375 4.6875-7.0875-.0375-6.9938l-6.075.0563c0-1.2.0188-2.4001.0188-3.6001.0187-2.3812.0187-4.7625-.0188-7.1625.0187-3.0937 2.9625-5.85 6.225-5.85 3.2812 0 6.7312 1.6313 6.7312 5.85 0 .6-.0187.9563-.0562 1.1813-.3562 1.9687.975 3.825 2.9438 4.1062 1.9875.2813 3.7874-1.1437 3.9749-3.1124.1125-.7875.1313-1.4813.1313-2.1751z"/><path d="m135.733 12c-12.25 0-20.113 9.1308-20.186 17.673v49.5262c-.016 6.108 9.47 6.108 9.453 0v-33.0543h9.72c2.273 0 4.214-1.6156 4.214-4.2071s-2.079-4.1578-4.214-4.1578h-9.72v-7.6137c0-4.875 3.89-8.9382 11.718-8.8421 2.723.0352 3.683.681 4.677 1.2753 5.429 3.5266 10.653-4.6389 4.964-7.7608-3.487-2.0928-6.742-2.8332-10.631-2.8332zm103.592.8833c-2.949-.1549-5.118 2.7092-4.665 5.4331v21.0978c-9.351-7.6874-24.573-7.1496-33.2 1.3614-8.729 7.6307-10.388 21.4544-4.04 30.9801 4.664 7.1949 13.195 12.3293 21.987 11.9216 5.528-.0503 11.004-2.3928 15.256-5.8477-.437 2.7296 1.714 5.6212 4.689 5.4457 2.92.1277 5.188-2.6991 4.74-5.4332-.051-20.2883.051-40.5695-.051-60.8528-.152-2.2796-2.37-4.1602-4.69-4.0966h-.01zm36.528 20.6563c-14.26 0-25.821 11.2445-25.824 25.1168-.003 13.8772 11.56 25.1282 25.824 25.1282 14.265 0 25.828-11.2513 25.825-25.1282-.003-13.8726-11.564-25.1168-25.825-25.1168zm84.345.2208c-6.448 0-11.095 1.8776-14.48 4.2557-5.138 3.6078.39 11.1516 5.527 7.5402 2.339-1.641 4.076-2.5145 8.956-2.5145 6.074.1197 10.953 2.3527 10.953 6.8043-3.256 2.0203-17.412 3.6958-25.009 7.9363-7.602 4.2393-7.201 9.5895-7.201 13.0594 0 7.6137 8.192 12.7538 15.284 12.7538 7.088 0 10.099-1.4588 17.034-6.1194v1.3247c-.224 6.3965 9.691 6.3965 9.465 0v-27.3359c.031-11.3385-8.265-17.5372-20.521-17.7126zm-47.025.098c-4.103 0-4.786 3.3213-4.765 4.6605v40.3278c-.112 2.6068 2.086 4.7708 4.84 4.7708s4.952-2.1641 4.84-4.7708c0 0 .073-15.0012 0-24.6017-.072-9.6009 7.897-11.6781 10.665-11.6781 2.058 0 3.709 1.127 5.34 1.067 2.421-.0895 4.402-1.6846 4.402-4.4766-.073-4.5106-5.706-5.149-9.867-5.0651-4.16.0834-7.676 1.3337-10.716 3.115 0 0-.637-3.3484-4.74-3.3484zm-145.257.0981c-3.141-.2368-6.612.2569-10.428 1.705-9.244 3.5039-15.516 12.1142-15.544 22.7393-.026 11.1293 7.913 25.4905 24.387 25.5983 11.078.0714 16.62-3.9868 19.609-6.7476 1.984-1.7243 2.13-4.7204.312-6.6118-1.821-1.8941-4.878-1.9405-6.753-.098-2.232 2.0566-5.521 5.1117-14.843 4.0967-4-.4343-8.292-3.6218-9.73-6.057l30.541-12.7424c2.335-1.0178 3.415-3.6749 2.426-5.9835-4.09-7.8912-10.552-15.1823-19.971-15.8956zm107.952 8.9893c8.921 0 16.153 7.032 16.156 15.7088.006 8.683-7.228 15.7258-16.156 15.7258-8.927 0-16.162-7.0425-16.156-15.7258.004-8.6765 7.236-15.7088 16.156-15.7088zm-57.005.2453c8.44-.2161 15.98 7.24 15.822 15.4426.177 8.2082-7.388 15.6521-15.822 15.4426-8.022.2086-15.375-6.4533-15.783-14.2652-.854-8.0497 5.888-15.907 14.147-16.5466.544-.0522 1.091-.0738 1.638-.0738zm-53.302.2454c4.593.0044 8.927 2.3271 11.129 6.0682l-25.423 10.6478c-1.814-6.6457 5.634-14.4519 9.692-15.9069 1.521-.5452 3.07-.8106 4.602-.8095zm205.94 15.5503c-.002 3.0063.046 3.8755-.036 6.878-.021 3.6092-2.332 5.2785-4.753 6.6571-2.42 1.3812-7.342 2.5904-10.189 2.7228-3.286.1066-7.637-.6176-7.869-4.4398.002-2.3074 1.143-3.7418 3.014-5.3353 4.431-3.2601 10.427-4.3515 19.835-6.4873z"/></svg>
