<svg viewBox="0 0 469 139" xmlns="http://www.w3.org/2000/svg" xmlns:xlink="http://www.w3.org/1999/xlink"><linearGradient id="firebase-a" gradientUnits="userSpaceOnUse" x1="-330.55" x2="11524.6" y1="2229.62" y2="8483.07"><stop offset="0" stop-color="#fff" stop-opacity=".1"/><stop offset=".14" stop-color="#fff" stop-opacity=".08"/><stop offset=".61" stop-color="#fff" stop-opacity=".02"/><stop offset="1" stop-color="#fff" stop-opacity="0"/></linearGradient><clipPath id="firebase-b"><path d="m0 0h469v139h-469z"/></clipPath><g clip-path="url(#firebase-b)"><path d="m140.773 100.518h-8.773v-67.7526h39.844v8.324h-31.07v22.244h28.025v8.1318h-28.025v29.0528zm47.567-58.0019c-2.091 2.085-5.375 2.4125-7.843.7823-2.467-1.6302-3.43-4.764-2.3-7.4837 1.131-2.7197 4.04-4.2678 6.948-3.6968 2.907.571 5.003 3.102 5.005 6.044.029 1.6386-.629 3.2154-1.817 4.3542zm0 58.0019h-8.773v-46.366h8.773zm19.252 0h-8.773v-46.366h8.386v7.57h.38c1.013-2.6676 2.958-4.8847 5.481-6.2467 2.41-1.5352 5.196-2.3866 8.058-2.4617 2.247-.0634 4.484.3238 6.577 1.1384l-3.337 8.1317c-1.505-.497-3.086-.7223-4.669-.6653-3.217.0162-6.279 1.3736-8.438 3.7406-2.448 2.4937-3.672 5.7588-3.672 9.795zm44.149 1.478c-7.055 0-12.79-2.3335-17.203-6.9999-4.414-4.6664-6.624-10.554-6.629-17.6607-.129-6.3986 2.167-12.612 6.435-17.4093 4.087-4.775 10.134-7.455 16.444-7.29 6.926 0 12.472 2.24 16.638 6.7198 4.165 4.4798 6.246 10.4727 6.24 17.9786l-.097 1.6116h-36.903c.254 4.667 1.827 8.3634 4.722 11.0887 2.707 2.6374 6.358 4.1 10.15 4.066 6.291 0 10.548-2.65 12.773-7.947l7.82 3.2157c-1.585 3.666-4.199 6.802-7.53 9.0336-3.5 2.3949-7.787 3.5929-12.862 3.5929zm12.587-30.3091c-.189-2.6514-1.413-5.1747-3.672-7.57s-5.618-3.568-10.077-3.5188c-3.092-.0538-6.096 1.0253-8.437 3.031-2.454 2.1338-4.17 4.978-4.909 8.1317zm41.035 30.3091c-3.319.065-6.602-.697-9.547-2.2176-2.587-1.295-4.776-3.2558-6.338-5.6774h-.38v6.417h-8.393v-67.7526h8.773v21.3866l-.38 6.4315h.38c1.562-2.4217 3.751-4.3825 6.338-5.6774 2.941-1.5382 6.224-2.3186 9.547-2.2695 6.038 0 11.251 2.3656 15.64 7.0968s6.581 10.5984 6.576 17.6015c-.004 7.0031-2.192 12.8703-6.576 17.6015s-9.597 7.0846-15.64 7.0596zm-1.43-7.9469c3.997.0315 7.815-1.64 10.486-4.5907 2.925-3.0605 4.387-7.114 4.387-12.1607s-1.462-9.1-4.387-12.1607c-2.702-2.9154-6.507-4.578-10.498-4.5865s-7.804 1.6382-10.519 4.542c-2.889 3.026-4.334 7.0943-4.334 12.205s1.46 9.1913 4.379 12.242c2.688 2.9397 6.517 4.5948 10.516 4.5464zm45.981 7.9469c-4.965 0-9.11-1.419-12.437-4.2579-3.326-2.8386-4.995-6.5916-5.005-11.2588 0-5.0466 1.971-9.004 5.914-11.8724 3.942-2.8684 8.803-4.3024 14.582-4.3024 5.149 0 9.37.9462 12.661 2.8387v-1.3232c.125-3.1165-1.172-6.123-3.53-8.1835-2.402-2.0534-5.493-3.1376-8.662-3.0383-2.425-.03-4.813.5898-6.911 1.7964-1.966 1.0808-3.473 2.8288-4.245 4.9234l-8.006-3.408c1.082-2.7845 3.212-5.367 6.4-7.7473 3.187-2.3803 7.373-3.5632 12.586-3.5484 5.958 0 10.923 1.725 14.895 5.1747s5.943 8.3387 5.913 14.6667v28.0623h-8.415v-6.4318h-.38c-3.5 5.2733-8.617 7.8998-15.349 7.8998zm1.43-7.9469c3.687-.0128 7.226-1.4406 9.876-3.9846 2.824-2.3633 4.458-5.84 4.468-9.5068-2.482-2.0206-6.206-3.031-11.171-3.031-4.26 0-7.47.9142-9.63 2.7426-2.015 1.538-3.209 3.9082-3.239 6.4315-.041 2.1958 1.092 4.25 2.98 5.3965 1.984 1.324 4.327 2.0176 6.717 1.9886v-.037zm48.521 7.9469c-5.213 0-9.518-1.262-12.914-3.7849-3.304-2.4223-5.879-5.694-7.447-9.4624l7.819-3.2157c2.483 5.8056 6.703 8.7084 12.661 8.7084 2.367.0962 4.707-.5308 6.703-1.7964 1.646-1.0145 2.64-2.808 2.622-4.7312 0-3.026-2.13-5.0762-6.4-6.1506l-9.436-2.2695c-3.105-.8154-5.998-2.2826-8.483-4.3024-2.645-2.0476-4.136-5.2334-4.007-8.5605 0-4.1 1.827-7.427 5.482-9.98 3.822-2.6045 8.375-3.9447 13.01-3.8293 3.87-.0614 7.686.906 11.052 2.8018 3.178 1.791 5.636 4.6164 6.956 7.9987l-7.618 3.09c-1.713-4.1-5.273-6.1506-10.68-6.1506-2.3-.076-4.576.482-6.576 1.6116-1.639.8427-2.667 2.5222-2.667 4.3542 0 2.6514 2.066 4.4503 6.197 5.3965l9.242 2.1808c4.384.9857 7.626 2.7106 9.727 5.1747 2.034 2.302 3.151 5.262 3.142 8.324.041 4.0824-1.868 7.943-5.146 10.4086-3.431 2.7892-7.847 4.1842-13.249 4.1842zm47.187 0c-7.055 0-12.79-2.3335-17.203-6.9999-4.414-4.6664-6.624-10.5671-6.629-17.6983-.13-6.3986 2.167-12.612 6.435-17.4093 4.102-4.763 10.155-7.4287 16.466-7.252 6.95 0 12.497 2.24 16.638 6.7198s6.221 10.4727 6.241 17.9785l-.097 1.6116h-36.933c.253 4.667 1.827 8.3634 4.722 11.0887 2.715 2.6374 6.375 4.095 10.173 4.051 6.291 0 10.548-2.65 12.773-7.947l7.819 3.2157c-1.584 3.6662-4.197 6.8022-7.529 9.0336-3.5 2.4046-7.793 3.6076-12.877 3.6076zm12.587-30.3091c-.189-2.6514-1.413-5.1747-3.672-7.57s-5.613-3.568-10.062-3.5188c-3.092-.053-6.096 1.026-8.438 3.031-2.453 2.1338-4.169 4.978-4.907 8.1317z" fill="#000"/><path d="m.833298 105.719 16.132202-103.22839c.1972-1.266 1.1818-2.263996 2.445-2.478596s2.522.4028 3.126 1.532696l16.6835 31.11729 6.65-12.6615c.515-.979 1.5303-1.592 2.6366-1.592s2.1215.613 2.6366 1.592l45.0227 85.7185z" fill="#ffa000"/><path d="m56.566 65.5074-17.3536-32.8602-38.378995 73.0718z" fill="#f57c00"/><path d="m96.1666 105.719-12.356-76.4606c-.1867-1.098-.9703-2-2.0315-2.34s-2.2226-.057-3.0107.7302l-77.934995 78.0694 43.123395 24.183c2.708 1.512 6.006 1.512 8.714 0l43.4958-24.183z" fill="#ffca28"/><path d="m83.8105 29.2584c-.1867-1.098-.9703-2-2.0315-2.34s-2.2226-.057-3.0107.7302l-15.4683 15.5076-12.1635-23.1562c-.515-.979-1.5303-1.592-2.6366-1.592s-2.1215.613-2.6366 1.592l-6.65 12.6615-16.6843-31.1168c-.605-1.130203-1.8653-1.746604-3.13-1.5304036-1.2647.2161996-2.246 1.2167036-2.441 2.4837036l-16.124704 103.221h-.052l.052.059.424504.209 77.488-77.5777c.7877-.7915 1.952-1.076 3.016-.737s1.849 1.2445 2.0338 2.3457l12.2518 75.775.1192-.075zm-82.835704 76.3186 15.990704-102.349c.1948-1.267 1.1784-2.267504 2.442-2.483704s2.524.400004 3.13 1.530404l16.6825 31.1173 6.65-12.6615c.515-.979 1.5303-1.592 2.6366-1.592s2.1215.613 2.6366 1.592l11.9167 22.664z" fill="#fff" fill-opacity=".2"/><path d="m52.6708 129.172c-2.708 1.512-6.006 1.512-8.714 0l-43.019203-24.116-.104299.663 43.123402 24.176c2.708 1.512 6.006 1.512 8.714 0l43.4958-24.176-.1117-.685z" fill="#a52714" opacity=".2"/><path d="m83.687 29.2742c-.186-1.0977-.967-2-2.0244-2.338s-2.2148-.057-3.0002.73l-15.4151 15.4998-12.12-23.1455c-.5133-.9786-1.525-1.5914-2.6273-1.5914s-2.114.6128-2.6273 1.5914l-6.6277 12.656-16.625-31.1039c-.603-1.129698-1.8588-1.745998-3.118-1.5296982-1.2592.2163002-2.2394 1.2159982-2.4335 2.4826982l-16.0685 103.1754 42.9727 24.165c2.6985 1.512 5.985 1.512 8.6836 0l43.3437-24.165-12.313-76.427z" fill="url(#firebase-a)"/></g></svg>
