<svg viewBox="0 0 432 96" xmlns="http://www.w3.org/2000/svg" xmlns:xlink="http://www.w3.org/1999/xlink"><path d="m182.261 43.1101v39.8148c0 .2775-.07.763-.417.9017 0 0-8.692 6.1734-23.017 6.1734-17.314 0-37.827-5.4104-37.827-41.0633 0-35.653 17.94-43.00558 35.463-42.93622 15.159 0 21.278 3.39883 22.251 4.02312.279.3468.418.6243.418.9711l-2.921 12.3467c0 .6243-.626 1.3873-1.391 1.1792-2.503-.763-6.258-2.289-15.089-2.289-10.221 0-21.208 2.9133-21.208 25.8727s10.43 25.6646 17.94 25.6646c6.397 0 8.692-.763 8.692-.763v-15.9537h-10.222c-.765 0-1.321-.5549-1.321-1.1792v-12.7629c0-.6243.556-1.1792 1.321-1.1792h26.007c.765 0 1.321.5549 1.321 1.1792zm249.285 16.1618c0 23.7917-7.719 30.5894-21.209 30.5894-11.404 0-17.523-5.7572-17.523-5.7572s-.278 3.1907-.625 3.6069c-.209.4162-.557.5549-.974.5549h-10.291c-.696 0-1.321-.5549-1.321-1.1792l.139-77.0631c0-.62429.556-1.1792 1.182-1.1792h14.811c.626 0 1.182.55491 1.182 1.1792v26.1501s5.702-3.6763 14.046-3.6763l-.069-.1387c8.344 0 20.652 3.1214 20.652 26.9132zm-118.072-50.28877c.626 0 1.182.55491 1.182 1.17917v77.0632c0 .6242-.556 1.1791-1.182 1.1791h-14.811c-.626 0-1.182-.5549-1.182-1.1791l.139-32.9478h-23.016v32.9478c0 .6242-.556 1.1791-1.182 1.1791h-14.811c-.556 0-1.182-.5549-1.182-1.1791v-77.0632c0-.62426.556-1.17917 1.182-1.17917h14.811c.626 0 1.182.55491 1.182 1.17917v28.3698h23.016v-28.3698c0-.62426.556-1.17917 1.182-1.17917zm57.437 25.24837c.765 0 1.321.5549 1.321 1.1792l-.139 51.8148c0 .6242-.417 1.1791-1.182 1.1791h-9.318c-.487 0-.974-.2774-1.113-.6242-.208-.4162-.556-3.1214-.556-3.1214s-7.857 5.341-17.523 5.341c-11.751 0-20.304-3.815-20.304-19.075v-35.4449c0-.6243.556-1.1792 1.182-1.1792h14.88c.626 0 1.183.5549 1.183 1.1792v32.9478c0 5.2023 1.529 7.5606 6.744 7.5606 5.216 0 9.04-2.7052 9.04-2.7052v-37.7339c0-.763.417-1.3179 1.182-1.3179zm-121.034 41.4171h.035c.284.0587.538.2154.717.4425.179.2272.273.5102.263.7992v10.4045c0 .4856-.208.9711-.625 1.1098-.696.3469-5.146 1.526-8.831 1.526-8.067 0-19.888-1.7341-19.888-18.6588v-22.7513h-7.718c-.626 0-1.182-.5549-1.182-1.3179v-9.4335c0-.5549.347-1.0405.904-1.1792.487-.0694 8.066-1.9422 8.066-1.9422v-15.0519c0-.5549.348-.9017.973-.9017h15.02c.626 0 .974.3468.974.9017v14.6357h11.056c.556 0 1.112.5549 1.112 1.1792v11.7919c0 .763-.486 1.3179-1.112 1.3179h-11.056v21.7178c0 3.2601 1.877 5.7572 7.301 5.7572 1.717 0 3.344-.3399 3.991-.3469zm-43.766-41.4864c.626 0 1.183.5549 1.183 1.1792v51.1211c0 1.2485-.348 1.8728-1.739 1.8728h-13.351c-1.182 0-2.086-.4856-2.086-1.8728v-50.9131c0-.763.557-1.3872 1.182-1.3872zm208.537 26.2195c0-12.5549-5.076-14.2196-10.43-13.6647-4.172.2775-7.51 2.3584-7.51 2.3584v24.416s3.408 2.3584 8.484 2.4971c7.162.2081 9.456-2.3583 9.456-15.6068zm-215.838-49.6645c5.215 0 9.457 4.2312 9.457 9.5722s-4.242 9.5722-9.457 9.5722c-5.354 0-9.596-4.2312-9.596-9.5722s4.242-9.5722 9.596-9.5722zm51.039 64.8551v.007l.07.0693h-.007l-.035-.0069v.0069c-.062-.0069-.104-.0763-.167-.0763z"/><path clip-rule="evenodd" d="m48.854 0c-27.015 0-48.854 22-48.854 49.217 0 21.756 13.993 40.172 33.405 46.69 2.427.49 3.316-1.059 3.316-2.362 0-1.141-.08-5.052-.08-9.127-13.59 2.934-16.42-5.867-16.42-5.867-2.184-5.704-5.42-7.17-5.42-7.17-4.448-3.015.324-3.015.324-3.015 4.934.326 7.523 5.052 7.523 5.052 4.367 7.496 11.404 5.378 14.235 4.074.404-3.178 1.699-5.378 3.074-6.6-10.839-1.141-22.243-5.378-22.243-24.283 0-5.378 1.94-9.778 5.014-13.2-.485-1.222-2.184-6.275.486-13.038 0 0 4.125-1.304 13.426 5.052 3.9821-1.0773 8.0888-1.6254 12.214-1.63 4.125 0 8.33.571 12.213 1.63 9.302-6.356 13.427-5.052 13.427-5.052 2.67 6.763.97 11.816.485 13.038 3.155 3.422 5.015 7.822 5.015 13.2 0 18.905-11.404 23.06-22.324 24.283 1.78 1.548 3.316 4.481 3.316 9.126 0 6.6-.08 11.897-.08 13.526 0 1.304.89 2.853 3.316 2.364 19.412-6.52 33.405-24.935 33.405-46.691.08-27.217-21.839-49.217-48.773-49.217z" fill-rule="evenodd"/></svg>
