<svg height="96" viewBox="0 0 236 96" xmlns="http://www.w3.org/2000/svg" xmlns:xlink="http://www.w3.org/1999/xlink"><clipPath id="netlify-a"><path d="m0 0h235.177v96h-235.177z"/></clipPath><g clip-path="url(#netlify-a)" fill="#000"><path d="m53.9419 95.0979v-24.0836l.502-.5025h5.0173l.5021.5025v24.0836l-.5021.5025h-5.0173z"/><path d="m53.9419 24.5845v-24.082273l.502-.502227h5.0173l.5021.502227v24.082273l-.5021.5022h-5.0173z"/><path d="m32.1319 77.7361h-.7094l-3.5472-3.5488v-.7096l8.2832-8.2813 3.7562.0018.504.5003v3.7564z"/><path d="m32.1284 17.8641h-.7094l-3.5472 3.549v.7094l8.2832 8.2815 3.7561-.0018.504-.5004v-3.7562z"/><path d="m.502227 44.7895h34.117973l.5022.5022v5.0169l-.5022.5025h-34.117973l-.502227-.5025v-5.0169z"/><path d="m202.564 44.7895h32.112l.503.5022v5.0169l-.503.5025h-34.117l-.503-.5025 2.006-5.0169z"/><path d="m97.4037 49.9416-.502.5025h-15.564l-.502.502c0 1.0046 1.0045 4.016 5.0205 4.016 1.5066 0 3.0113-.5021 3.5138-1.5066l.5021-.5021h6.025l.5021.5021c-.5021 3.0118-3.0114 7.5316-10.543 7.5316-8.5344 0-12.5522-6.025-12.5522-13.0528 0-7.0275 4.016-13.0524 12.0497-13.0524 8.0341 0 12.05 6.0249 12.05 13.0524v2.0091zm-7.5316-5.0204c0-.5023-.5021-4.0161-4.5184-4.0161-4.016 0-4.518 3.5138-4.518 4.0161l.502.5022h8.0323z"/><path d="m111.461 52.9534c0 1.0041.502 1.5066 1.507 1.5066h4.518l.502.5021v5.0205l-.502.5025h-4.518c-4.519 0-8.535-2.0091-8.535-7.5317v-11.0456l-.502-.5022h-3.514l-.5021-.5022v-5.0205l.5021-.5023h3.514l.502-.5022v-4.5183l.502-.5022h6.025l.502.5022v4.5183l.503.5022h5.522l.503.5023v5.0205l-.503.5022h-5.522l-.503.5022v11.0456z"/><path d="m130.036 60.485h-6.025l-.502-.5025v-34.139l.502-.5022h6.025l.502.5022v34.139z"/><path d="m143.591 31.3663h-6.025l-.502-.5022v-5.0206l.502-.5022h6.025l.502.5022v5.0206zm0 29.1187h-6.025l-.502-.5025v-24.098l.502-.5021h6.025l.502.5021v24.098z"/><path d="m167.187 25.8435v5.0206l-.503.5022h-4.518c-1.004 0-1.507.5022-1.507 1.5066v2.009l.503.5022h5.02l.502.5022v5.0205l-.502.5022h-5.02l-.503.5023v18.0731l-.502.502h-6.025l-.502-.502v-18.0731l-.502-.5023h-3.514l-.502-.5022v-5.0205l.502-.5022h3.514l.502-.5022v-2.009c0-5.5227 4.016-7.5316 8.535-7.5316h4.518l.502.5022z"/><path d="m185.762 60.9871c-2.009 5.0205-4.016 8.0323-11.045 8.0323h-2.511l-.502-.5025v-5.0205l.502-.502h2.511c2.509 0 3.011-.5025 3.514-2.0091v-.5021l-8.033-19.5798v-5.0206l.503-.5022h4.518l.502.5022 6.025 17.0706h.502l6.025-17.0706.503-.5022h4.518l.502.5022v5.0206l-8.032 20.0819z"/><path d="m62.2181 60.4851-.502-.5025.0032-14.5469c0-2.5094-.9867-4.4551-4.016-4.5183-1.5575-.0404-3.3397-.0035-5.2437.0773l-.2843.2915.0037 18.6964-.5025.5025h-6.0231l-.5022-.5025v-24.3667l.5022-.5022 13.5547-.1229c6.7907 0 9.5389 4.6658 9.5389 9.9321v15.0597l-.502.5025z"/></g></svg>
