<svg height="120" viewBox="0 0 384 120" ><path d="M180.96 96C181.997 96 182.88 95.1403 182.88 94.08V49.44C182.88 49.44 185.28 53.76 189.6 60.96L208.32 93.12C209.177 94.9152 211.077 96 212.64 96H225.6V24H212.64C211.777 24 210.72 24.7172 210.72 25.92V71.04L202.08 55.68L184.8 26.4C183.959 24.9078 182.15 24 180.48 24H168V96H180.96Z" /><path d="M348.48 44.16H354.72C356.311 44.16 357.6 42.8706 357.6 41.28V28.8H371.04V44.16H384V55.68H371.04V76.32C371.04 81.36 373.467 83.52 377.76 83.52H384V96H375.84C364.775 96 357.6 88.8341 357.6 76.8V55.68H348.48V44.16Z" /><path d="M283.68 44.16V73.92C283.68 80.6419 281.156 86.3083 277.44 90.24C273.724 94.1717 268.592 96 261.6 96C254.608 96 248.996 94.1717 245.28 90.24C241.627 86.3083 239.04 80.6419 239.04 73.92V44.16H246.72C248.358 44.16 249.969 44.4586 251.04 45.6C252.111 46.678 252.48 47.3113 252.48 48.96V73.92C252.48 77.7883 252.699 80.1778 254.4 82.08C256.101 83.9189 258.199 84.48 261.6 84.48C265.064 84.48 266.619 83.9189 268.32 82.08C270.021 80.1778 270.24 77.7883 270.24 73.92V48.96C270.24 47.3113 270.609 46.2614 271.68 45.12C272.621 44.1171 273.613 44.1407 275.04 44.16C275.237 44.1626 275.801 44.16 276 44.16H283.68Z" /><path d="M324.48 69.12L340.8 44.16H328.32C326.747 44.16 325.35 44.7244 324.48 46.08L316.8 57.6L309.6 46.56C308.73 45.2044 306.853 44.16 305.28 44.16H293.28L309.6 68.64L291.84 96H304.32C305.88 96 307.287 94.4577 308.16 93.12L316.8 80.16L325.92 93.6C326.793 94.9377 328.2 96 329.76 96H342.24L324.48 69.12Z" /><path d="M80.64 96H133.92C135.62 96 137.247 95.4029 138.72 94.56C140.193 93.7171 141.71 92.6597 142.56 91.2C143.41 89.7403 144.001 88.0848 144 86.3995C143.999 84.7142 143.411 83.0592 142.56 81.6005L106.56 19.68C105.71 18.2208 104.672 17.1625 103.2 16.32C101.728 15.4775 99.6202 14.88 97.92 14.88C96.2198 14.88 94.5922 15.4775 93.12 16.32C91.6478 17.1625 90.6096 18.2208 89.76 19.68L80.64 35.52L62.4 4.79887C61.5494 3.33976 60.5126 1.80236 59.04 0.96C57.5674 0.117642 55.9402 0 54.24 0C52.5398 0 50.9126 0.117642 49.44 0.96C47.9675 1.80236 46.4504 3.33976 45.6 4.79887L0.960003 81.6005C0.108953 83.0592 0.000743433 84.7142 3.65186e-06 86.3995C-0.000736129 88.0848 0.110234 89.7403 0.960003 91.2C1.80977 92.6592 3.32758 93.7171 4.8 94.56C6.2724 95.4029 7.89975 96 9.6 96H43.2C56.5138 96 66.204 90.0278 72.96 78.72L89.28 50.4L97.92 35.52L124.32 80.64H89.28L80.64 96ZM42.72 80.64H19.2L54.24 20.16L72 50.4L60.2357 70.908C55.7491 78.2448 50.6342 80.64 42.72 80.64Z" fill="#00DC82"/></svg>
