<svg fill="none" height="25" viewBox="0 0 135 25" width="135" xmlns="http://www.w3.org/2000/svg"><g fill="#08db8f"><path clip-rule="evenodd" d="m89.25 4.5c0-2.07107 1.6789-3.75 3.75-3.75h38c2.071 0 3.75 1.67893 3.75 3.75v16c0 2.0711-1.679 3.75-3.75 3.75h-38c-2.0711 0-3.75-1.6789-3.75-3.75zm3.75-2.25c-1.2426 0-2.25 1.00736-2.25 2.25v16c0 1.2426 1.0074 2.25 2.25 2.25h38c1.243 0 2.25-1.0074 2.25-2.25v-16c0-1.24264-1.007-2.25-2.25-2.25z" fill-rule="evenodd"/><path d="m93.0549 9.31h5.016v1.539h-5.016zm3.192 9.69h-1.862v-10.868c0-.74734.1013-1.32367.304-1.729.2026-.418.4876-.70934.855-.874.38-.16467.8296-.247 1.349-.247.1773 0 .3483.01266.513.038.1773.01266.399.038.665.076v1.501c-.19-.02534-.3357-.038-.437-.038-.1014-.01267-.2217-.019-.361-.019-.2534 0-.456.03166-.608.095-.152.06333-.2597.19-.323.38-.0634.17733-.095.437-.095.779z"/><path d="m102.548 19.285c-1.026 0-1.9-.2217-2.6219-.665-.7094-.4433-1.2477-1.0513-1.615-1.824-.3674-.7853-.551-1.672-.551-2.66 0-.76.1076-1.4503.323-2.071.228-.6333.5446-1.178.95-1.634.418-.456.9183-.80434 1.5009-1.045.595-.25334 1.267-.38 2.014-.38.988 0 1.818.20267 2.489.608.684.4053 1.203.9817 1.558 1.729.367.7347.551 1.6023.551 2.603v.399c0 .1267-.006.228-.019.304h-8.4359v-1.463h6.4979c0-.38-.063-.7283-.19-1.045-.127-.3293-.31-.6143-.551-.855-.228-.2407-.507-.4243-.836-.551-.329-.1393-.703-.209-1.121-.209-.545 0-1.032.1203-1.463.361-.418.2407-.747.5763-.988 1.007-.2406.4307-.3609.9373-.3609 1.52v.608.532c0 .5573.1076 1.0767.3229 1.558.215.4813.538.8803.969 1.197.431.304.969.456 1.615.456.57 0 1.026-.1013 1.368-.304.355-.2027.621-.437.798-.703.19-.2787.317-.5257.38-.741h1.881c-.165.6207-.437 1.178-.817 1.672s-.874.8867-1.482 1.178c-.595.2787-1.317.418-2.166.418z"/><path d="m110.561 6.194v10.127c0 .342.031.6017.095.779.076.1773.19.304.342.38.164.0633.38.095.646.095.152 0 .278-.0063.38-.019.114-.0127.253-.0317.418-.057v1.501c-.241.038-.45.0633-.627.076-.165.0253-.355.038-.57.038-.52 0-.976-.0823-1.368-.247-.38-.1647-.672-.4497-.874-.855-.203-.418-.304-1.0007-.304-1.748v-10.07zm-3.268 3.116h5.13v1.539h-5.13z"/><path d="m119.63 12.825c-.025-.3293-.114-.665-.266-1.007-.152-.3547-.405-.6523-.76-.893-.342-.2407-.811-.361-1.406-.361-.671 0-1.216.1773-1.634.532-.418.342-.722.7853-.912 1.33-.177.5447-.266 1.121-.266 1.729s.089 1.1843.266 1.729c.19.5447.494.988.912 1.33s.963.513 1.634.513c.608 0 1.083-.114 1.425-.342.342-.2407.589-.5383.741-.893.152-.3673.241-.7283.266-1.083h1.938c-.038.7473-.247 1.4123-.627 1.995-.38.57-.893 1.026-1.539 1.368-.633.342-1.362.513-2.185.513-.963 0-1.805-.2153-2.527-.646-.709-.4433-1.26-1.045-1.653-1.805-.393-.7727-.589-1.6657-.589-2.679 0-.76.108-1.4503.323-2.071.228-.6333.551-1.178.969-1.634s.918-.80434 1.501-1.045c.583-.25334 1.235-.38 1.957-.38.823 0 1.552.16466 2.185.494.633.32933 1.134.779 1.501 1.349.38.57.608 1.2223.684 1.957z"/><path d="m122.292 5.415h1.862v13.585h-1.862zm6.441 7.372c0-.4307-.069-.8107-.209-1.14-.126-.3293-.335-.5827-.627-.76-.278-.1773-.652-.266-1.121-.266-.405 0-.772.057-1.102.171-.316.114-.589.2787-.817.494s-.405.475-.532.779c-.114.2913-.171.6207-.171.988h-.646v-2.527h.684c.254-.3673.64-.70933 1.159-1.026.52-.31667 1.197-.475 2.033-.475.608 0 1.153.12033 1.634.361.482.228.868.58267 1.159 1.064.292.4687.437 1.0767.437 1.824v6.726h-1.881z"/><path d="m8.624 20.308c-1.55467 0-2.91134-.352-4.07-1.056-1.15867-.704-2.05334-1.672-2.684-2.904-.63067-1.232-.946004-2.64-.946004-4.224 0-1.188.176004-2.27334.528004-3.256.36666-.99734.88733-1.86267 1.562-2.596.67466-.73334 1.48133-1.298 2.42-1.694.95333-.41067 2.01666-.616 3.19-.616 1.5693 0 2.9333.352 4.092 1.056s2.0533 1.672 2.684 2.904c.6307 1.21733.946 2.618.946 4.202 0 1.188-.1833 2.2807-.55 3.278-.352.9973-.8653 1.8627-1.54 2.596s-1.4887 1.3053-2.442 1.716c-.9387.396-2.002.594-3.19.594zm0-2.09c.93866 0 1.738-.1613 2.398-.484s1.1953-.77 1.606-1.342.7113-1.2247.902-1.958c.2053-.7333.308-1.5033.308-2.31 0-1.0853-.176-2.09-.528-3.014s-.9093-1.66467-1.672-2.222c-.7627-.55734-1.76734-.836-3.014-.836-.90934 0-1.70134.16133-2.376.484-.66.32266-1.19534.77-1.606 1.342-.41067.55733-.71867 1.20266-.924 1.936-.19067.7333-.286 1.5033-.286 2.31 0 1.0853.176 2.09.528 3.014s.90933 1.672 1.672 2.244c.76266.5573 1.76.836 2.992.836z"/><path d="m19.6934 23.894h-2.156v-15.114h2.156zm.044-5.28h-.572v-8.514h.572c.2054-.27867.462-.54267.77-.792.308-.24934.682-.45467 1.122-.616.4547-.16134.9754-.242 1.562-.242.9534 0 1.804.242 2.552.726.7627.46933 1.364 1.1513 1.804 2.046.4547.88.682 1.936.682 3.168 0 .924-.132 1.7527-.396 2.486-.2493.7333-.6013 1.3567-1.056 1.87-.4546.4987-.99.8873-1.606 1.166-.6013.264-1.2613.396-1.98.396-.5866 0-1.1073-.0807-1.562-.242-.44-.1613-.814-.3667-1.122-.616-.308-.264-.5646-.5427-.77-.836zm3.102-8.36c-.484 0-.924.0953-1.32.286-.3813.176-.7113.4473-.99.814-.264.3667-.4693.8067-.616 1.32-.132.4987-.198 1.0707-.198 1.716 0 .836.1247 1.5693.374 2.2.2494.616.6087 1.0927 1.078 1.43.4694.3373 1.0267.506 1.672.506.5134 0 .968-.11 1.364-.33.396-.2347.7187-.5427.968-.924.264-.3813.462-.8213.594-1.32s.198-1.0193.198-1.562c0-.7333-.1173-1.4153-.352-2.046-.22-.6307-.5646-1.1367-1.034-1.518-.4546-.3813-1.034-.572-1.738-.572z"/><path d="m34.6399 20.33c-1.188 0-2.2-.2567-3.036-.77-.8214-.5133-1.4447-1.2173-1.87-2.112-.4254-.9093-.638-1.936-.638-3.08 0-.88.1246-1.6793.374-2.398.264-.7333.6306-1.364 1.1-1.892.484-.528 1.0633-.93134 1.738-1.21.6893-.29334 1.4666-.44 2.332-.44 1.144 0 2.1046.23467 2.882.704.792.46933 1.3933 1.1367 1.804 2.002.4253.8507.638 1.8553.638 3.014v.462c0 .1467-.0074.264-.022.352h-9.768v-1.694h7.524c0-.44-.0734-.8433-.22-1.21-.1467-.3813-.3594-.7113-.638-.99-.264-.2787-.5867-.4913-.968-.638-.3814-.1613-.814-.242-1.298-.242-.6307 0-1.1954.1393-1.694.418-.484.2787-.8654.6673-1.144 1.166-.2787.4987-.418 1.0853-.418 1.76v.704.616c0 .6453.1246 1.2467.374 1.804.2493.5573.6233 1.0193 1.122 1.386.4986.352 1.122.528 1.87.528.66 0 1.188-.1173 1.584-.352.4106-.2347.7186-.506.924-.814.22-.3227.3666-.6087.44-.858h2.178c-.1907.7187-.506 1.364-.946 1.936s-1.012 1.0267-1.716 1.364c-.6894.3227-1.5254.484-2.508.484z"/><path d="m40.8815 20v-11.22h2.156v11.22zm7.458-7.194c0-.4987-.0807-.9387-.242-1.32-.1467-.3813-.3887-.6747-.726-.88-.3227-.2053-.7553-.308-1.298-.308-.4693 0-.8947.066-1.276.198-.3667.132-.682.3227-.946.572s-.4693.55-.616.902c-.132.3373-.198.7187-.198 1.144h-.748v-2.926h.792c.2933-.42534.7407-.82134 1.342-1.188.6013-.36667 1.386-.55 2.354-.55.704 0 1.3347.13933 1.892.418.5573.264 1.0047.67466 1.342 1.232.3373.5427.506 1.2467.506 2.112v7.788h-2.178z"/><path d="m61.6079 16.216h-6.578l-1.298 3.784h-2.552l5.852-15.73h2.618l5.896 15.73h-2.64zm-5.874-2.046h5.17l-2.552-7.656h-.044z"/><path d="m66.1335 20v-15.73h6.556c.9974 0 1.8847.16133 2.662.484.7774.308 1.386.814 1.826 1.518.4547.68933.682 1.584.682 2.684s-.2273 1.9947-.682 2.684c-.44.6893-1.0486 1.1953-1.826 1.518-.7773.308-1.6646.462-2.662.462h-4.136v6.38zm2.42-8.47h4.026c.616 0 1.122-.088 1.518-.264.4107-.1907.7187-.4767.924-.858.2054-.3813.308-.86534.308-1.452 0-.89467-.2273-1.54734-.682-1.958-.4546-.42533-1.144-.638-2.068-.638h-4.026z"/><path d="m79.5561 4.27h2.42v15.73h-2.42z"/></g></svg>