<svg fill="none" height="101" viewBox="0 0 231 101" width="231" xmlns="http://www.w3.org/2000/svg"><path d="m0 0h231v101h-231z" fill="#16150e"/><g fill="#fbe332"><path d="m183.372 33.5771-3.401-1.2204c-.927-.339-1.615-.7458-2.062-1.2543-.446-.5085-.686-1.1866-.686-2.0341 0-.9492.343-1.7289.995-2.3392.654-.6102 1.547-.9153 2.578-.9153 1.168 0 2.096.339 2.783 1.017.686.6781 1.031 1.5595 1.031 2.6104v.339h3.16v-.339c0-1.2543-.275-2.3731-.858-3.3562-.584-.9831-1.409-1.7289-2.44-2.2714-1.065-.5424-2.268-.8136-3.642-.8136-1.306 0-2.509.2712-3.539.8136-1.031.5425-1.821 1.2883-2.404 2.2036-.585.9492-.86 2.0341-.86 3.2206 0 1.3561.378 2.5426 1.1 3.5935.721 1.051 1.958 1.8646 3.676 2.4748l3.023 1.051c.997.3728 1.718.8475 2.165 1.3898.481.5425.722 1.2883.722 2.2036 0 .6442-.172 1.2543-.482 1.7629-.309.5424-.755.9492-1.339 1.2544-.585.3051-1.203.4406-1.89.4406-1.134 0-2.061-.3389-2.784-1.017-.721-.678-1.064-1.5594-1.064-2.6781v-.373h-3.127v.3052c0 1.2882.275 2.407.86 3.424.583.9831 1.407 1.7628 2.473 2.3052 1.064.5424 2.267.8136 3.642.8136 1.374 0 2.577-.2712 3.608-.8136 1.064-.5424 1.855-1.3221 2.439-2.3052s.858-2.1358.858-3.3901c0-1.39-.343-2.6443-1.064-3.6953-.688-.9831-1.856-1.7967-3.471-2.407z"/><path d="m25.9096 32.3567 3.4014 1.2204c1.6492.6103 2.8174 1.4239 3.5045 2.4409.7215 1.051 1.0651 2.3053 1.0651 3.6953 0 1.2543-.2748 2.407-.8588 3.3901-.5842.9831-1.3745 1.7628-2.4395 2.3052-1.0308.5424-2.2333.8136-3.6076.8136s-2.5769-.2712-3.642-.8136-1.8897-1.3221-2.4737-2.3052c-.5841-1.017-.859-2.1358-.859-3.424v-.3052h3.1266v.373c0 1.1187.3436 2.0001 1.0651 2.6781.7215.6781 1.6492 1.017 2.783 1.017.6871 0 1.3056-.1355 1.8897-.4406.5841-.3052 1.0307-.712 1.3399-1.2544.3093-.5085.481-1.1187.481-1.7629 0-.9153-.2061-1.6611-.6871-2.2036-.4467-.5423-1.1682-1.017-2.1646-1.3899l-3.0235-1.0509c-1.7179-.6102-2.9548-1.4577-3.7106-2.4748-.7216-1.0509-1.0995-2.2374-1.0995-3.5935 0-1.1865.2749-2.2714.859-3.2206.584-.9153 1.3743-1.6611 2.405-2.2036 1.0308-.5424 2.2333-.8136 3.5389-.8136 1.3743 0 2.5768.2712 3.6419.7797 1.0307.5425 1.8554 1.2883 2.4395 2.2714s.8589 2.1019.8589 3.3562v.339h-3.1953v-.339c0-1.0509-.3436-1.9323-1.0307-2.6104-.6872-.678-1.6148-1.017-2.783-1.017-1.0308 0-1.9241.3051-2.5769.9153-.6528.6103-.9964 1.39-.9964 2.3392 0 .8475.2406 1.5256.6872 2.0341.4467.5085 1.1338.9153 2.0615 1.2543z"/><path d="m166.983 38.9335-1.064-2.8477h-5.463l-1.066 2.8477h3.848l2.612 7.0175h2.748l-.034-2.7459z"/><path clip-rule="evenodd" d="m52.0217 24.2544c-1.0651-.5764-2.302-.8815-3.7107-.8815h-6.7341v22.5781h3.1609v-8.7464h3.5045c1.4087 0 2.68-.2713 3.745-.8475 1.0995-.5764 1.9241-1.39 2.5426-2.4409.584-1.051.8932-2.2375.8932-3.5936 0-1.356-.3092-2.5425-.8932-3.5935-.6185-1.0509-1.4431-1.8984-2.5082-2.4747zm-.9964 9.0515c-.7559.712-1.7866 1.0849-3.0922 1.0849h-3.1953v-8.2041h3.1953c1.3056 0 2.3363.3729 3.0922 1.1187.7559.7459 1.1338 1.729 1.1338 3.0172 0 1.2544-.3779 2.2375-1.1338 2.9833z" fill-rule="evenodd"/><path d="m63.188 45.951v-22.5781h13.7433v2.8138h-10.5823v7.0175h8.4865v2.8477h-8.4865v7.0854h10.5823v2.8137z"/><path d="m114.519 33.2042v.0339h-3.367v-9.8652h-3.161v22.5781h3.161v-9.8651h3.47l5.326 9.8651h2.783v-1.4577l-5.566-9.933 5.566-9.7296v-1.4578h-2.783z"/><path d="m130.049 45.951v-22.5781h13.743v2.8138h-10.582v7.0175h8.486v2.8477h-8.486v7.0854h10.582v2.8137z"/><path d="m202.785 32.7635 4.398-9.3906h2.817v1.4239l-5.875 11.967v9.1872h-3.161v-9.1194l-5.91-12.0687v-1.39h2.818l4.398 9.3906z"/><path d="m98.9548 36.0858 1.0652 2.8477 1.58 4.2716v2.7459h-2.7139l-2.6113-7.0175h-3.8481l1.0652-2.8477z"/><path d="m83.2877 43.2052v2.7459h2.7486l7.3527-19.832v-2.746h-2.7144z"/><path d="m150.253 43.2052v2.7459h2.748l7.353-19.832v-2.746h-2.714z"/><path d="m126 76.0386v1.39h1.361l3.639-10.0386v-1.39h-1.344z"/></g><path d="m25.187 77.143c-2.561 0-4.537-2.054-4.537-5.083s1.924-5.083 4.641-5.083c2.301 0 3.848 1.222 4.355 3.198h-1.365c-.442-1.248-1.417-2.093-2.99-2.093-1.963 0-3.276 1.638-3.276 3.978 0 2.353 1.339 3.978 3.328 3.978 1.807 0 3.094-1.131 3.133-3.185h-3.562v-1.17h4.875v5.317h-1.144v-2.496c-.403 1.339-1.456 2.639-3.458 2.639zm9.4532 0c-2.106 0-3.315-1.534-3.315-3.627 0-2.119 1.235-3.627 3.302-3.627 1.95 0 3.276 1.378 3.276 3.523 0 .13-.013.312-.026.481h-5.265c.104 1.508.871 2.314 2.028 2.314 1.014 0 1.547-.468 1.807-1.248h1.3c-.403 1.482-1.534 2.184-3.107 2.184zm-2.015-4.212h3.978c-.078-1.248-.832-2.106-1.976-2.106-1.105 0-1.846.715-2.002 2.106zm6.8605 4.069v-6.968h1.274v1.417c.312-.819.988-1.56 2.184-1.56 1.573 0 2.418 1.209 2.418 2.769v.026 4.316h-1.274v-4.121-.026c0-1.417-.65-2.028-1.664-2.028s-1.664.624-1.664 2.054v4.121zm10.7063.143c-2.106 0-3.315-1.534-3.315-3.627 0-2.119 1.235-3.627 3.302-3.627 1.95 0 3.276 1.378 3.276 3.523 0 .13-.013.312-.026.481h-5.265c.104 1.508.871 2.314 2.028 2.314 1.014 0 1.547-.468 1.807-1.248h1.3c-.403 1.482-1.534 2.184-3.107 2.184zm-2.015-4.212h3.978c-.078-1.248-.832-2.106-1.976-2.106-1.105 0-1.846.715-2.002 2.106zm6.8604 4.069v-6.968h1.274v1.495c.312-.975 1.001-1.638 2.288-1.638v1.261h-.39c-1.274 0-1.898.403-1.898 1.651v4.199zm6.6473.143c-1.3 0-2.34-.949-2.34-2.236 0-1.625 1.625-1.937 2.873-2.067l1.872-.195v-.117-.026c0-.91-.507-1.677-1.612-1.677-.975 0-1.521.598-1.612 1.261h-1.3c.156-1.313 1.274-2.197 2.912-2.197 2.119 0 2.886 1.326 2.886 2.626v.026 4.459h-1.274v-1.43c-.481.975-1.053 1.573-2.405 1.573zm-1.04-2.236c0 .897.702 1.391 1.508 1.391 1.287 0 1.937-1.014 1.937-2.262v-.52l-1.391.143c-.962.104-2.054.234-2.054 1.248zm9.3495 2.093c-1.209 0-2.158-.585-2.158-1.911v-.026-4.069h-1.469v-.962h1.469v-1.651h1.274v1.651h1.768v.962h-1.768v4.069.026c0 .741.377.949 1.014.949h.78v.962zm5.0425.143c-2.106 0-3.315-1.534-3.315-3.627 0-2.119 1.235-3.627 3.302-3.627 1.95 0 3.276 1.378 3.276 3.523 0 .13-.013.312-.026.481h-5.265c.104 1.508.871 2.314 2.028 2.314 1.014 0 1.547-.468 1.807-1.248h1.3c-.403 1.482-1.534 2.184-3.107 2.184zm-2.015-4.212h3.978c-.078-1.248-.832-2.106-1.976-2.106-1.105 0-1.846.715-2.002 2.106zm13.4905 4.212c-2.093 0-3.601-1.183-3.9-3.12h1.365c.182 1.339 1.209 2.015 2.535 2.015 1.742 0 2.691-.728 2.691-1.755 0-1.079-.793-1.339-2.379-1.69l-1.235-.273c-1.547-.338-2.665-1.118-2.665-2.6 0-1.573 1.573-2.743 3.562-2.743 2.08 0 3.497 1.092 3.783 2.717h-1.365c-.312-1.131-1.222-1.612-2.418-1.612-1.248 0-2.236.598-2.236 1.508 0 .936.637 1.248 2.158 1.586l1.235.273c1.989.442 2.886 1.144 2.886 2.691 0 1.768-1.599 3.003-4.017 3.003zm5.8419-.143v-9.88h3.367c2.951 0 4.9009 1.729 4.9009 4.94s-1.9499 4.94-4.9009 4.94zm1.313-1.17h2.093c2.21 0 3.497-1.339 3.497-3.77 0-2.418-1.287-3.77-3.497-3.77h-2.093zm15.0829 1.17-4.914-5.057v5.057h-1.313v-9.88h1.313v4.563l4.459-4.563h1.703l-4.576 4.68 5.07 5.2zm4.933.143c-1.547 0-2.756-.754-2.951-2.184h1.3c.195.988.949 1.248 1.651 1.248 1.092 0 1.651-.416 1.651-1.053 0-.624-.364-.923-1.404-1.144l-.975-.208c-1.209-.26-2.041-.806-2.041-1.872 0-1.235 1.222-2.041 2.743-2.041 1.352 0 2.509.624 2.821 1.885h-1.3c-.195-.611-.845-.949-1.521-.949-.754 0-1.482.351-1.482.975 0 .559.455.754 1.391.949l.975.208c1.456.312 2.054.962 2.054 2.041 0 1.339-1.196 2.145-2.912 2.145z" fill="#fff"/><path d="m139.039 77 3.549-9.88h2.691l3.549 9.88h-1.404l-1.066-2.99h-4.849l-1.066 2.99zm2.886-4.16h4.017l-2.002-5.668zm8.174 4.16v-9.88h3.64c2.34 0 3.757 1.105 3.757 3.094s-1.417 3.094-3.757 3.094h-2.327v3.692zm1.313-4.862h2.366c1.521 0 2.353-.624 2.353-1.924s-.832-1.924-2.353-1.924h-2.366zm7.739 4.862v-9.88h1.313v9.88zm8.902 0v-8.71h-3.289v-1.17h7.891v1.17h-3.289v8.71zm7.144.143c-2.106 0-3.315-1.534-3.315-3.627 0-2.119 1.235-3.627 3.302-3.627 1.95 0 3.276 1.378 3.276 3.523 0 .13-.013.312-.026.481h-5.265c.104 1.508.871 2.314 2.028 2.314 1.014 0 1.547-.468 1.807-1.248h1.3c-.403 1.482-1.534 2.184-3.107 2.184zm-2.015-4.212h3.978c-.078-1.248-.832-2.106-1.976-2.106-1.105 0-1.846.715-2.002 2.106zm9.278 4.212c-1.547 0-2.756-.754-2.951-2.184h1.3c.195.988.949 1.248 1.651 1.248 1.092 0 1.651-.416 1.651-1.053 0-.624-.364-.923-1.404-1.144l-.975-.208c-1.209-.26-2.041-.806-2.041-1.872 0-1.235 1.222-2.041 2.743-2.041 1.352 0 2.509.624 2.821 1.885h-1.3c-.195-.611-.845-.949-1.521-.949-.754 0-1.482.351-1.482.975 0 .559.455.754 1.391.949l.975.208c1.456.312 2.054.962 2.054 2.041 0 1.339-1.196 2.145-2.912 2.145zm7.131-.143c-1.209 0-2.158-.585-2.158-1.911v-.026-4.069h-1.469v-.962h1.469v-1.651h1.274v1.651h1.768v.962h-1.768v4.069.026c0 .741.377.949 1.014.949h.78v.962zm2.258 0v-6.968h1.274v6.968zm-.052-8.164v-1.716h1.378v1.716zm3.353 8.164v-6.968h1.274v1.417c.312-.819.988-1.56 2.184-1.56 1.573 0 2.418 1.209 2.418 2.769v.026 4.316h-1.274v-4.121-.026c0-1.417-.65-2.028-1.664-2.028s-1.664.624-1.664 2.054v4.121zm10.927 2.691c-1.677 0-3.003-.793-3.159-2.314h1.3c.117.91.923 1.378 1.859 1.378 1.066 0 1.911-.559 1.911-1.703v-1.716c-.429.988-1.417 1.625-2.457 1.625-1.69 0-2.964-1.391-2.964-3.536s1.287-3.536 2.964-3.536c1.3 0 2.132.858 2.457 1.794v-1.651h1.274v6.994c0 1.859-1.56 2.665-3.185 2.665zm-2.21-6.266c0 1.638.754 2.6 2.08 2.6s2.093-.962 2.093-2.6-.767-2.6-2.093-2.6-2.08.962-2.08 2.6z" fill="#fff"/></svg>