<svg width="812" height="338" viewBox="0 0 812 338" fill="none" xmlns="http://www.w3.org/2000/svg">
    <g clip-path="url(#clip0_2013_736)">
        <rect width="811.2" height="338" fill="#FBE331" />
        <g opacity="0.5">
            <mask id="mask0_2013_736" style="mask-type:luminance" maskUnits="userSpaceOnUse" x="-51" y="0" width="293"
                  height="293">
                <path d="M241.668 0H-51V292.668H241.668V0Z" fill="white" />
                <path d="M-50.818 0.182025H241.486V292.486H-50.818V0.182025Z" stroke="white" stroke-width="0.364051" />
            </mask>
            <g mask="url(#mask0_2013_736)">
                <path d="M240.922 243.393H192.39V291.925H240.922V243.393Z" stroke="#4C4B3F" stroke-opacity="0.6"
                      stroke-width="0.484188" stroke-miterlimit="10" />
                <path d="M192.393 146.334H143.862V194.865H192.393V146.334Z" stroke="#4C4B3F" stroke-opacity="0.6"
                      stroke-width="0.484188" stroke-miterlimit="10" />
                <path d="M143.862 146.334H95.3306V194.865H143.862V146.334Z" stroke="#4C4B3F" stroke-opacity="0.6"
                      stroke-width="0.484188" stroke-miterlimit="10" />
                <path d="M143.862 0.742432H95.3306V49.2741H143.862V0.742432Z" stroke="#4C4B3F" stroke-opacity="0.6"
                      stroke-width="0.484188" stroke-miterlimit="10" />
                <path d="M95.3344 0.742432H46.8027V49.2741H95.3344V0.742432Z" stroke="#4C4B3F" stroke-opacity="0.6"
                      stroke-width="0.484188" stroke-miterlimit="10" />
                <path d="M-50.2573 243.393L46.8023 0.742432" stroke="#4C4B3F" stroke-opacity="0.6"
                      stroke-width="0.484188" stroke-miterlimit="10" />
                <path d="M-1.72949 243.393L95.3302 0.742432" stroke="#4C4B3F" stroke-opacity="0.6"
                      stroke-width="0.484188" stroke-miterlimit="10" />
                <path d="M-1.72949 291.925L95.3302 49.2742" stroke="#4C4B3F" stroke-opacity="0.6"
                      stroke-width="0.484188" stroke-miterlimit="10" />
                <path d="M-50.2573 291.925L46.8023 49.2742" stroke="#4C4B3F" stroke-opacity="0.6"
                      stroke-width="0.484188" stroke-miterlimit="10" />
                <path d="M46.8021 243.393H-1.72949V291.925H46.8021V243.393Z" stroke="#4C4B3F" stroke-opacity="0.6"
                      stroke-width="0.484188" stroke-miterlimit="10" />
                <path d="M-1.72949 243.393L95.3302 0.742432" stroke="#4C4B3F" stroke-opacity="0.6"
                      stroke-width="0.484188" stroke-miterlimit="10" />
                <path d="M46.8027 243.393L143.862 0.742432" stroke="#4C4B3F" stroke-opacity="0.6"
                      stroke-width="0.484188" stroke-miterlimit="10" />
                <path d="M46.8027 291.925L143.862 49.2742" stroke="#4C4B3F" stroke-opacity="0.6" stroke-width="0.484188"
                      stroke-miterlimit="10" />
                <path d="M-1.72949 291.925L95.3302 49.2742" stroke="#4C4B3F" stroke-opacity="0.6"
                      stroke-width="0.484188" stroke-miterlimit="10" />
                <path d="M240.922 243.393L192.39 146.334" stroke="#4C4B3F" stroke-opacity="0.6" stroke-width="0.484188"
                      stroke-miterlimit="10" />
                <path d="M192.393 243.393L143.862 146.334" stroke="#4C4B3F" stroke-opacity="0.6" stroke-width="0.484188"
                      stroke-miterlimit="10" />
                <path d="M192.393 291.925L143.862 194.865" stroke="#4C4B3F" stroke-opacity="0.6" stroke-width="0.484188"
                      stroke-miterlimit="10" />
                <path d="M240.922 291.925L192.39 194.865" stroke="#4C4B3F" stroke-opacity="0.6" stroke-width="0.484188"
                      stroke-miterlimit="10" />
                <path d="M192.393 243.393H143.862V291.925H192.393V243.393Z" stroke="#4C4B3F" stroke-opacity="0.6"
                      stroke-width="0.484188" stroke-miterlimit="10" />
                <path d="M192.393 243.393L143.862 146.334" stroke="#4C4B3F" stroke-opacity="0.6" stroke-width="0.484188"
                      stroke-miterlimit="10" />
                <path d="M143.862 243.393L95.3306 146.334" stroke="#4C4B3F" stroke-opacity="0.6" stroke-width="0.484188"
                      stroke-miterlimit="10" />
                <path d="M143.862 291.925L95.3306 194.865" stroke="#4C4B3F" stroke-opacity="0.6" stroke-width="0.484188"
                      stroke-miterlimit="10" />
                <path d="M192.393 291.925L143.862 194.865" stroke="#4C4B3F" stroke-opacity="0.6" stroke-width="0.484188"
                      stroke-miterlimit="10" />
            </g>
            <mask id="mask1_2013_736" style="mask-type:luminance" maskUnits="userSpaceOnUse" x="241" y="0" width="294"
                  height="293">
                <path d="M534.335 0H241.667V292.668H534.335V0Z" fill="white" />
                <path d="M241.85 0.182025H534.153V292.486H241.85V0.182025Z" stroke="white" stroke-width="0.364051" />
            </mask>
            <g mask="url(#mask1_2013_736)">
                <path d="M290.939 243.393H242.408V291.925H290.939V243.393Z" stroke="#4C4B3F" stroke-opacity="0.6"
                      stroke-width="0.484188" stroke-miterlimit="10" />
                <path d="M533.59 97.8022H485.058V146.334H533.59V97.8022Z" stroke="#4C4B3F" stroke-opacity="0.6"
                      stroke-width="0.484188" stroke-miterlimit="10" />
                <path d="M533.59 146.334H485.058V194.865H533.59V146.334Z" stroke="#4C4B3F" stroke-opacity="0.6"
                      stroke-width="0.484188" stroke-miterlimit="10" />
                <path d="M533.59 49.2742H485.058V97.8058H533.59V49.2742Z" stroke="#4C4B3F" stroke-opacity="0.6"
                      stroke-width="0.484188" stroke-miterlimit="10" />
                <path d="M290.939 194.862H242.408V243.393H290.939V194.862Z" stroke="#4C4B3F" stroke-opacity="0.6"
                      stroke-width="0.484188" stroke-miterlimit="10" />
                <path d="M290.939 146.334H242.408V194.865H290.939V146.334Z" stroke="#4C4B3F" stroke-opacity="0.6"
                      stroke-width="0.484188" stroke-miterlimit="10" />
                <path d="M290.939 0.742432H242.408V49.2741H290.939V0.742432Z" stroke="#4C4B3F" stroke-opacity="0.6"
                      stroke-width="0.484188" stroke-miterlimit="10" />
                <path d="M290.939 49.2742H242.408V97.8058H290.939V49.2742Z" stroke="#4C4B3F" stroke-opacity="0.6"
                      stroke-width="0.484188" stroke-miterlimit="10" />
                <path d="M290.939 0.742432L533.59 49.2741" stroke="#4C4B3F" stroke-opacity="0.6" stroke-width="0.484188"
                      stroke-miterlimit="10" />
                <path d="M290.939 49.2742L533.59 97.8058" stroke="#4C4B3F" stroke-opacity="0.6" stroke-width="0.484188"
                      stroke-miterlimit="10" />
                <path d="M242.411 0.742432L485.062 49.2741" stroke="#4C4B3F" stroke-opacity="0.6"
                      stroke-width="0.484188" stroke-miterlimit="10" />
                <path d="M242.411 49.2742L485.062 97.8058" stroke="#4C4B3F" stroke-opacity="0.6" stroke-width="0.484188"
                      stroke-miterlimit="10" />
                <path d="M290.939 49.2742L533.59 97.8058" stroke="#4C4B3F" stroke-opacity="0.6" stroke-width="0.484188"
                      stroke-miterlimit="10" />
                <path d="M290.939 97.8022L533.59 146.334" stroke="#4C4B3F" stroke-opacity="0.6" stroke-width="0.484188"
                      stroke-miterlimit="10" />
                <path d="M242.411 49.2742L485.062 97.8058" stroke="#4C4B3F" stroke-opacity="0.6" stroke-width="0.484188"
                      stroke-miterlimit="10" />
                <path d="M242.411 97.8022L485.062 146.334" stroke="#4C4B3F" stroke-opacity="0.6" stroke-width="0.484188"
                      stroke-miterlimit="10" />
                <path d="M290.939 194.862L533.59 146.33" stroke="#4C4B3F" stroke-opacity="0.6" stroke-width="0.484188"
                      stroke-miterlimit="10" />
                <path d="M242.411 194.862L485.062 146.33" stroke="#4C4B3F" stroke-opacity="0.6" stroke-width="0.484188"
                      stroke-miterlimit="10" />
                <path d="M290.939 194.862L533.59 146.33" stroke="#4C4B3F" stroke-opacity="0.6" stroke-width="0.484188"
                      stroke-miterlimit="10" />
                <path d="M290.939 146.334L533.59 97.8022" stroke="#4C4B3F" stroke-opacity="0.6" stroke-width="0.484188"
                      stroke-miterlimit="10" />
                <path d="M242.411 194.862L485.062 146.33" stroke="#4C4B3F" stroke-opacity="0.6" stroke-width="0.484188"
                      stroke-miterlimit="10" />
                <path d="M242.411 146.334L485.062 97.8022" stroke="#4C4B3F" stroke-opacity="0.6" stroke-width="0.484188"
                      stroke-miterlimit="10" />
                <path d="M290.939 243.393L533.59 194.862" stroke="#4C4B3F" stroke-opacity="0.6" stroke-width="0.484188"
                      stroke-miterlimit="10" />
                <path d="M242.411 243.393L485.062 194.862" stroke="#4C4B3F" stroke-opacity="0.6" stroke-width="0.484188"
                      stroke-miterlimit="10" />
                <path d="M290.939 243.393L533.59 194.862" stroke="#4C4B3F" stroke-opacity="0.6" stroke-width="0.484188"
                      stroke-miterlimit="10" />
                <path d="M290.939 194.862L533.59 146.33" stroke="#4C4B3F" stroke-opacity="0.6" stroke-width="0.484188"
                      stroke-miterlimit="10" />
                <path d="M242.411 243.393L485.062 194.862" stroke="#4C4B3F" stroke-opacity="0.6" stroke-width="0.484188"
                      stroke-miterlimit="10" />
                <path d="M242.411 194.862L485.062 146.33" stroke="#4C4B3F" stroke-opacity="0.6" stroke-width="0.484188"
                      stroke-miterlimit="10" />
            </g>
            <mask id="mask2_2013_736" style="mask-type:luminance" maskUnits="userSpaceOnUse" x="534" y="0" width="293"
                  height="293">
                <path d="M827 0H534.333V292.668H827V0Z" fill="white" />
                <path d="M534.515 0.182025H826.818V292.486H534.515V0.182025Z" stroke="white" stroke-width="0.364051" />
            </mask>
            <g mask="url(#mask2_2013_736)">
                <path d="M583.606 243.393H535.075V291.925H583.606V243.393Z" stroke="#4C4B3F" stroke-opacity="0.6"
                      stroke-width="0.484188" stroke-miterlimit="10" />
                <path d="M826.253 243.393H777.729V291.925H826.253V243.393Z" stroke="#4C4B3F" stroke-opacity="0.6"
                      stroke-width="0.484188" stroke-miterlimit="10" />
                <path d="M826.253 0.742432H777.729V49.2741H826.253V0.742432Z" stroke="#4C4B3F" stroke-opacity="0.6"
                      stroke-width="0.484188" stroke-miterlimit="10" />
                <path d="M777.729 243.393H729.197V291.925H777.729V243.393Z" stroke="#4C4B3F" stroke-opacity="0.6"
                      stroke-width="0.484188" stroke-miterlimit="10" />
                <path d="M777.729 0.742432H729.197V49.2741H777.729V0.742432Z" stroke="#4C4B3F" stroke-opacity="0.6"
                      stroke-width="0.484188" stroke-miterlimit="10" />
                <path d="M729.197 243.393H680.666V291.925H729.197V243.393Z" stroke="#4C4B3F" stroke-opacity="0.6"
                      stroke-width="0.484188" stroke-miterlimit="10" />
                <path d="M729.197 194.862H680.666V243.393H729.197V194.862Z" stroke="#4C4B3F" stroke-opacity="0.6"
                      stroke-width="0.484188" stroke-miterlimit="10" />
                <path d="M729.197 146.334H680.666V194.865H729.197V146.334Z" stroke="#4C4B3F" stroke-opacity="0.6"
                      stroke-width="0.484188" stroke-miterlimit="10" />
                <path d="M729.197 97.8022H680.666V146.334H729.197V97.8022Z" stroke="#4C4B3F" stroke-opacity="0.6"
                      stroke-width="0.484188" stroke-miterlimit="10" />
                <path d="M729.197 0.742432H680.666V49.2741H729.197V0.742432Z" stroke="#4C4B3F" stroke-opacity="0.6"
                      stroke-width="0.484188" stroke-miterlimit="10" />
                <path d="M729.197 49.2742H680.666V97.8058H729.197V49.2742Z" stroke="#4C4B3F" stroke-opacity="0.6"
                      stroke-width="0.484188" stroke-miterlimit="10" />
                <path d="M680.666 243.393H632.134V291.925H680.666V243.393Z" stroke="#4C4B3F" stroke-opacity="0.6"
                      stroke-width="0.484188" stroke-miterlimit="10" />
                <path d="M680.666 194.862H632.134V243.393H680.666V194.862Z" stroke="#4C4B3F" stroke-opacity="0.6"
                      stroke-width="0.484188" stroke-miterlimit="10" />
                <path d="M680.666 146.334H632.134V194.865H680.666V146.334Z" stroke="#4C4B3F" stroke-opacity="0.6"
                      stroke-width="0.484188" stroke-miterlimit="10" />
                <path d="M680.666 97.8022H632.134V146.334H680.666V97.8022Z" stroke="#4C4B3F" stroke-opacity="0.6"
                      stroke-width="0.484188" stroke-miterlimit="10" />
                <path d="M680.666 0.742432H632.134V49.2741H680.666V0.742432Z" stroke="#4C4B3F" stroke-opacity="0.6"
                      stroke-width="0.484188" stroke-miterlimit="10" />
                <path d="M680.666 49.2742H632.134V97.8058H680.666V49.2742Z" stroke="#4C4B3F" stroke-opacity="0.6"
                      stroke-width="0.484188" stroke-miterlimit="10" />
                <path d="M632.138 243.393H583.606V291.925H632.138V243.393Z" stroke="#4C4B3F" stroke-opacity="0.6"
                      stroke-width="0.484188" stroke-miterlimit="10" />
                <path d="M632.138 0.742432H583.606V49.2741H632.138V0.742432Z" stroke="#4C4B3F" stroke-opacity="0.6"
                      stroke-width="0.484188" stroke-miterlimit="10" />
                <path d="M583.606 0.742432H535.075V49.2741H583.606V0.742432Z" stroke="#4C4B3F" stroke-opacity="0.6"
                      stroke-width="0.484188" stroke-miterlimit="10" />
                <path d="M535.075 0.742432L680.666 49.2741" stroke="#4C4B3F" stroke-opacity="0.6"
                      stroke-width="0.484188" stroke-miterlimit="10" />
                <path d="M535.075 49.2742L680.666 97.8058" stroke="#4C4B3F" stroke-opacity="0.6" stroke-width="0.484188"
                      stroke-miterlimit="10" />
                <path d="M583.606 0.742432L729.198 49.2741" stroke="#4C4B3F" stroke-opacity="0.6"
                      stroke-width="0.484188" stroke-miterlimit="10" />
                <path d="M583.606 49.2742L729.198 97.8058" stroke="#4C4B3F" stroke-opacity="0.6" stroke-width="0.484188"
                      stroke-miterlimit="10" />
                <path d="M826.253 0.742432L680.666 49.2741" stroke="#4C4B3F" stroke-opacity="0.6"
                      stroke-width="0.484188" stroke-miterlimit="10" />
                <path d="M826.253 49.2742L680.666 97.8058" stroke="#4C4B3F" stroke-opacity="0.6" stroke-width="0.484188"
                      stroke-miterlimit="10" />
                <path d="M777.729 0.742432L632.134 49.2741" stroke="#4C4B3F" stroke-opacity="0.6"
                      stroke-width="0.484188" stroke-miterlimit="10" />
                <path d="M777.729 49.2742L632.134 97.8058" stroke="#4C4B3F" stroke-opacity="0.6" stroke-width="0.484188"
                      stroke-miterlimit="10" />
                <path d="M535.075 291.925L680.666 243.393" stroke="#4C4B3F" stroke-opacity="0.6" stroke-width="0.484188"
                      stroke-miterlimit="10" />
                <path d="M535.075 243.393L680.666 194.862" stroke="#4C4B3F" stroke-opacity="0.6" stroke-width="0.484188"
                      stroke-miterlimit="10" />
                <path d="M583.606 291.925L729.198 243.393" stroke="#4C4B3F" stroke-opacity="0.6" stroke-width="0.484188"
                      stroke-miterlimit="10" />
                <path d="M583.606 243.393L729.198 194.862" stroke="#4C4B3F" stroke-opacity="0.6" stroke-width="0.484188"
                      stroke-miterlimit="10" />
                <path d="M826.253 291.925L680.666 243.393" stroke="#4C4B3F" stroke-opacity="0.6" stroke-width="0.484188"
                      stroke-miterlimit="10" />
                <path d="M826.253 243.393L680.666 194.862" stroke="#4C4B3F" stroke-opacity="0.6" stroke-width="0.484188"
                      stroke-miterlimit="10" />
                <path d="M777.729 291.925L632.134 243.393" stroke="#4C4B3F" stroke-opacity="0.6" stroke-width="0.484188"
                      stroke-miterlimit="10" />
                <path d="M777.729 243.393L632.134 194.862" stroke="#4C4B3F" stroke-opacity="0.6" stroke-width="0.484188"
                      stroke-miterlimit="10" />
            </g>
            <mask id="mask3_2013_736" style="mask-type:luminance" maskUnits="userSpaceOnUse" x="-51" y="292" width="293"
                  height="294">
                <path d="M241.668 292.668H-51V585.336H241.668V292.668Z" fill="white" />
                <path d="M-50.818 292.85H241.486V585.154H-50.818V292.85Z" stroke="white" stroke-width="0.364051" />
            </mask>
            <g mask="url(#mask3_2013_736)">
                <path d="M240.922 293.41H192.39V341.942H240.922V293.41Z" stroke="#4C4B3F" stroke-opacity="0.6"
                      stroke-width="0.484188" stroke-miterlimit="10" />
                <path d="M-50.2573 293.41H240.922" stroke="#4C4B3F" stroke-opacity="0.6" stroke-width="0.484188"
                      stroke-miterlimit="10" />
            </g>
            <mask id="mask4_2013_736" style="mask-type:luminance" maskUnits="userSpaceOnUse" x="241" y="292" width="294"
                  height="294">
                <path d="M534.335 292.668H241.667V585.336H534.335V292.668Z" fill="white" />
                <path d="M241.85 292.85H534.153V585.154H241.85V292.85Z" stroke="white" stroke-width="0.364051" />
            </mask>
            <g mask="url(#mask4_2013_736)">
                <path d="M436.53 293.41H387.999V341.942H436.53V293.41Z" stroke="#4C4B3F" stroke-opacity="0.6"
                      stroke-width="0.484188" stroke-miterlimit="10" />
                <path d="M387.998 293.41H339.467V341.942H387.998V293.41Z" stroke="#4C4B3F" stroke-opacity="0.6"
                      stroke-width="0.484188" stroke-miterlimit="10" />
                <path d="M339.471 293.41H290.939V341.942H339.471V293.41Z" stroke="#4C4B3F" stroke-opacity="0.6"
                      stroke-width="0.484188" stroke-miterlimit="10" />
                <path d="M290.939 293.41H242.408V341.942H290.939V293.41Z" stroke="#4C4B3F" stroke-opacity="0.6"
                      stroke-width="0.484188" stroke-miterlimit="10" />
                <path d="M533.59 390.47L436.53 293.41" stroke="#4C4B3F" stroke-opacity="0.6" stroke-width="0.484188"
                      stroke-miterlimit="10" />
                <path d="M533.59 439.002L387.999 293.41" stroke="#4C4B3F" stroke-opacity="0.6" stroke-width="0.484188"
                      stroke-miterlimit="10" />
                <path d="M485.062 390.47L388.002 293.41" stroke="#4C4B3F" stroke-opacity="0.6" stroke-width="0.484188"
                      stroke-miterlimit="10" />
                <path d="M485.062 439.002L339.471 293.41" stroke="#4C4B3F" stroke-opacity="0.6" stroke-width="0.484188"
                      stroke-miterlimit="10" />
                <path d="M436.531 390.47L339.471 293.41" stroke="#4C4B3F" stroke-opacity="0.6" stroke-width="0.484188"
                      stroke-miterlimit="10" />
                <path d="M436.531 439.002L290.939 293.41" stroke="#4C4B3F" stroke-opacity="0.6" stroke-width="0.484188"
                      stroke-miterlimit="10" />
            </g>
            <mask id="mask5_2013_736" style="mask-type:luminance" maskUnits="userSpaceOnUse" x="534" y="292" width="293"
                  height="294">
                <path d="M827 292.668H534.333V585.336H827V292.668Z" fill="white" />
                <path d="M534.515 292.85H826.818V585.154H534.515V292.85Z" stroke="white" stroke-width="0.364051" />
            </mask>
            <g mask="url(#mask5_2013_736)">
                <path d="M826.253 293.41H777.729V341.942H826.253V293.41Z" stroke="#4C4B3F" stroke-opacity="0.6"
                      stroke-width="0.484188" stroke-miterlimit="10" />
                <path d="M777.729 293.41H729.197V341.942H777.729V293.41Z" stroke="#4C4B3F" stroke-opacity="0.6"
                      stroke-width="0.484188" stroke-miterlimit="10" />
                <path d="M680.666 293.41H632.134V341.942H680.666V293.41Z" stroke="#4C4B3F" stroke-opacity="0.6"
                      stroke-width="0.484188" stroke-miterlimit="10" />
                <path d="M583.606 293.41H535.075V341.942H583.606V293.41Z" stroke="#4C4B3F" stroke-opacity="0.6"
                      stroke-width="0.484188" stroke-miterlimit="10" />
                <path d="M632.138 293.41L583.606 390.47" stroke="#4C4B3F" stroke-opacity="0.6" stroke-width="0.484188"
                      stroke-miterlimit="10" />
                <path d="M680.666 293.41L632.134 390.47" stroke="#4C4B3F" stroke-opacity="0.6" stroke-width="0.484188"
                      stroke-miterlimit="10" />
                <path d="M729.198 293.41L632.134 390.47" stroke="#4C4B3F" stroke-opacity="0.6" stroke-width="0.484188"
                      stroke-miterlimit="10" />
                <path d="M777.729 293.41L632.134 439.002" stroke="#4C4B3F" stroke-opacity="0.6" stroke-width="0.484188"
                      stroke-miterlimit="10" />
                <path d="M826.253 293.41L680.666 439.002" stroke="#4C4B3F" stroke-opacity="0.6" stroke-width="0.484188"
                      stroke-miterlimit="10" />
            </g>
        </g>
        <path d="M61.176 228.239V188.055H72.0679L83.9643 228.08L95.8608 188.055H106.753V228.239H101.412V188.214L89.516 228.239H78.4127L66.5162 188.214V228.239H61.176ZM127.373 228.82C118.966 228.82 113.573 222.846 113.573 214.069C113.573 205.292 118.966 199.317 127.373 199.317C135.78 199.317 141.12 205.292 141.12 214.069C141.12 222.846 135.78 228.82 127.373 228.82ZM118.86 214.069C118.86 220.731 121.98 225.014 127.373 225.014C132.766 225.014 135.832 220.731 135.832 214.069C135.832 207.407 132.766 203.124 127.373 203.124C121.98 203.124 118.86 207.407 118.86 214.069ZM157.9 228.82C151.027 228.82 145.845 222.793 145.845 214.069C145.845 205.345 151.08 199.317 157.9 199.317C163.188 199.317 166.572 202.965 167.893 206.772V188.055H173.075V228.239H167.893V222.053C166.149 226.124 162.13 228.82 157.9 228.82ZM151.133 214.069C151.133 220.731 154.199 225.014 159.592 225.014C164.985 225.014 168.105 220.731 168.105 214.069C168.105 207.407 164.985 203.124 159.592 203.124C154.199 203.124 151.133 207.407 151.133 214.069ZM193.045 228.82C184.479 228.82 179.562 222.581 179.562 214.069C179.562 205.45 184.585 199.317 192.992 199.317C200.923 199.317 206.316 204.922 206.316 213.646C206.316 214.175 206.263 214.915 206.21 215.602H184.797C185.22 221.735 188.339 225.014 193.045 225.014C197.169 225.014 199.337 223.11 200.394 219.938H205.682C204.043 225.965 199.443 228.82 193.045 228.82ZM184.85 211.689H201.029C200.712 206.614 197.645 203.124 192.992 203.124C188.498 203.124 185.484 206.032 184.85 211.689ZM212.752 228.239V199.899H217.934V205.979C219.203 202.014 222.005 199.317 227.239 199.317V204.446H225.653C220.472 204.446 217.934 206.085 217.934 211.161V228.239H212.752ZM232.476 228.239V199.899H237.658V205.662C238.927 202.331 241.676 199.317 246.541 199.317C252.938 199.317 256.375 204.234 256.375 210.579V210.685V228.239H251.193V211.478V211.372C251.193 205.609 248.55 203.124 244.426 203.124C240.302 203.124 237.658 205.662 237.658 211.478V228.239H232.476ZM287.577 228.239C282.66 228.239 278.8 225.859 278.8 220.466V220.361V203.811H272.825V199.899H278.8V193.184H283.981V199.899H291.172V203.811H283.981V220.361V220.466C283.981 223.48 285.515 224.326 288.105 224.326H291.278V228.239H287.577ZM308.35 228.82C299.943 228.82 294.55 222.846 294.55 214.069C294.55 205.292 299.943 199.317 308.35 199.317C316.756 199.317 322.097 205.292 322.097 214.069C322.097 222.846 316.756 228.82 308.35 228.82ZM299.837 214.069C299.837 220.731 302.957 225.014 308.35 225.014C313.743 225.014 316.809 220.731 316.809 214.069C316.809 207.407 313.743 203.124 308.35 203.124C302.957 203.124 299.837 207.407 299.837 214.069ZM340.569 228.82C332.162 228.82 326.769 222.846 326.769 214.069C326.769 205.292 332.162 199.317 340.569 199.317C348.976 199.317 354.316 205.292 354.316 214.069C354.316 222.846 348.976 228.82 340.569 228.82ZM332.057 214.069C332.057 220.731 335.176 225.014 340.569 225.014C345.962 225.014 349.029 220.731 349.029 214.069C349.029 207.407 345.962 203.124 340.569 203.124C335.176 203.124 332.057 207.407 332.057 214.069ZM360.787 228.239V188.055H365.968V228.239H360.787ZM374.211 228.239V199.899H379.393V228.239H374.211ZM374 195.034V188.055H379.604V195.034H374ZM387.636 228.239V199.899H392.818V205.662C394.087 202.331 396.836 199.317 401.7 199.317C408.098 199.317 411.535 204.234 411.535 210.579V210.685V228.239H406.353V211.478V211.372C406.353 205.609 403.71 203.124 399.586 203.124C395.461 203.124 392.818 205.662 392.818 211.478V228.239H387.636ZM432.079 239.184C425.259 239.184 419.866 235.958 419.231 229.772H424.519C424.994 233.473 428.273 235.377 432.079 235.377C436.415 235.377 439.852 233.103 439.852 228.45V221.471C438.107 225.489 434.089 228.08 429.859 228.08C422.985 228.08 417.804 222.423 417.804 213.699C417.804 204.975 423.038 199.317 429.859 199.317C435.146 199.317 438.53 202.807 439.852 206.614V199.899H445.033V228.345C445.033 235.905 438.689 239.184 432.079 239.184ZM423.091 213.699C423.091 220.361 426.158 224.273 431.551 224.273C436.944 224.273 440.063 220.361 440.063 213.699C440.063 207.037 436.944 203.124 431.551 203.124C426.158 203.124 423.091 207.037 423.091 213.699ZM467.988 195.933C467.988 190.487 471.795 188.055 476.765 188.055H480.466V191.968H477.293C474.703 191.968 473.169 192.814 473.169 195.933V199.899H480.466V203.811H473.169V228.239H467.988V203.811H462.119V199.899H467.988V195.933ZM496.4 228.82C487.994 228.82 482.601 222.846 482.601 214.069C482.601 205.292 487.994 199.317 496.4 199.317C504.807 199.317 510.147 205.292 510.147 214.069C510.147 222.846 504.807 228.82 496.4 228.82ZM487.888 214.069C487.888 220.731 491.007 225.014 496.4 225.014C501.793 225.014 504.86 220.731 504.86 214.069C504.86 207.407 501.793 203.124 496.4 203.124C491.007 203.124 487.888 207.407 487.888 214.069ZM516.618 228.239V199.899H521.799V205.979C523.068 202.014 525.871 199.317 531.105 199.317V204.446H529.519C524.337 204.446 521.799 206.085 521.799 211.161V228.239H516.618ZM553.686 238.602L558.233 225.119H553.21L543.376 199.899H548.716L558.392 224.643L566.693 199.899H572.086L559.079 238.602H553.686ZM588.515 228.82C580.109 228.82 574.715 222.846 574.715 214.069C574.715 205.292 580.109 199.317 588.515 199.317C596.922 199.317 602.262 205.292 602.262 214.069C602.262 222.846 596.922 228.82 588.515 228.82ZM580.003 214.069C580.003 220.731 583.122 225.014 588.515 225.014C593.908 225.014 596.975 220.731 596.975 214.069C596.975 207.407 593.908 203.124 588.515 203.124C583.122 203.124 580.003 207.407 580.003 214.069ZM618.144 228.82C611.746 228.82 608.415 223.903 608.415 217.558V217.453V199.899H613.597V216.66V216.765C613.597 222.476 616.135 225.014 620.259 225.014C624.383 225.014 626.868 222.423 626.868 216.66V199.899H632.05V228.239H626.868V222.581C625.652 225.807 622.85 228.82 618.144 228.82ZM640.281 228.239V199.899H645.463V205.979C646.732 202.014 649.534 199.317 654.768 199.317V204.446H653.182C648.001 204.446 645.463 206.085 645.463 211.161V228.239H640.281ZM666.625 228.239L681.059 188.055H692.004L706.438 228.239H700.728L696.392 216.078H676.671L672.335 228.239H666.625ZM678.362 211.319H694.7L686.558 188.267L678.362 211.319ZM711.609 228.239V188.055H726.413C735.93 188.055 741.693 192.549 741.693 200.639C741.693 208.729 735.93 213.223 726.413 213.223H716.949V228.239H711.609ZM716.949 208.464H726.572C732.758 208.464 736.142 205.926 736.142 200.639C736.142 195.352 732.758 192.814 726.572 192.814H716.949V208.464ZM748.424 228.239V188.055H753.764V228.239H748.424Z"
              fill="black" />
        <path d="M67.5394 280.241C61.1035 280.241 56.6524 275.489 56.6524 268.482C56.6524 261.475 61.1035 256.723 67.5394 256.723C73.9754 256.723 78.4264 261.475 78.4264 268.482C78.4264 275.489 73.9754 280.241 67.5394 280.241ZM59.8102 268.482C59.8102 273.895 62.938 277.685 67.5394 277.685C72.1408 277.685 75.2686 273.895 75.2686 268.482C75.2686 263.069 72.1408 259.279 67.5394 259.279C62.938 259.279 59.8102 263.069 59.8102 268.482ZM82.2826 285.805V263.79H85.2299V267.7C85.9818 265.535 87.9065 263.46 90.914 263.46C94.7936 263.46 97.771 266.888 97.771 271.85C97.771 276.813 94.8237 280.241 90.914 280.241C88.508 280.241 86.2223 278.707 85.2299 276.392V285.805H82.2826ZM85.1096 271.85C85.1096 275.64 86.884 278.076 89.9516 278.076C93.0192 278.076 94.7635 275.64 94.7635 271.85C94.7635 268.061 93.0192 265.625 89.9516 265.625C86.884 265.625 85.1096 268.061 85.1096 271.85ZM108.138 280.241C103.265 280.241 100.469 276.692 100.469 271.85C100.469 266.948 103.326 263.46 108.108 263.46C112.619 263.46 115.686 266.647 115.686 271.61C115.686 271.911 115.656 272.332 115.626 272.723H103.446C103.687 276.211 105.461 278.076 108.138 278.076C110.483 278.076 111.716 276.993 112.318 275.189H115.325C114.393 278.617 111.777 280.241 108.138 280.241ZM103.476 270.497H112.679C112.498 267.61 110.754 265.625 108.108 265.625C105.551 265.625 103.837 267.279 103.476 270.497ZM119.347 279.91V263.79H122.295V267.069C123.016 265.174 124.58 263.46 127.347 263.46C130.986 263.46 132.941 266.257 132.941 269.865V269.926V279.91H129.994V270.377V270.317C129.994 267.038 128.49 265.625 126.144 265.625C123.798 265.625 122.295 267.069 122.295 270.377V279.91H119.347ZM135.183 279.91L143.394 257.054H149.619L157.83 279.91H154.582L152.115 272.993H140.898L138.431 279.91H135.183ZM141.86 270.287H151.153L146.522 257.174L141.86 270.287ZM160.771 279.91V257.054H169.191C174.605 257.054 177.883 259.61 177.883 264.211C177.883 268.813 174.605 271.369 169.191 271.369H163.808V279.91H160.771ZM163.808 268.662H169.282C172.8 268.662 174.725 267.219 174.725 264.211C174.725 261.204 172.8 259.76 169.282 259.76H163.808V268.662ZM181.711 279.91V257.054H184.749V279.91H181.711ZM189.621 272.632V270.166H199.125V272.632H189.621ZM203.492 279.91V263.79H206.439V267.069C207.161 265.174 208.725 263.46 211.491 263.46C215.13 263.46 217.085 266.257 217.085 269.865V269.926V279.91H214.138V270.377V270.317C214.138 267.038 212.634 265.625 210.288 265.625C207.943 265.625 206.439 267.069 206.439 270.377V279.91H203.492ZM226.095 280.241C223.087 280.241 220.681 278.046 220.681 275.068C220.681 271.309 224.44 270.587 227.328 270.287L231.658 269.835V269.565V269.505C231.658 267.399 230.485 265.625 227.929 265.625C225.673 265.625 224.41 267.008 224.2 268.542H221.192C221.553 265.505 224.14 263.46 227.929 263.46C232.831 263.46 234.606 266.527 234.606 269.535V269.595V279.91H231.658V276.602C230.546 278.858 229.222 280.241 226.095 280.241ZM223.689 275.068C223.689 277.144 225.313 278.286 227.177 278.286C230.155 278.286 231.658 275.941 231.658 273.053V271.85L228.44 272.181C226.215 272.422 223.689 272.723 223.689 275.068ZM245.318 279.91C242.521 279.91 240.326 278.557 240.326 275.489V275.429V266.016H236.927V263.79H240.326V259.971H243.273V263.79H247.363V266.016H243.273V275.429V275.489C243.273 277.204 244.145 277.685 245.619 277.685H247.423V279.91H245.318ZM250.542 279.91V263.79H253.489V279.91H250.542ZM250.422 261.024V257.054H253.609V261.024H250.422ZM261.607 279.91L256.223 263.79H259.231L264.494 279.76L269.727 263.79H272.734L267.351 279.91H261.607ZM281.977 280.241C277.105 280.241 274.308 276.692 274.308 271.85C274.308 266.948 277.165 263.46 281.947 263.46C286.458 263.46 289.526 266.647 289.526 271.61C289.526 271.911 289.496 272.332 289.466 272.723H277.286C277.526 276.211 279.301 278.076 281.977 278.076C284.323 278.076 285.556 276.993 286.158 275.189H289.165C288.233 278.617 285.616 280.241 281.977 280.241ZM277.316 270.497H286.518C286.338 267.61 284.594 265.625 281.947 265.625C279.391 265.625 277.676 267.279 277.316 270.497ZM306.48 279.91L316.585 257.054H321.517L311.412 279.91H306.48ZM338.399 279.91V257.054H346.82C352.233 257.054 355.511 259.61 355.511 264.211C355.511 268.813 352.233 271.369 346.82 271.369H341.436V279.91H338.399ZM341.436 268.662H346.91C350.429 268.662 352.353 267.219 352.353 264.211C352.353 261.204 350.429 259.76 346.91 259.76H341.436V268.662ZM365.185 280.241C360.403 280.241 357.336 276.843 357.336 271.85C357.336 266.858 360.403 263.46 365.185 263.46C369.967 263.46 373.005 266.858 373.005 271.85C373.005 276.843 369.967 280.241 365.185 280.241ZM360.343 271.85C360.343 275.64 362.118 278.076 365.185 278.076C368.253 278.076 369.997 275.64 369.997 271.85C369.997 268.061 368.253 265.625 365.185 265.625C362.118 265.625 360.343 268.061 360.343 271.85ZM376.685 279.91V257.054H379.632V279.91H376.685ZM384.321 279.91V263.79H387.268V279.91H384.321ZM384.201 261.024V257.054H387.389V261.024H384.201ZM397.551 280.241C393.972 280.241 391.175 278.497 390.724 275.189H393.732C394.183 277.474 395.927 278.076 397.551 278.076C400.077 278.076 401.371 277.113 401.371 275.64C401.371 274.196 400.529 273.505 398.123 272.993L395.867 272.512C393.07 271.911 391.145 270.647 391.145 268.181C391.145 265.324 393.972 263.46 397.491 263.46C400.619 263.46 403.295 264.903 404.017 267.82H401.01C400.559 266.407 399.055 265.625 397.491 265.625C395.747 265.625 394.062 266.437 394.062 267.881C394.062 269.174 395.115 269.625 397.28 270.076L399.536 270.557C402.904 271.279 404.288 272.783 404.288 275.279C404.288 278.377 401.521 280.241 397.551 280.241ZM407.905 279.91V257.054H410.852V267.069C411.574 265.174 413.138 263.46 415.905 263.46C419.544 263.46 421.499 266.257 421.499 269.865V269.926V279.91H418.551V270.377V270.317C418.551 267.038 417.048 265.625 414.702 265.625C412.356 265.625 410.852 267.069 410.852 270.377V279.91H407.905ZM432.673 280.241C427.801 280.241 425.004 276.692 425.004 271.85C425.004 266.948 427.861 263.46 432.643 263.46C437.154 263.46 440.222 266.647 440.222 271.61C440.222 271.911 440.192 272.332 440.162 272.723H427.982C428.222 276.211 429.997 278.076 432.673 278.076C435.019 278.076 436.252 276.993 436.854 275.189H439.861C438.929 278.617 436.312 280.241 432.673 280.241ZM428.012 270.497H437.215C437.034 267.61 435.29 265.625 432.643 265.625C430.087 265.625 428.373 267.279 428.012 270.497ZM449.748 280.241C445.838 280.241 442.89 276.813 442.89 271.85C442.89 266.888 445.868 263.46 449.748 263.46C452.755 263.46 454.68 265.535 455.432 267.7V257.054H458.379V279.91H455.432V276.392C454.439 278.707 452.153 280.241 449.748 280.241ZM445.898 271.85C445.898 275.64 447.642 278.076 450.71 278.076C453.778 278.076 455.552 275.64 455.552 271.85C455.552 268.061 453.778 265.625 450.71 265.625C447.642 265.625 445.898 268.061 445.898 271.85ZM478.399 280.241C473.557 280.241 470.069 277.504 469.377 273.023H472.535C472.956 276.121 475.332 277.685 478.399 277.685C482.429 277.685 484.625 276.001 484.625 273.625C484.625 271.129 482.79 270.527 479.121 269.715L476.264 269.084C472.685 268.302 470.099 266.497 470.099 263.069C470.099 259.43 473.738 256.723 478.339 256.723C483.151 256.723 486.429 259.249 487.091 263.008H483.933C483.211 260.392 481.106 259.279 478.339 259.279C475.452 259.279 473.166 260.663 473.166 262.768C473.166 264.933 474.64 265.655 478.159 266.437L481.016 267.069C485.617 268.091 487.693 269.715 487.693 273.294C487.693 277.384 483.993 280.241 478.399 280.241ZM491.914 279.91V257.054H499.704C506.531 257.054 511.042 261.054 511.042 268.482C511.042 275.91 506.531 279.91 499.704 279.91H491.914ZM494.952 277.204H499.794C504.907 277.204 507.884 274.106 507.884 268.482C507.884 262.888 504.907 259.76 499.794 259.76H494.952V277.204ZM529.845 279.91L518.477 268.211V279.91H515.44V257.054H518.477V267.61L528.793 257.054H532.733L522.146 267.881L533.875 279.91H529.845ZM541.257 280.241C537.678 280.241 534.882 278.497 534.43 275.189H537.438C537.889 277.474 539.633 278.076 541.257 278.076C543.784 278.076 545.077 277.113 545.077 275.64C545.077 274.196 544.235 273.505 541.829 272.993L539.573 272.512C536.776 271.911 534.851 270.647 534.851 268.181C534.851 265.324 537.678 263.46 541.197 263.46C544.325 263.46 547.002 264.903 547.723 267.82H544.716C544.265 266.407 542.761 265.625 541.197 265.625C539.453 265.625 537.769 266.437 537.769 267.881C537.769 269.174 538.821 269.625 540.987 270.076L543.242 270.557C546.611 271.279 547.994 272.783 547.994 275.279C547.994 278.377 545.227 280.241 541.257 280.241ZM550.92 283.91L552.694 279.91H551.551V276.301H555.1V280.271L552.965 283.91H550.92ZM571.19 279.91V259.76H563.581V257.054H581.836V259.76H574.228V279.91H571.19ZM587.716 280.241C582.844 280.241 580.047 276.692 580.047 271.85C580.047 266.948 582.904 263.46 587.686 263.46C592.197 263.46 595.265 266.647 595.265 271.61C595.265 271.911 595.235 272.332 595.205 272.723H583.025C583.265 276.211 585.04 278.076 587.716 278.076C590.062 278.076 591.295 276.993 591.897 275.189H594.904C593.972 278.617 591.355 280.241 587.716 280.241ZM583.055 270.497H592.258C592.077 267.61 590.333 265.625 587.686 265.625C585.13 265.625 583.416 267.279 583.055 270.497ZM604.52 280.241C600.941 280.241 598.144 278.497 597.693 275.189H600.7C601.151 277.474 602.896 278.076 604.52 278.076C607.046 278.076 608.339 277.113 608.339 275.64C608.339 274.196 607.497 273.505 605.091 272.993L602.836 272.512C600.039 271.911 598.114 270.647 598.114 268.181C598.114 265.324 600.941 263.46 604.46 263.46C607.587 263.46 610.264 264.903 610.986 267.82H607.978C607.527 266.407 606.024 265.625 604.46 265.625C602.715 265.625 601.031 266.437 601.031 267.881C601.031 269.174 602.084 269.625 604.249 270.076L606.505 270.557C609.873 271.279 611.256 272.783 611.256 275.279C611.256 278.377 608.49 280.241 604.52 280.241ZM621.016 279.91C618.219 279.91 616.024 278.557 616.024 275.489V275.429V266.016H612.625V263.79H616.024V259.971H618.971V263.79H623.061V266.016H618.971V275.429V275.489C618.971 277.204 619.843 277.685 621.317 277.685H623.121V279.91H621.016ZM631.834 280.241C628.255 280.241 625.458 278.497 625.007 275.189H628.014C628.465 277.474 630.21 278.076 631.834 278.076C634.36 278.076 635.653 277.113 635.653 275.64C635.653 274.196 634.811 273.505 632.405 272.993L630.149 272.512C627.353 271.911 625.428 270.647 625.428 268.181C625.428 265.324 628.255 263.46 631.773 263.46C634.901 263.46 637.578 264.903 638.3 267.82H635.292C634.841 266.407 633.337 265.625 631.773 265.625C630.029 265.625 628.345 266.437 628.345 267.881C628.345 269.174 629.398 269.625 631.563 270.076L633.819 270.557C637.187 271.279 638.57 272.783 638.57 275.279C638.57 278.377 635.803 280.241 631.834 280.241ZM641.496 283.91L643.27 279.91H642.127V276.301H645.676V280.271L643.541 283.91H641.496ZM662.886 279.91V272.933H655.999V270.647H662.886V263.79H665.232V270.647H672.119V272.933H665.232V279.91H662.886ZM683.393 279.91V263.79H686.341V267.069C687.062 265.144 688.506 263.46 691.153 263.46C693.919 263.46 695.634 265.414 696.205 267.49C696.867 265.535 698.431 263.46 701.318 263.46C704.837 263.46 706.671 266.136 706.671 269.865V269.926V279.91H703.724V270.377V270.317C703.724 267.069 702.461 265.625 700.115 265.625C697.769 265.625 696.506 267.069 696.506 270.377V279.91H693.559V270.377V270.317C693.559 267.069 692.295 265.625 689.95 265.625C687.604 265.625 686.341 267.069 686.341 270.377V279.91H683.393ZM718.004 280.241C713.222 280.241 710.155 276.843 710.155 271.85C710.155 266.858 713.222 263.46 718.004 263.46C722.786 263.46 725.823 266.858 725.823 271.85C725.823 276.843 722.786 280.241 718.004 280.241ZM713.162 271.85C713.162 275.64 714.936 278.076 718.004 278.076C721.072 278.076 722.816 275.64 722.816 271.85C722.816 268.061 721.072 265.625 718.004 265.625C714.936 265.625 713.162 268.061 713.162 271.85ZM729.504 279.91V263.79H732.451V267.249C733.173 264.993 734.767 263.46 737.744 263.46V266.377H736.842C733.895 266.377 732.451 267.309 732.451 270.196V279.91H729.504ZM747.047 280.241C742.175 280.241 739.378 276.692 739.378 271.85C739.378 266.948 742.235 263.46 747.017 263.46C751.528 263.46 754.596 266.647 754.596 271.61C754.596 271.911 754.566 272.332 754.536 272.723H742.356C742.596 276.211 744.371 278.076 747.047 278.076C749.393 278.076 750.626 276.993 751.228 275.189H754.235C753.303 278.617 750.686 280.241 747.047 280.241ZM742.386 270.497H751.588C751.408 267.61 749.664 265.625 747.017 265.625C744.461 265.625 742.746 267.279 742.386 270.497Z"
              fill="black" />
        <g clip-path="url(#clip1_2013_736)">
            <path d="M607.123 68.9368H599.201L577.856 127.41L577.839 135.509H585.761L607.123 76.9876V68.9368Z"
                  fill="black" />
            <path d="M626.284 114.744L623.226 106.366H612.366H607.405V106.367L604.323 114.744H615.423L623.004 135.509H630.925L630.908 127.41L626.284 114.744Z"
                  fill="black" />
            <path d="M227.436 99.0406L217.622 95.4654C214.959 94.4745 212.978 93.2395 211.673 91.7529C210.372 90.2741 209.72 88.2845 209.72 85.7765C209.72 82.9865 210.691 80.692 212.629 78.8852C214.568 77.0862 217.072 76.1791 220.141 76.1791C223.498 76.1791 226.176 77.1853 228.172 79.1902C230.171 81.2027 231.169 83.7717 231.169 86.9124V87.9567H240.285V86.9124C240.285 83.1923 239.446 79.8916 237.769 77.01C236.089 74.1285 233.729 71.8949 230.691 70.2941C227.652 68.6932 224.135 67.8928 220.141 67.8928C216.321 67.8928 212.918 68.678 209.936 70.2484C206.954 71.8187 204.625 73.9989 202.948 76.7966C201.268 79.5866 200.429 82.7578 200.429 86.3025C200.429 90.2588 201.499 93.7808 203.642 96.8605C205.782 99.9401 209.344 102.387 214.321 104.186L223.092 107.243C225.93 108.348 228.028 109.713 229.389 111.344C230.748 112.968 231.43 115.125 231.43 117.801C231.43 119.714 230.964 121.46 230.038 123.03C229.112 124.601 227.826 125.843 226.176 126.743C224.526 127.642 222.686 128.092 220.66 128.092C217.364 128.092 214.67 127.093 212.588 125.081C210.501 123.076 209.462 120.446 209.462 117.191V116.139H200.429V117.016C200.429 120.797 201.268 124.151 202.948 127.093C204.625 130.028 207.015 132.308 210.11 133.939C213.206 135.57 216.723 136.378 220.66 136.378C224.598 136.378 228.084 135.578 231.127 133.985C234.166 132.384 236.521 130.127 238.202 127.223C239.883 124.311 240.721 120.972 240.721 117.191C240.721 113.06 239.693 109.438 237.637 106.328C235.584 103.218 232.182 100.786 227.436 99.0406Z"
                  fill="black" />
            <path d="M293.213 71.5134C290.118 69.7982 286.54 68.9368 282.489 68.9368H262.952V135.509H272.068V109.682H282.231C286.339 109.682 289.97 108.843 293.126 107.151C296.282 105.466 298.729 103.08 300.463 100.001C302.2 96.921 303.069 93.3686 303.069 89.3589C303.069 85.4026 302.2 81.8655 300.463 78.7553C298.729 75.6451 296.308 73.2286 293.213 71.5134ZM290.303 98.1712C288.103 100.321 285.121 101.396 281.362 101.396H272.068V77.2307H281.362C285.121 77.2307 288.103 78.3208 290.303 80.5009C292.504 82.6811 293.604 85.6313 293.604 89.3589C293.604 93.0791 292.504 96.0139 290.303 98.1712Z"
                  fill="black" />
            <path d="M325.558 68.9368V135.509H334.673H365.413V127.223H334.673V106.282H359.336V97.9044H334.673V77.2307H365.413V68.9368H334.673H325.558Z"
                  fill="black" />
            <path d="M474.296 97.9044V97.9959H464.483V68.9368H455.367V135.509H464.483V106.366H474.571L490.013 135.509H498.09V131.232L481.937 101.922L498.09 73.2133V68.9368H490.013L474.296 97.9044Z"
                  fill="black" />
            <path d="M519.277 68.9368V135.509H528.392H559.132V127.223H528.392V106.282H553.055V97.9044H528.392V77.2307H559.132V68.9368H528.392H519.277Z"
                  fill="black" />
            <path d="M673.718 99.0406L663.904 95.4654C661.241 94.4745 659.261 93.2395 657.955 91.7529C656.654 90.2741 656.002 88.2845 656.002 85.7765C656.002 82.9865 656.973 80.692 658.911 78.8852C660.85 77.0862 663.353 76.1791 666.423 76.1791C669.78 76.1791 672.459 77.1853 674.454 79.1902C676.453 81.2027 677.451 83.7717 677.451 86.9124V87.9567H686.567V86.9124C686.567 83.1923 685.728 79.8916 684.052 77.01C682.371 74.1285 680.011 71.8949 676.972 70.2941C673.934 68.6932 670.417 67.8928 666.423 67.8928C662.603 67.8928 659.2 68.678 656.218 70.2484C653.236 71.8187 650.907 73.9989 649.231 76.7966C647.55 79.5866 646.711 82.7578 646.711 86.3025C646.711 90.2588 647.781 93.7808 649.924 96.8605C652.064 99.9401 655.626 102.387 660.604 104.186L669.374 107.243C672.211 108.348 674.309 109.713 675.671 111.344C677.03 112.968 677.712 115.125 677.712 117.801C677.712 119.714 677.246 121.46 676.321 123.03C675.395 124.601 674.108 125.843 672.459 126.743C670.808 127.642 668.968 128.092 666.942 128.092C663.646 128.092 660.952 127.093 658.87 125.081C656.783 123.076 655.744 120.446 655.744 117.191V116.139H646.711V117.016C646.711 120.797 647.55 124.151 649.231 127.093C650.907 130.028 653.297 132.308 656.392 133.939C659.488 135.57 663.005 136.378 666.942 136.378C670.88 136.378 674.367 135.578 677.409 133.985C680.448 132.384 682.803 130.127 684.484 127.223C686.164 124.311 687.003 120.972 687.003 117.191C687.003 113.06 685.974 109.438 683.919 106.328C681.866 103.218 678.464 100.786 673.718 99.0406Z"
                  fill="black" />
            <path d="M742.755 68.9368L729.989 96.6008H728.477L715.748 68.9368H707.584V73.038L724.689 108.638V135.509H733.897V108.378L750.914 73.1295V68.9368H742.755Z"
                  fill="black" />
            <path d="M413.078 68.9368H405.156L383.811 127.41L383.794 135.509H391.716L413.078 76.9876V68.9368Z"
                  fill="black" />
            <path d="M432.239 114.744L429.18 106.366H418.319H413.358V106.367L410.276 114.744H421.378L428.957 135.509H436.88L436.862 127.41L432.239 114.744Z"
                  fill="black" />
        </g>
        <rect x="59.2657" y="49.5938" width="105.783" height="105.783" rx="52.8915" fill="black" />
        <rect x="59.2657" y="49.5938" width="105.783" height="105.783" rx="52.8915" stroke="black"
              stroke-width="0.812431" />
        <path d="M98.542 112.596V107.059L109.094 78.9106H114.846V84.6331L104.326 112.596H98.542Z" fill="#FBE331" />
        <path d="M109.984 125.866V120.329L120.536 92.1806H126.288V97.9031L115.768 125.866H109.984Z" fill="#FBE331" />
    </g>
    <defs>
        <clipPath id="clip0_2013_736">
            <rect width="811.2" height="338" fill="white" />
        </clipPath>
        <clipPath id="clip1_2013_736">
            <rect width="550.486" height="68.4856" fill="white" transform="translate(200.429 67.8928)" />
        </clipPath>
    </defs>
</svg>