<svg height="96" viewBox="0 0 494 96" xmlns="http://www.w3.org/2000/svg" xmlns:xlink="http://www.w3.org/1999/xlink"><linearGradient id="supabase-a" gradientUnits="userSpaceOnUse" x1="45.8538" x2="79.9973" y1="46.7036" y2="61.0233"><stop offset="0" stop-color="#249361"/><stop offset="1" stop-color="#3ecf8e"/></linearGradient><linearGradient id="supabase-b" gradientUnits="userSpaceOnUse" x1="30.7164" x2="46.2876" y1="25.9778" y2="55.2897"><stop offset="0"/><stop offset="1" stop-opacity="0"/></linearGradient><clipPath id="supabase-c"><path d="m0 0h493.593v96h-493.593z"/></clipPath><g clip-path="url(#supabase-c)"><path d="m128.62 56.7172c.509 4.7586 4.838 12.9161 17.399 12.9161 10.949 0 16.212-6.9679 16.212-13.7658 0-6.1183-4.16-11.1317-12.392-12.8314l-5.942-1.2745c-2.291-.4248-3.819-1.6994-3.819-3.7389 0-2.3793 2.377-4.1637 5.348-4.1637 4.752 0 6.534 3.144 6.874 5.6084l9.421-2.1244c-.509-4.5037-4.498-12.0664-16.38-12.0664-8.997 0-15.617 6.2032-15.617 13.6808 0 5.8632 3.649 10.707 11.712 12.4913l5.517 1.2747c3.225.6797 4.498 2.2094 4.498 4.0788 0 2.2094-1.782 4.1638-5.517 4.1638-4.922 0-7.384-3.0592-7.638-6.3733z"/><path d="m198.305 68.3587h10.779c-.17-1.4446-.425-4.3337-.425-7.5628v-34.2448h-11.289v24.3027c0 4.8437-2.885 8.2426-7.892 8.2426-5.263 0-7.64-3.7389-7.64-8.4125v-24.1328h-11.288v26.4272c0 9.0923 5.771 16.4851 15.872 16.4851 4.412 0 9.252-1.6995 11.544-5.6084 0 1.6995.169 3.6539.339 4.5037z"/><path d="m231.994 84.504v-20.2239c2.036 2.804 6.281 5.0985 12.052 5.0985 11.797 0 19.69-9.3474 19.69-22.0086 0-12.4062-7.044-21.7535-19.266-21.7535-6.28 0-10.948 2.8041-12.815 6.0333v-5.0986h-10.948v57.9528zm20.624-37.049c0 7.4779-4.583 11.8115-10.355 11.8115-5.77 0-10.438-4.4186-10.438-11.8115 0-7.3927 4.668-11.7265 10.438-11.7265 5.772 0 10.355 4.3338 10.355 11.7265z"/><path d="m270.129 56.9721c0 6.5431 5.431 12.5763 14.344 12.5763 6.194 0 10.183-2.8892 12.305-6.2033 0 1.6146.17 3.9089.424 5.0136h10.355c-.255-1.4446-.508-4.4187-.508-6.628v-20.5639c0-8.4125-4.923-15.8902-18.163-15.8902-11.204 0-17.231 7.2227-17.909 13.7658l10.015 2.1244c.34-3.6539 3.056-6.7979 7.977-6.7979 4.754 0 7.046 2.4642 7.046 5.4383 0 1.4446-.763 2.6343-3.14 2.9741l-10.27 1.5296c-6.959 1.0197-12.476 5.1834-12.476 12.6612zm16.719 4.1638c-3.649 0-5.432-2.3793-5.432-4.8435 0-3.2291 2.291-4.8437 5.178-5.2685l9.421-1.4446v1.8694c0 7.3929-4.414 9.6872-9.167 9.6872z"/><path d="m329.376 68.3589v-5.0986c2.205 3.569 6.619 6.1183 12.391 6.1183 11.883 0 19.692-9.4323 19.692-22.0935 0-12.4064-7.046-21.8385-19.267-21.8385-6.197 0-10.78 2.7192-12.647 5.6932v-24.3027h-11.118v61.5218zm20.793-20.9889c0 7.6478-4.583 11.8965-10.355 11.8965-5.686 0-10.438-4.3336-10.438-11.8965 0-7.6478 4.752-11.8114 10.438-11.8114 5.772 0 10.355 4.1636 10.355 11.8114z"/><path d="m367.85 56.9721c0 6.5431 5.431 12.5763 14.343 12.5763 6.195 0 10.185-2.8892 12.306-6.2033 0 1.6146.171 3.9089.425 5.0136h10.354c-.253-1.4446-.508-4.4187-.508-6.628v-20.5639c0-8.4125-4.923-15.8902-18.164-15.8902-11.203 0-17.229 7.2227-17.907 13.7658l10.013 2.1244c.341-3.6539 3.057-6.7979 7.979-6.7979 4.754 0 7.045 2.4642 7.045 5.4383 0 1.4446-.764 2.6343-3.141 2.9741l-10.268 1.5296c-6.96 1.0197-12.477 5.1834-12.477 12.6612zm16.72 4.1638c-3.65 0-5.433-2.3793-5.433-4.8435 0-3.2291 2.291-4.8437 5.178-5.2685l9.421-1.4446v1.8694c0 7.3929-4.414 9.6872-9.166 9.6872z"/><path d="m412.583 56.7172c.508 4.7586 4.838 12.9161 17.398 12.9161 10.95 0 16.211-6.9679 16.211-13.7658 0-6.1183-4.158-11.1317-12.391-12.8314l-5.942-1.2745c-2.291-.4248-3.818-1.6994-3.818-3.7389 0-2.3793 2.376-4.1637 5.347-4.1637 4.754 0 6.535 3.144 6.876 5.6084l9.42-2.1244c-.51-4.5037-4.499-12.0664-16.38-12.0664-8.998 0-15.617 6.2032-15.617 13.6808 0 5.8632 3.648 10.707 11.712 12.4913l5.517 1.2747c3.226.6797 4.498 2.2094 4.498 4.0788 0 2.2094-1.782 4.1638-5.517 4.1638-4.923 0-7.383-3.0592-7.638-6.3733z"/><path d="m463.336 42.6963c.255-3.8238 3.481-8.2426 9.337-8.2426 6.449 0 9.166 4.0789 9.336 8.2426zm19.777 10.8769c-1.359 3.7387-4.245 6.373-9.507 6.373-5.602 0-10.27-3.9938-10.523-9.5171h29.874c0-.1701.17-1.8695.17-3.4841 0-13.426-7.723-21.6684-20.624-21.6684-10.694 0-20.54 8.6673-20.54 22.0084 0 14.1057 10.099 22.3483 21.558 22.3483 10.27 0 16.89-6.0332 19.013-13.2561z" fill="#1f1f1f"/><path d="m54.1232 93.6926c-2.4293 3.0593-7.3549 1.3831-7.4135-2.5232l-.8559-57.1338h38.4168c6.9583 0 10.839 8.0369 6.5122 13.4865z" fill="url(#supabase-a)"/><path d="m54.1232 93.6926c-2.4293 3.0593-7.3549 1.3831-7.4135-2.5232l-.8559-57.1338h38.4168c6.9583 0 10.839 8.0369 6.5122 13.4865z" fill="url(#supabase-b)" fill-opacity=".2"/><path d="m38.4994 1.75946c2.4293-3.05959 7.355-1.383157 7.4136 2.52316l.375 57.13378h-37.9359c-6.95852 0-10.83941-8.0369-6.5124-13.4865z" fill="#3ecf8e"/></g></svg>
