<svg width="288" height="120" viewBox="0 0 288 120" fill="none" xmlns="http://www.w3.org/2000/svg">
<g clip-path="url(#clip0_85_2)">
<rect width="288" height="120" fill="#111111" style="fill:#111111;fill:color(display-p3 0.0667 0.0667 0.0667);fill-opacity:1;"/>
<path d="M58.0535 36.7257H48.1895L58.6993 26.1976C58.7735 26.1233 58.8302 26.0335 58.8655 25.9347C58.9008 25.8359 58.9138 25.7305 58.9035 25.626C58.8932 25.5216 58.86 25.4207 58.8061 25.3307C58.7522 25.2406 58.679 25.1637 58.5919 25.1052C58.4754 25.0273 58.3384 24.9856 58.1982 24.9855H41.5066V18.0005H59.815C61.1592 17.9842 62.4805 18.35 63.625 19.0553C64.7704 19.7612 65.6921 20.7773 66.2834 21.9858C66.8944 23.2792 67.0906 24.7298 66.8454 26.139C66.6005 27.5478 65.9258 28.8464 64.9139 29.8567L58.0535 36.7257Z" fill="#FF00BD" style="fill:#FF00BD;fill:color(display-p3 1.0000 0.0000 0.7412);fill-opacity:1;"/>
<path d="M41.5066 28.3499H51.3711L40.8823 38.8567C40.807 38.9323 40.7493 39.0237 40.7134 39.1242C40.6775 39.2247 40.6643 39.3319 40.6748 39.4382C40.6852 39.5444 40.7191 39.647 40.7739 39.7386C40.8286 39.8302 40.903 39.9085 40.9917 39.968C41.1102 40.0474 41.2495 40.0898 41.3921 40.09H58.0367V47.075H39.746C38.4018 47.0912 37.0806 46.7254 35.9362 46.0201C34.7908 45.3142 33.869 44.2982 33.2776 43.0897C32.6667 41.7963 32.4705 40.3457 32.7159 38.9365C32.9609 37.5276 33.6357 36.2291 34.6477 35.2188L41.5066 28.3499ZM110.208 33.7182C110.208 36.2088 109.239 37.7331 106.965 37.696C104.878 37.6589 103.797 36.1345 103.797 33.6816V24.2763H98.653V34.0525C98.653 38.7741 101.598 42.1199 106.965 42.157C111.886 42.1941 115.352 38.5884 115.352 34.0901V24.2763H110.208V33.7182ZM160.171 23.8657C154.618 23.8657 150.706 27.8063 150.706 33.0106C150.706 38.215 154.62 42.1555 160.171 42.1555C165.724 42.1555 169.637 38.215 169.637 33.0106C169.637 27.8063 165.725 23.8657 160.171 23.8657ZM160.171 37.7316C157.6 37.7316 155.775 35.7988 155.775 33.0106C155.775 30.2225 157.602 28.289 160.171 28.289C162.742 28.289 164.568 30.2225 164.568 33.0106C164.568 35.7988 162.743 37.7316 160.171 37.7316ZM128.185 23.8656C122.631 23.8656 118.72 27.8063 118.72 33.0106C118.72 33.0797 118.728 33.1462 118.729 33.2168H118.72V48H123.789V41.1981C125.165 41.8393 126.667 42.166 128.185 42.1544C133.74 42.1544 137.651 38.2139 137.651 33.0095C137.651 27.8051 133.74 23.8656 128.185 23.8656ZM128.185 37.7316C125.613 37.7316 123.789 35.7988 123.789 33.0106C123.789 30.2225 125.615 28.289 128.185 28.289C130.756 28.289 132.582 30.2225 132.582 33.0106C132.582 35.7988 130.758 37.7316 128.185 37.7316ZM79.3542 28.6949H89.4901L79.3542 36.6164V41.7465H95.77V37.3262H85.6097L95.77 29.3847V24.2747H79.3542V28.6949ZM149.184 41.7464H147.467C145.618 41.7447 143.845 41.011 142.535 39.7058C141.888 39.0605 141.374 38.294 141.023 37.4501C140.672 36.6061 140.49 35.7012 140.489 34.7871V18.005H145.661V34.7871C145.662 35.2647 145.853 35.7222 146.192 36.0591C146.53 36.3969 146.989 36.587 147.467 36.588H149.184V41.7464Z" fill="#FF00BD" style="fill:#FF00BD;fill:color(display-p3 1.0000 0.0000 0.7412);fill-opacity:1;"/>
<path d="M37.199 82H34.092V72.601H37.147C39.955 72.601 41.853 74.499 41.853 77.307C41.853 80.102 39.981 82 37.199 82ZM37.056 73.771H35.366V80.817H37.108C39.201 80.817 40.527 79.465 40.527 77.307C40.527 75.123 39.201 73.771 37.056 73.771ZM46.0088 82.156C44.1368 82.156 42.8498 80.804 42.8498 78.828C42.8498 76.839 44.1108 75.461 45.9568 75.461C47.7638 75.461 48.9468 76.709 48.9468 78.594V79.049L44.0328 79.062C44.1238 80.401 44.8258 81.142 46.0348 81.142C46.9838 81.142 47.6078 80.752 47.8158 80.024H48.9598C48.6478 81.389 47.5818 82.156 46.0088 82.156ZM45.9568 76.488C44.8908 76.488 44.2148 77.125 44.0588 78.243H47.7248C47.7248 77.19 47.0358 76.488 45.9568 76.488ZM50.3117 84.847V75.643H51.4167L51.5077 76.787C51.9367 75.916 52.7947 75.461 53.8087 75.461C55.6287 75.461 56.7597 76.826 56.7597 78.776C56.7597 80.713 55.6937 82.169 53.8087 82.169C52.7947 82.169 51.9497 81.74 51.5337 80.96V84.847H50.3117ZM51.5467 78.828C51.5467 80.128 52.3007 81.064 53.5487 81.064C54.7967 81.064 55.5377 80.128 55.5377 78.828C55.5377 77.515 54.7967 76.579 53.5487 76.579C52.3007 76.579 51.5467 77.502 51.5467 78.828ZM59.3547 82H58.1327V72.432H59.3547V82ZM60.7375 78.815C60.7375 76.852 62.1415 75.474 64.0525 75.474C65.9505 75.474 67.3545 76.852 67.3545 78.815C67.3545 80.778 65.9505 82.156 64.0525 82.156C62.1415 82.156 60.7375 80.778 60.7375 78.815ZM61.9725 78.815C61.9725 80.141 62.8175 81.064 64.0525 81.064C65.2745 81.064 66.1325 80.141 66.1325 78.815C66.1325 77.489 65.2745 76.566 64.0525 76.566C62.8175 76.566 61.9725 77.489 61.9725 78.815ZM67.8804 84.847V83.846H68.6994C69.2844 83.846 69.7524 83.755 70.0514 82.949L70.2724 82.338L67.7114 75.643H68.9984L70.8444 80.765L72.7294 75.643H73.9904L70.9874 83.43C70.5584 84.522 69.9214 84.977 68.9464 84.977C68.5434 84.977 68.2054 84.925 67.8804 84.847ZM75.7199 81.493C75.7199 82.429 75.0179 83.209 74.0949 83.326V82.78C74.6279 82.689 75.0049 82.338 75.0049 81.935C74.9139 81.987 74.8099 82.013 74.6539 82.013C74.2249 82.013 73.8609 81.701 73.8609 81.22C73.8609 80.7 74.2119 80.323 74.7319 80.323C75.2779 80.323 75.7199 80.778 75.7199 81.493ZM80.6964 75.136C80.6964 73.524 81.9964 72.432 83.9334 72.432C85.7274 72.432 86.8844 73.433 86.9884 75.058H85.7014C85.6364 74.122 84.9734 73.576 83.9204 73.576C82.7374 73.576 81.9704 74.174 81.9704 75.097C81.9704 75.851 82.3994 76.306 83.2834 76.514L84.8304 76.878C86.3644 77.229 87.1444 78.061 87.1444 79.387C87.1444 81.077 85.8314 82.156 83.8294 82.156C81.9184 82.156 80.6444 81.155 80.5664 79.543H81.8664C81.8924 80.44 82.6464 81.012 83.8294 81.012C85.0774 81.012 85.8704 80.427 85.8704 79.491C85.8704 78.75 85.4674 78.282 84.5704 78.074L83.0234 77.723C81.4894 77.372 80.6964 76.488 80.6964 75.136ZM91.2803 82.156C89.4083 82.156 88.1213 80.804 88.1213 78.828C88.1213 76.839 89.3823 75.461 91.2283 75.461C93.0353 75.461 94.2183 76.709 94.2183 78.594V79.049L89.3043 79.062C89.3953 80.401 90.0973 81.142 91.3063 81.142C92.2553 81.142 92.8793 80.752 93.0873 80.024H94.2313C93.9193 81.389 92.8533 82.156 91.2803 82.156ZM91.2283 76.488C90.1623 76.488 89.4863 77.125 89.3303 78.243H92.9963C92.9963 77.19 92.3073 76.488 91.2283 76.488ZM95.1672 78.828C95.1672 76.839 96.4282 75.461 98.2872 75.461C99.8862 75.461 101.004 76.371 101.225 77.788H100.003C99.7952 76.982 99.1452 76.553 98.3262 76.553C97.1692 76.553 96.3762 77.437 96.3762 78.815C96.3762 80.18 97.1172 81.064 98.2742 81.064C99.1452 81.064 99.7952 80.609 100.016 79.855H101.238C100.991 81.233 99.8082 82.156 98.2742 82.156C96.4022 82.156 95.1672 80.83 95.1672 78.828ZM106.922 75.643H108.131V82H107.039L106.909 81.038C106.545 81.701 105.7 82.156 104.764 82.156C103.282 82.156 102.45 81.155 102.45 79.595V75.643H103.672V79.192C103.672 80.557 104.257 81.077 105.193 81.077C106.311 81.077 106.922 80.362 106.922 78.997V75.643ZM113.544 75.591V76.709H112.998C111.841 76.709 111.126 77.411 111.126 78.633V82H109.904V75.656H111.048L111.126 76.618C111.386 75.955 112.023 75.513 112.894 75.513C113.115 75.513 113.297 75.539 113.544 75.591ZM117.204 82.156C115.332 82.156 114.045 80.804 114.045 78.828C114.045 76.839 115.306 75.461 117.152 75.461C118.959 75.461 120.142 76.709 120.142 78.594V79.049L115.228 79.062C115.319 80.401 116.021 81.142 117.23 81.142C118.179 81.142 118.803 80.752 119.011 80.024H120.155C119.843 81.389 118.777 82.156 117.204 82.156ZM117.152 76.488C116.086 76.488 115.41 77.125 115.254 78.243H118.92C118.92 77.19 118.231 76.488 117.152 76.488ZM122.946 81.493C122.946 82.429 122.244 83.209 121.321 83.326V82.78C121.854 82.689 122.231 82.338 122.231 81.935C122.14 81.987 122.036 82.013 121.88 82.013C121.451 82.013 121.087 81.701 121.087 81.22C121.087 80.7 121.438 80.323 121.958 80.323C122.504 80.323 122.946 80.778 122.946 81.493ZM131.576 82H128.469V72.601H131.524C134.332 72.601 136.23 74.499 136.23 77.307C136.23 80.102 134.358 82 131.576 82ZM131.433 73.771H129.743V80.817H131.485C133.578 80.817 134.904 79.465 134.904 77.307C134.904 75.123 133.578 73.771 131.433 73.771ZM137.227 78.815C137.227 76.852 138.631 75.474 140.542 75.474C142.44 75.474 143.844 76.852 143.844 78.815C143.844 80.778 142.44 82.156 140.542 82.156C138.631 82.156 137.227 80.778 137.227 78.815ZM138.462 78.815C138.462 80.141 139.307 81.064 140.542 81.064C141.764 81.064 142.622 80.141 142.622 78.815C142.622 77.489 141.764 76.566 140.542 76.566C139.307 76.566 138.462 77.489 138.462 78.815ZM144.781 78.828C144.781 76.839 146.042 75.461 147.901 75.461C149.5 75.461 150.618 76.371 150.839 77.788H149.617C149.409 76.982 148.759 76.553 147.94 76.553C146.783 76.553 145.99 77.437 145.99 78.815C145.99 80.18 146.731 81.064 147.888 81.064C148.759 81.064 149.409 80.609 149.63 79.855H150.852C150.605 81.233 149.422 82.156 147.888 82.156C146.016 82.156 144.781 80.83 144.781 78.828ZM156.535 75.643H157.744V82H156.652L156.522 81.038C156.158 81.701 155.313 82.156 154.377 82.156C152.895 82.156 152.063 81.155 152.063 79.595V75.643H153.285V79.192C153.285 80.557 153.87 81.077 154.806 81.077C155.924 81.077 156.535 80.362 156.535 78.997V75.643ZM160.739 82H159.517V75.643H160.609L160.726 76.475C161.051 75.877 161.727 75.461 162.624 75.461C163.612 75.461 164.314 75.955 164.639 76.748C164.938 75.955 165.705 75.461 166.693 75.461C168.149 75.461 169.033 76.371 169.033 77.84V82H167.837V78.139C167.837 77.138 167.278 76.566 166.42 76.566C165.497 76.566 164.886 77.216 164.886 78.23V82H163.677V78.126C163.677 77.125 163.131 76.579 162.273 76.579C161.35 76.579 160.739 77.216 160.739 78.23V82ZM173.47 82.156C171.598 82.156 170.311 80.804 170.311 78.828C170.311 76.839 171.572 75.461 173.418 75.461C175.225 75.461 176.408 76.709 176.408 78.594V79.049L171.494 79.062C171.585 80.401 172.287 81.142 173.496 81.142C174.445 81.142 175.069 80.752 175.277 80.024H176.421C176.109 81.389 175.043 82.156 173.47 82.156ZM173.418 76.488C172.352 76.488 171.676 77.125 171.52 78.243H175.186C175.186 77.19 174.497 76.488 173.418 76.488ZM178.995 82H177.773V75.643H178.878L179.008 76.618C179.411 75.89 180.217 75.461 181.114 75.461C182.791 75.461 183.558 76.488 183.558 78.113V82H182.336V78.386C182.336 77.099 181.738 76.579 180.802 76.579C179.658 76.579 178.995 77.398 178.995 78.633V82ZM187.044 82H185.822V76.67H184.574V75.643H185.822V73.654H187.044V75.643H188.292V76.67H187.044V82ZM190.828 81.493C190.828 82.429 190.126 83.209 189.203 83.326V82.78C189.736 82.689 190.113 82.338 190.113 81.935C190.022 81.987 189.918 82.013 189.762 82.013C189.333 82.013 188.969 81.701 188.969 81.22C188.969 80.7 189.32 80.323 189.84 80.323C190.386 80.323 190.828 80.778 190.828 81.493ZM198.002 82.156C196.637 82.156 195.831 81.389 195.831 80.232C195.831 79.062 196.702 78.334 198.197 78.217L200.199 78.061V77.879C200.199 76.813 199.562 76.436 198.704 76.436C197.677 76.436 197.092 76.891 197.092 77.658H196.026C196.026 76.332 197.118 75.461 198.756 75.461C200.329 75.461 201.395 76.293 201.395 78.009V82H200.355L200.225 80.973C199.9 81.701 199.029 82.156 198.002 82.156ZM198.353 81.207C199.51 81.207 200.212 80.453 200.212 79.257V78.919L198.587 79.049C197.508 79.153 197.066 79.569 197.066 80.193C197.066 80.869 197.56 81.207 198.353 81.207ZM204.309 82H203.087V75.643H204.192L204.322 76.618C204.725 75.89 205.531 75.461 206.428 75.461C208.105 75.461 208.872 76.488 208.872 78.113V82H207.65V78.386C207.65 77.099 207.052 76.579 206.116 76.579C204.972 76.579 204.309 77.398 204.309 78.633V82ZM213.113 82.156C211.267 82.156 210.149 80.778 210.149 78.841C210.149 76.891 211.28 75.461 213.165 75.461C214.14 75.461 214.959 75.89 215.388 76.67V72.432H216.597V82H215.505L215.401 80.843C214.985 81.714 214.127 82.156 213.113 82.156ZM213.36 81.051C214.608 81.051 215.375 80.128 215.375 78.802C215.375 77.502 214.608 76.566 213.36 76.566C212.112 76.566 211.384 77.502 211.384 78.802C211.384 80.115 212.112 81.051 213.36 81.051ZM35.34 99H34.092V89.601H35.34L38.577 97.505L41.814 89.601H43.088V99H41.84V95.282C41.84 93.527 41.853 92.89 41.918 92.227L39.175 99H37.979L35.249 92.253C35.314 92.708 35.34 93.67 35.34 94.983V99ZM44.6526 95.815C44.6526 93.852 46.0566 92.474 47.9676 92.474C49.8656 92.474 51.2696 93.852 51.2696 95.815C51.2696 97.778 49.8656 99.156 47.9676 99.156C46.0566 99.156 44.6526 97.778 44.6526 95.815ZM45.8876 95.815C45.8876 97.141 46.7326 98.064 47.9676 98.064C49.1896 98.064 50.0476 97.141 50.0476 95.815C50.0476 94.489 49.1896 93.566 47.9676 93.566C46.7326 93.566 45.8876 94.489 45.8876 95.815ZM53.8443 99H52.6223V92.643H53.7273L53.8573 93.618C54.2603 92.89 55.0663 92.461 55.9633 92.461C57.6403 92.461 58.4073 93.488 58.4073 95.113V99H57.1853V95.386C57.1853 94.099 56.5873 93.579 55.6513 93.579C54.5073 93.579 53.8443 94.398 53.8443 95.633V99ZM62.8428 99.156C60.9708 99.156 59.6838 97.804 59.6838 95.828C59.6838 93.839 60.9448 92.461 62.7908 92.461C64.5978 92.461 65.7808 93.709 65.7808 95.594V96.049L60.8668 96.062C60.9578 97.401 61.6598 98.142 62.8688 98.142C63.8178 98.142 64.4418 97.752 64.6498 97.024H65.7938C65.4818 98.389 64.4158 99.156 62.8428 99.156ZM62.7908 93.488C61.7248 93.488 61.0488 94.125 60.8928 95.243H64.5588C64.5588 94.19 63.8698 93.488 62.7908 93.488ZM68.8762 99H67.6542V93.67H66.4062V92.643H67.6542V90.654H68.8762V92.643H70.1242V93.67H68.8762V99ZM71.8189 91.135C71.3769 91.135 71.0129 90.771 71.0129 90.329C71.0129 89.874 71.3769 89.523 71.8189 89.523C72.2609 89.523 72.6249 89.874 72.6249 90.329C72.6249 90.771 72.2609 91.135 71.8189 91.135ZM71.2209 99V92.643H72.4429V99H71.2209ZM78.78 99H73.827V98.012L77.259 93.67H73.827V92.643H78.78V93.644L75.322 97.973H78.78V99ZM82.7618 99.156C80.8898 99.156 79.6028 97.804 79.6028 95.828C79.6028 93.839 80.8638 92.461 82.7098 92.461C84.5168 92.461 85.6998 93.709 85.6998 95.594V96.049L80.7858 96.062C80.8768 97.401 81.5788 98.142 82.7878 98.142C83.7368 98.142 84.3608 97.752 84.5688 97.024H85.7128C85.4008 98.389 84.3348 99.156 82.7618 99.156ZM82.7098 93.488C81.6438 93.488 80.9678 94.125 80.8118 95.243H84.4778C84.4778 94.19 83.7888 93.488 82.7098 93.488ZM90.0084 101.847V100.846H90.8274C91.4124 100.846 91.8804 100.755 92.1794 99.949L92.4004 99.338L89.8394 92.643H91.1264L92.9724 97.765L94.8574 92.643H96.1184L93.1154 100.43C92.6864 101.522 92.0494 101.977 91.0744 101.977C90.6714 101.977 90.3334 101.925 90.0084 101.847ZM96.4368 95.815C96.4368 93.852 97.8408 92.474 99.7518 92.474C101.65 92.474 103.054 93.852 103.054 95.815C103.054 97.778 101.65 99.156 99.7518 99.156C97.8408 99.156 96.4368 97.778 96.4368 95.815ZM97.6718 95.815C97.6718 97.141 98.5168 98.064 99.7518 98.064C100.974 98.064 101.832 97.141 101.832 95.815C101.832 94.489 100.974 93.566 99.7518 93.566C98.5168 93.566 97.6718 94.489 97.6718 95.815ZM108.648 92.643H109.857V99H108.765L108.635 98.038C108.271 98.701 107.426 99.156 106.49 99.156C105.008 99.156 104.176 98.155 104.176 96.595V92.643H105.398V96.192C105.398 97.557 105.983 98.077 106.919 98.077C108.037 98.077 108.648 97.362 108.648 95.997V92.643ZM115.27 92.591V93.709H114.724C113.567 93.709 112.852 94.411 112.852 95.633V99H111.63V92.656H112.774L112.852 93.618C113.112 92.955 113.749 92.513 114.62 92.513C114.841 92.513 115.023 92.539 115.27 92.591ZM120.569 99H119.243L122.675 89.601H124.092L127.537 99H126.198L125.353 96.66H121.401L120.569 99ZM123.221 91.629L121.791 95.555H124.976L123.533 91.629C123.468 91.447 123.403 91.226 123.377 91.083C123.351 91.213 123.286 91.434 123.221 91.629ZM132.439 95.646H130.06V99H128.786V89.601H132.439C134.285 89.601 135.468 90.81 135.468 92.617C135.468 94.372 134.272 95.646 132.439 95.646ZM132.218 90.745H130.06V94.502H132.166C133.427 94.502 134.129 93.761 134.129 92.604C134.129 91.421 133.414 90.745 132.218 90.745ZM138.185 89.601V99H136.911V89.601H138.185ZM143.048 92.643H143.984V91.629C143.984 90.069 144.842 89.432 145.999 89.432C146.233 89.432 146.506 89.445 146.753 89.484V90.537H146.207C145.414 90.537 145.206 90.94 145.206 91.629V92.643H146.714V93.67H145.206V99H143.984V93.67H143.048V92.643ZM147.243 95.815C147.243 93.852 148.647 92.474 150.558 92.474C152.456 92.474 153.86 93.852 153.86 95.815C153.86 97.778 152.456 99.156 150.558 99.156C148.647 99.156 147.243 97.778 147.243 95.815ZM148.478 95.815C148.478 97.141 149.323 98.064 150.558 98.064C151.78 98.064 152.638 97.141 152.638 95.815C152.638 94.489 151.78 93.566 150.558 93.566C149.323 93.566 148.478 94.489 148.478 95.815ZM158.853 92.591V93.709H158.307C157.15 93.709 156.435 94.411 156.435 95.633V99H155.213V92.656H156.357L156.435 93.618C156.695 92.955 157.332 92.513 158.203 92.513C158.424 92.513 158.606 92.539 158.853 92.591ZM168.728 95.009H165.036V99H163.762V89.601H169.43V90.771H165.036V93.852H168.728V95.009ZM174.011 92.591V93.709H173.465C172.308 93.709 171.593 94.411 171.593 95.633V99H170.371V92.656H171.515L171.593 93.618C171.853 92.955 172.49 92.513 173.361 92.513C173.582 92.513 173.764 92.539 174.011 92.591ZM177.672 99.156C175.8 99.156 174.513 97.804 174.513 95.828C174.513 93.839 175.774 92.461 177.62 92.461C179.427 92.461 180.61 93.709 180.61 95.594V96.049L175.696 96.062C175.787 97.401 176.489 98.142 177.698 98.142C178.647 98.142 179.271 97.752 179.479 97.024H180.623C180.311 98.389 179.245 99.156 177.672 99.156ZM177.62 93.488C176.554 93.488 175.878 94.125 175.722 95.243H179.388C179.388 94.19 178.699 93.488 177.62 93.488ZM184.718 99.156C182.846 99.156 181.559 97.804 181.559 95.828C181.559 93.839 182.82 92.461 184.666 92.461C186.473 92.461 187.656 93.709 187.656 95.594V96.049L182.742 96.062C182.833 97.401 183.535 98.142 184.744 98.142C185.693 98.142 186.317 97.752 186.525 97.024H187.669C187.357 98.389 186.291 99.156 184.718 99.156ZM184.666 93.488C183.6 93.488 182.924 94.125 182.768 95.243H186.434C186.434 94.19 185.745 93.488 184.666 93.488Z" fill="white" style="fill:white;fill-opacity:1;"/>
<g opacity="0.1">
<g opacity="0.2">
<path d="M139.114 13.1762H134.805L139.396 8.57931C139.429 8.54687 139.454 8.50767 139.469 8.46452C139.484 8.42137 139.49 8.37535 139.486 8.32975C139.481 8.28415 139.467 8.24011 139.443 8.20079C139.419 8.16147 139.387 8.12785 139.349 8.10234C139.298 8.0683 139.239 8.05011 139.177 8.05007H131.885V5.00023H139.884C140.471 4.99309 141.048 5.1528 141.548 5.46077C142.049 5.76898 142.451 6.21264 142.71 6.7403C142.976 7.30504 143.062 7.9384 142.955 8.55372C142.848 9.16885 142.553 9.73584 142.111 10.177L139.114 13.1762Z" fill="white" style="fill:white;fill-opacity:1;"/>
<path d="M131.885 9.51905H136.195L131.613 14.1066C131.58 14.1396 131.554 14.1795 131.539 14.2234C131.523 14.2673 131.517 14.3141 131.522 14.3605C131.526 14.4069 131.541 14.4517 131.565 14.4917C131.589 14.5317 131.622 14.5659 131.66 14.5918C131.712 14.6265 131.773 14.645 131.835 14.6451H139.107V17.6949H131.116C130.529 17.702 129.952 17.5423 129.452 17.2343C128.951 16.9262 128.549 16.4825 128.29 15.9549C128.023 15.3901 127.938 14.7568 128.045 14.1414C128.152 13.5263 128.447 12.9593 128.889 12.5182L131.885 9.51905Z" fill="white" style="fill:white;fill-opacity:1;"/>
</g>
<g opacity="0.4">
<path d="M159.114 13.1762H154.805L159.396 8.57931C159.429 8.54687 159.454 8.50767 159.469 8.46452C159.484 8.42137 159.49 8.37535 159.486 8.32975C159.481 8.28415 159.467 8.24011 159.443 8.20079C159.419 8.16147 159.387 8.12785 159.349 8.10234C159.298 8.0683 159.239 8.05011 159.177 8.05007H151.885V5.00023H159.884C160.471 4.99309 161.048 5.1528 161.548 5.46077C162.049 5.76898 162.451 6.21264 162.71 6.7403C162.976 7.30504 163.062 7.9384 162.955 8.55372C162.848 9.16885 162.553 9.73584 162.111 10.177L159.114 13.1762Z" fill="white" style="fill:white;fill-opacity:1;"/>
<path d="M151.885 9.51905H156.195L151.613 14.1066C151.58 14.1396 151.554 14.1795 151.539 14.2234C151.523 14.2673 151.517 14.3141 151.522 14.3605C151.526 14.4069 151.541 14.4517 151.565 14.4917C151.589 14.5317 151.622 14.5659 151.66 14.5918C151.712 14.6265 151.773 14.645 151.835 14.6451H159.107V17.6949H151.116C150.529 17.702 149.952 17.5423 149.452 17.2343C148.951 16.9262 148.549 16.4825 148.29 15.9549C148.023 15.3901 147.938 14.7568 148.045 14.1414C148.152 13.5263 148.447 12.9593 148.889 12.5182L151.885 9.51905Z" fill="white" style="fill:white;fill-opacity:1;"/>
</g>
<g opacity="0.6">
<path d="M179.114 13.1762H174.805L179.396 8.57931C179.429 8.54687 179.454 8.50767 179.469 8.46452C179.484 8.42137 179.49 8.37535 179.486 8.32975C179.481 8.28415 179.467 8.24011 179.443 8.20079C179.419 8.16147 179.387 8.12785 179.349 8.10234C179.298 8.0683 179.239 8.05011 179.177 8.05007H171.885V5.00023H179.884C180.471 4.99309 181.048 5.1528 181.548 5.46077C182.049 5.76898 182.451 6.21264 182.71 6.7403C182.976 7.30504 183.062 7.9384 182.955 8.55372C182.848 9.16885 182.553 9.73584 182.111 10.177L179.114 13.1762Z" fill="white" style="fill:white;fill-opacity:1;"/>
<path d="M171.885 9.51905H176.195L171.613 14.1066C171.58 14.1396 171.554 14.1795 171.539 14.2234C171.523 14.2673 171.517 14.3141 171.522 14.3605C171.526 14.4069 171.541 14.4517 171.565 14.4917C171.589 14.5317 171.622 14.5659 171.66 14.5918C171.712 14.6265 171.773 14.645 171.835 14.6451H179.107V17.6949H171.116C170.529 17.702 169.952 17.5423 169.452 17.2343C168.951 16.9262 168.549 16.4825 168.29 15.9549C168.023 15.3901 167.938 14.7568 168.045 14.1414C168.152 13.5263 168.447 12.9593 168.889 12.5182L171.885 9.51905Z" fill="white" style="fill:white;fill-opacity:1;"/>
</g>
<g opacity="0.8">
<path d="M199.114 13.1762H194.805L199.396 8.57931C199.429 8.54687 199.454 8.50767 199.469 8.46452C199.484 8.42137 199.49 8.37535 199.486 8.32975C199.481 8.28415 199.467 8.24011 199.443 8.20079C199.419 8.16147 199.387 8.12785 199.349 8.10234C199.298 8.0683 199.239 8.05011 199.177 8.05007H191.885V5.00023H199.884C200.471 4.99309 201.048 5.1528 201.548 5.46077C202.049 5.76898 202.451 6.21264 202.71 6.7403C202.976 7.30504 203.062 7.9384 202.955 8.55372C202.848 9.16885 202.553 9.73584 202.111 10.177L199.114 13.1762Z" fill="white" style="fill:white;fill-opacity:1;"/>
<path d="M191.885 9.51905H196.195L191.613 14.1066C191.58 14.1396 191.554 14.1795 191.539 14.2234C191.523 14.2673 191.517 14.3141 191.522 14.3605C191.526 14.4069 191.541 14.4517 191.565 14.4917C191.589 14.5317 191.622 14.5659 191.66 14.5918C191.712 14.6265 191.773 14.645 191.835 14.6451H199.107V17.6949H191.116C190.529 17.702 189.952 17.5423 189.452 17.2343C188.951 16.9262 188.549 16.4825 188.29 15.9549C188.023 15.3901 187.938 14.7568 188.045 14.1414C188.152 13.5263 188.447 12.9593 188.889 12.5182L191.885 9.51905Z" fill="white" style="fill:white;fill-opacity:1;"/>
</g>
<path d="M219.114 13.1762H214.805L219.396 8.57931C219.429 8.54687 219.454 8.50767 219.469 8.46452C219.484 8.42137 219.49 8.37535 219.486 8.32975C219.481 8.28415 219.467 8.24011 219.443 8.20079C219.419 8.16147 219.387 8.12785 219.349 8.10234C219.298 8.0683 219.239 8.05011 219.177 8.05007H211.885V5.00023H219.884C220.471 4.99309 221.048 5.1528 221.548 5.46077C222.049 5.76898 222.451 6.21264 222.71 6.7403C222.976 7.30504 223.062 7.9384 222.955 8.55372C222.848 9.16885 222.553 9.73584 222.111 10.177L219.114 13.1762Z" fill="white" style="fill:white;fill-opacity:1;"/>
<path d="M211.885 9.51905H216.195L211.613 14.1066C211.58 14.1396 211.554 14.1795 211.539 14.2234C211.523 14.2673 211.517 14.3141 211.522 14.3605C211.526 14.4069 211.541 14.4517 211.565 14.4917C211.589 14.5317 211.622 14.5659 211.66 14.5918C211.712 14.6265 211.773 14.645 211.835 14.6451H219.107V17.6949H211.116C210.529 17.702 209.952 17.5423 209.452 17.2343C208.951 16.9262 208.549 16.4825 208.29 15.9549C208.023 15.3901 207.938 14.7568 208.045 14.1414C208.152 13.5263 208.447 12.9593 208.889 12.5182L211.885 9.51905Z" fill="white" style="fill:white;fill-opacity:1;"/>
<path d="M239.114 13.1762H234.805L239.396 8.57931C239.429 8.54687 239.454 8.50767 239.469 8.46452C239.484 8.42137 239.49 8.37535 239.486 8.32975C239.481 8.28415 239.467 8.24011 239.443 8.20079C239.419 8.16147 239.387 8.12785 239.349 8.10234C239.298 8.0683 239.239 8.05011 239.177 8.05007H231.885V5.00023H239.884C240.471 4.99309 241.048 5.1528 241.548 5.46077C242.049 5.76898 242.451 6.21264 242.71 6.7403C242.976 7.30504 243.062 7.9384 242.955 8.55372C242.848 9.16885 242.553 9.73584 242.111 10.177L239.114 13.1762Z" fill="white" style="fill:white;fill-opacity:1;"/>
<path d="M231.885 9.51905H236.195L231.613 14.1066C231.58 14.1396 231.554 14.1795 231.539 14.2234C231.523 14.2673 231.517 14.3141 231.522 14.3605C231.526 14.4069 231.541 14.4517 231.565 14.4917C231.589 14.5317 231.622 14.5659 231.66 14.5918C231.712 14.6265 231.773 14.645 231.835 14.6451H239.107V17.6949H231.116C230.529 17.702 229.952 17.5423 229.452 17.2343C228.951 16.9262 228.549 16.4825 228.29 15.9549C228.023 15.3901 227.938 14.7568 228.045 14.1414C228.152 13.5263 228.447 12.9593 228.889 12.5182L231.885 9.51905Z" fill="white" style="fill:white;fill-opacity:1;"/>
<path d="M259.114 13.1762H254.805L259.396 8.57931C259.429 8.54687 259.454 8.50767 259.469 8.46452C259.484 8.42137 259.49 8.37535 259.486 8.32975C259.481 8.28415 259.467 8.24011 259.443 8.20079C259.419 8.16147 259.387 8.12785 259.349 8.10234C259.298 8.0683 259.239 8.05011 259.177 8.05007H251.885V5.00023H259.884C260.471 4.99309 261.048 5.1528 261.548 5.46077C262.049 5.76898 262.451 6.21264 262.71 6.7403C262.976 7.30504 263.062 7.9384 262.955 8.55372C262.848 9.16885 262.553 9.73584 262.111 10.177L259.114 13.1762Z" fill="white" style="fill:white;fill-opacity:1;"/>
<path d="M251.885 9.51905H256.195L251.613 14.1066C251.58 14.1396 251.554 14.1795 251.539 14.2234C251.523 14.2673 251.517 14.3141 251.522 14.3605C251.526 14.4069 251.541 14.4517 251.565 14.4917C251.589 14.5317 251.622 14.5659 251.66 14.5918C251.712 14.6265 251.773 14.645 251.835 14.6451H259.107V17.6949H251.116C250.529 17.702 249.952 17.5423 249.452 17.2343C248.951 16.9262 248.549 16.4825 248.29 15.9549C248.023 15.3901 247.938 14.7568 248.045 14.1414C248.152 13.5263 248.447 12.9593 248.889 12.5182L251.885 9.51905Z" fill="white" style="fill:white;fill-opacity:1;"/>
<path d="M279.114 13.1762H274.805L279.396 8.57931C279.429 8.54687 279.454 8.50767 279.469 8.46452C279.484 8.42137 279.49 8.37535 279.486 8.32975C279.481 8.28415 279.467 8.24011 279.443 8.20079C279.419 8.16147 279.387 8.12785 279.349 8.10234C279.298 8.0683 279.239 8.05011 279.177 8.05007H271.885V5.00023H279.884C280.471 4.99309 281.048 5.1528 281.548 5.46077C282.049 5.76898 282.451 6.21264 282.71 6.7403C282.976 7.30504 283.062 7.9384 282.955 8.55372C282.848 9.16885 282.553 9.73584 282.111 10.177L279.114 13.1762Z" fill="white" style="fill:white;fill-opacity:1;"/>
<path d="M271.885 9.51905H276.195L271.613 14.1066C271.58 14.1396 271.554 14.1795 271.539 14.2234C271.523 14.2673 271.517 14.3141 271.522 14.3605C271.526 14.4069 271.541 14.4517 271.565 14.4917C271.589 14.5317 271.622 14.5659 271.66 14.5918C271.712 14.6265 271.773 14.645 271.835 14.6451H279.107V17.6949H271.116C270.529 17.702 269.952 17.5423 269.452 17.2343C268.951 16.9262 268.549 16.4825 268.29 15.9549C268.023 15.3901 267.938 14.7568 268.045 14.1414C268.152 13.5263 268.447 12.9593 268.889 12.5182L271.885 9.51905Z" fill="white" style="fill:white;fill-opacity:1;"/>
<g opacity="0.8">
<g opacity="0.2">
<path d="M139.114 30.8712H134.805L139.396 26.2744C139.429 26.2419 139.454 26.2027 139.469 26.1596C139.484 26.1164 139.49 26.0704 139.486 26.0248C139.481 25.9792 139.467 25.9352 139.443 25.8959C139.419 25.8565 139.387 25.8229 139.349 25.7974C139.298 25.7634 139.239 25.7452 139.177 25.7451H131.885V22.6953H139.884C140.471 22.6882 141.048 22.8479 141.548 23.1558C142.049 23.464 142.451 23.9077 142.71 24.4354C142.976 25.0001 143.062 25.6335 142.955 26.2488C142.848 26.8639 142.553 27.4309 142.111 27.872L139.114 30.8712Z" fill="white" style="fill:white;fill-opacity:1;"/>
<path d="M131.885 27.2141H136.195L131.613 31.8017C131.58 31.8347 131.554 31.8746 131.539 31.9185C131.523 31.9624 131.517 32.0092 131.522 32.0556C131.526 32.102 131.541 32.1468 131.565 32.1867C131.589 32.2267 131.622 32.261 131.66 32.2869C131.712 32.3216 131.773 32.3401 131.835 32.3402H139.107V35.39H131.116C130.529 35.3971 129.952 35.2374 129.452 34.9294C128.951 34.6212 128.549 34.1776 128.29 33.6499C128.023 33.0852 127.938 32.4518 128.045 31.8365C128.152 31.2214 128.447 30.6544 128.889 30.2133L131.885 27.2141Z" fill="white" style="fill:white;fill-opacity:1;"/>
</g>
<g opacity="0.4">
<path d="M159.114 30.8712H154.805L159.396 26.2744C159.429 26.2419 159.454 26.2027 159.469 26.1596C159.484 26.1164 159.49 26.0704 159.486 26.0248C159.481 25.9792 159.467 25.9352 159.443 25.8959C159.419 25.8565 159.387 25.8229 159.349 25.7974C159.298 25.7634 159.239 25.7452 159.177 25.7451H151.885V22.6953H159.884C160.471 22.6882 161.048 22.8479 161.548 23.1558C162.049 23.464 162.451 23.9077 162.71 24.4354C162.976 25.0001 163.062 25.6335 162.955 26.2488C162.848 26.8639 162.553 27.4309 162.111 27.872L159.114 30.8712Z" fill="white" style="fill:white;fill-opacity:1;"/>
<path d="M151.885 27.2141H156.195L151.613 31.8017C151.58 31.8347 151.554 31.8746 151.539 31.9185C151.523 31.9624 151.517 32.0092 151.522 32.0556C151.526 32.102 151.541 32.1468 151.565 32.1867C151.589 32.2267 151.622 32.261 151.66 32.2869C151.712 32.3216 151.773 32.3401 151.835 32.3402H159.107V35.39H151.116C150.529 35.3971 149.952 35.2374 149.452 34.9294C148.951 34.6212 148.549 34.1776 148.29 33.6499C148.023 33.0852 147.938 32.4518 148.045 31.8365C148.152 31.2214 148.447 30.6544 148.889 30.2133L151.885 27.2141Z" fill="white" style="fill:white;fill-opacity:1;"/>
</g>
<g opacity="0.6">
<path d="M179.114 30.8712H174.805L179.396 26.2744C179.429 26.2419 179.454 26.2027 179.469 26.1596C179.484 26.1164 179.49 26.0704 179.486 26.0248C179.481 25.9792 179.467 25.9352 179.443 25.8959C179.419 25.8565 179.387 25.8229 179.349 25.7974C179.298 25.7634 179.239 25.7452 179.177 25.7451H171.885V22.6953H179.884C180.471 22.6882 181.048 22.8479 181.548 23.1558C182.049 23.464 182.451 23.9077 182.71 24.4354C182.976 25.0001 183.062 25.6335 182.955 26.2488C182.848 26.8639 182.553 27.4309 182.111 27.872L179.114 30.8712Z" fill="white" style="fill:white;fill-opacity:1;"/>
<path d="M171.885 27.2141H176.195L171.613 31.8017C171.58 31.8347 171.554 31.8746 171.539 31.9185C171.523 31.9624 171.517 32.0092 171.522 32.0556C171.526 32.102 171.541 32.1468 171.565 32.1867C171.589 32.2267 171.622 32.261 171.66 32.2869C171.712 32.3216 171.773 32.3401 171.835 32.3402H179.107V35.39H171.116C170.529 35.3971 169.952 35.2374 169.452 34.9294C168.951 34.6212 168.549 34.1776 168.29 33.6499C168.023 33.0852 167.938 32.4518 168.045 31.8365C168.152 31.2214 168.447 30.6544 168.889 30.2133L171.885 27.2141Z" fill="white" style="fill:white;fill-opacity:1;"/>
</g>
<g opacity="0.8">
<path d="M199.114 30.8712H194.805L199.396 26.2744C199.429 26.2419 199.454 26.2027 199.469 26.1596C199.484 26.1164 199.49 26.0704 199.486 26.0248C199.481 25.9792 199.467 25.9352 199.443 25.8959C199.419 25.8565 199.387 25.8229 199.349 25.7974C199.298 25.7634 199.239 25.7452 199.177 25.7451H191.885V22.6953H199.884C200.471 22.6882 201.048 22.8479 201.548 23.1558C202.049 23.464 202.451 23.9077 202.71 24.4354C202.976 25.0001 203.062 25.6335 202.955 26.2488C202.848 26.8639 202.553 27.4309 202.111 27.872L199.114 30.8712Z" fill="white" style="fill:white;fill-opacity:1;"/>
<path d="M191.885 27.2141H196.195L191.613 31.8017C191.58 31.8347 191.554 31.8746 191.539 31.9185C191.523 31.9624 191.517 32.0092 191.522 32.0556C191.526 32.102 191.541 32.1468 191.565 32.1867C191.589 32.2267 191.622 32.261 191.66 32.2869C191.712 32.3216 191.773 32.3401 191.835 32.3402H199.107V35.39H191.116C190.529 35.3971 189.952 35.2374 189.452 34.9294C188.951 34.6212 188.549 34.1776 188.29 33.6499C188.023 33.0852 187.938 32.4518 188.045 31.8365C188.152 31.2214 188.447 30.6544 188.889 30.2133L191.885 27.2141Z" fill="white" style="fill:white;fill-opacity:1;"/>
</g>
<path d="M219.114 30.8712H214.805L219.396 26.2744C219.429 26.2419 219.454 26.2027 219.469 26.1596C219.484 26.1164 219.49 26.0704 219.486 26.0248C219.481 25.9792 219.467 25.9352 219.443 25.8959C219.419 25.8565 219.387 25.8229 219.349 25.7974C219.298 25.7634 219.239 25.7452 219.177 25.7451H211.885V22.6953H219.884C220.471 22.6882 221.048 22.8479 221.548 23.1558C222.049 23.464 222.451 23.9077 222.71 24.4354C222.976 25.0001 223.062 25.6335 222.955 26.2488C222.848 26.8639 222.553 27.4309 222.111 27.872L219.114 30.8712Z" fill="white" style="fill:white;fill-opacity:1;"/>
<path d="M211.885 27.2141H216.195L211.613 31.8017C211.58 31.8347 211.554 31.8746 211.539 31.9185C211.523 31.9624 211.517 32.0092 211.522 32.0556C211.526 32.102 211.541 32.1468 211.565 32.1867C211.589 32.2267 211.622 32.261 211.66 32.2869C211.712 32.3216 211.773 32.3401 211.835 32.3402H219.107V35.39H211.116C210.529 35.3971 209.952 35.2374 209.452 34.9294C208.951 34.6212 208.549 34.1776 208.29 33.6499C208.023 33.0852 207.938 32.4518 208.045 31.8365C208.152 31.2214 208.447 30.6544 208.889 30.2133L211.885 27.2141Z" fill="white" style="fill:white;fill-opacity:1;"/>
<path d="M239.114 30.8712H234.805L239.396 26.2744C239.429 26.2419 239.454 26.2027 239.469 26.1596C239.484 26.1164 239.49 26.0704 239.486 26.0248C239.481 25.9792 239.467 25.9352 239.443 25.8959C239.419 25.8565 239.387 25.8229 239.349 25.7974C239.298 25.7634 239.239 25.7452 239.177 25.7451H231.885V22.6953H239.884C240.471 22.6882 241.048 22.8479 241.548 23.1558C242.049 23.464 242.451 23.9077 242.71 24.4354C242.976 25.0001 243.062 25.6335 242.955 26.2488C242.848 26.8639 242.553 27.4309 242.111 27.872L239.114 30.8712Z" fill="white" style="fill:white;fill-opacity:1;"/>
<path d="M231.885 27.2141H236.195L231.613 31.8017C231.58 31.8347 231.554 31.8746 231.539 31.9185C231.523 31.9624 231.517 32.0092 231.522 32.0556C231.526 32.102 231.541 32.1468 231.565 32.1867C231.589 32.2267 231.622 32.261 231.66 32.2869C231.712 32.3216 231.773 32.3401 231.835 32.3402H239.107V35.39H231.116C230.529 35.3971 229.952 35.2374 229.452 34.9294C228.951 34.6212 228.549 34.1776 228.29 33.6499C228.023 33.0852 227.938 32.4518 228.045 31.8365C228.152 31.2214 228.447 30.6544 228.889 30.2133L231.885 27.2141Z" fill="white" style="fill:white;fill-opacity:1;"/>
<path d="M259.114 30.8712H254.805L259.396 26.2744C259.429 26.2419 259.454 26.2027 259.469 26.1596C259.484 26.1164 259.49 26.0704 259.486 26.0248C259.481 25.9792 259.467 25.9352 259.443 25.8959C259.419 25.8565 259.387 25.8229 259.349 25.7974C259.298 25.7634 259.239 25.7452 259.177 25.7451H251.885V22.6953H259.884C260.471 22.6882 261.048 22.8479 261.548 23.1558C262.049 23.464 262.451 23.9077 262.71 24.4354C262.976 25.0001 263.062 25.6335 262.955 26.2488C262.848 26.8639 262.553 27.4309 262.111 27.872L259.114 30.8712Z" fill="white" style="fill:white;fill-opacity:1;"/>
<path d="M251.885 27.2141H256.195L251.613 31.8017C251.58 31.8347 251.554 31.8746 251.539 31.9185C251.523 31.9624 251.517 32.0092 251.522 32.0556C251.526 32.102 251.541 32.1468 251.565 32.1867C251.589 32.2267 251.622 32.261 251.66 32.2869C251.712 32.3216 251.773 32.3401 251.835 32.3402H259.107V35.39H251.116C250.529 35.3971 249.952 35.2374 249.452 34.9294C248.951 34.6212 248.549 34.1776 248.29 33.6499C248.023 33.0852 247.938 32.4518 248.045 31.8365C248.152 31.2214 248.447 30.6544 248.889 30.2133L251.885 27.2141Z" fill="white" style="fill:white;fill-opacity:1;"/>
<path d="M279.114 30.8712H274.805L279.396 26.2744C279.429 26.2419 279.454 26.2027 279.469 26.1596C279.484 26.1164 279.49 26.0704 279.486 26.0248C279.481 25.9792 279.467 25.9352 279.443 25.8959C279.419 25.8565 279.387 25.8229 279.349 25.7974C279.298 25.7634 279.239 25.7452 279.177 25.7451H271.885V22.6953H279.884C280.471 22.6882 281.048 22.8479 281.548 23.1558C282.049 23.464 282.451 23.9077 282.71 24.4354C282.976 25.0001 283.062 25.6335 282.955 26.2488C282.848 26.8639 282.553 27.4309 282.111 27.872L279.114 30.8712Z" fill="white" style="fill:white;fill-opacity:1;"/>
<path d="M271.885 27.2141H276.195L271.613 31.8017C271.58 31.8347 271.554 31.8746 271.539 31.9185C271.523 31.9624 271.517 32.0092 271.522 32.0556C271.526 32.102 271.541 32.1468 271.565 32.1867C271.589 32.2267 271.622 32.261 271.66 32.2869C271.712 32.3216 271.773 32.3401 271.835 32.3402H279.107V35.39H271.116C270.529 35.3971 269.952 35.2374 269.452 34.9294C268.951 34.6212 268.549 34.1776 268.29 33.6499C268.023 33.0852 267.938 32.4518 268.045 31.8365C268.152 31.2214 268.447 30.6544 268.889 30.2133L271.885 27.2141Z" fill="white" style="fill:white;fill-opacity:1;"/>
</g>
<g opacity="0.6">
<g opacity="0.2">
<path d="M139.114 48.5665H134.805L139.396 43.9697C139.429 43.9373 139.454 43.8981 139.469 43.8549C139.484 43.8118 139.49 43.7657 139.486 43.7201C139.481 43.6745 139.467 43.6305 139.443 43.5912C139.419 43.5519 139.387 43.5182 139.349 43.4927C139.298 43.4587 139.239 43.4405 139.177 43.4404H131.885V40.3906H139.884C140.471 40.3835 141.048 40.5432 141.548 40.8512C142.049 41.1594 142.451 41.603 142.71 42.1307C142.976 42.6954 143.062 43.3288 142.955 43.9441C142.848 44.5592 142.553 45.1262 142.111 45.5673L139.114 48.5665Z" fill="white" style="fill:white;fill-opacity:1;"/>
<path d="M131.885 44.9094H136.195L131.613 49.497C131.58 49.53 131.554 49.5699 131.539 49.6138C131.523 49.6577 131.517 49.7045 131.522 49.7509C131.526 49.7973 131.541 49.8421 131.565 49.8821C131.589 49.9221 131.622 49.9563 131.66 49.9822C131.712 50.0169 131.773 50.0354 131.835 50.0355H139.107V53.0853H131.116C130.529 53.0924 129.952 52.9327 129.452 52.6247C128.951 52.3165 128.549 51.8729 128.29 51.3452C128.023 50.7805 127.938 50.1471 128.045 49.5318C128.152 48.9167 128.447 48.3497 128.889 47.9086L131.885 44.9094Z" fill="white" style="fill:white;fill-opacity:1;"/>
</g>
<g opacity="0.4">
<path d="M159.114 48.5665H154.805L159.396 43.9697C159.429 43.9373 159.454 43.8981 159.469 43.8549C159.484 43.8118 159.49 43.7657 159.486 43.7201C159.481 43.6745 159.467 43.6305 159.443 43.5912C159.419 43.5519 159.387 43.5182 159.349 43.4927C159.298 43.4587 159.239 43.4405 159.177 43.4404H151.885V40.3906H159.884C160.471 40.3835 161.048 40.5432 161.548 40.8512C162.049 41.1594 162.451 41.603 162.71 42.1307C162.976 42.6954 163.062 43.3288 162.955 43.9441C162.848 44.5592 162.553 45.1262 162.111 45.5673L159.114 48.5665Z" fill="white" style="fill:white;fill-opacity:1;"/>
<path d="M151.885 44.9094H156.195L151.613 49.497C151.58 49.53 151.554 49.5699 151.539 49.6138C151.523 49.6577 151.517 49.7045 151.522 49.7509C151.526 49.7973 151.541 49.8421 151.565 49.8821C151.589 49.9221 151.622 49.9563 151.66 49.9822C151.712 50.0169 151.773 50.0354 151.835 50.0355H159.107V53.0853H151.116C150.529 53.0924 149.952 52.9327 149.452 52.6247C148.951 52.3165 148.549 51.8729 148.29 51.3452C148.023 50.7805 147.938 50.1471 148.045 49.5318C148.152 48.9167 148.447 48.3497 148.889 47.9086L151.885 44.9094Z" fill="white" style="fill:white;fill-opacity:1;"/>
</g>
<g opacity="0.6">
<path d="M179.114 48.5665H174.805L179.396 43.9697C179.429 43.9373 179.454 43.8981 179.469 43.8549C179.484 43.8118 179.49 43.7657 179.486 43.7201C179.481 43.6745 179.467 43.6305 179.443 43.5912C179.419 43.5519 179.387 43.5182 179.349 43.4927C179.298 43.4587 179.239 43.4405 179.177 43.4404H171.885V40.3906H179.884C180.471 40.3835 181.048 40.5432 181.548 40.8512C182.049 41.1594 182.451 41.603 182.71 42.1307C182.976 42.6954 183.062 43.3288 182.955 43.9441C182.848 44.5592 182.553 45.1262 182.111 45.5673L179.114 48.5665Z" fill="white" style="fill:white;fill-opacity:1;"/>
<path d="M171.885 44.9094H176.195L171.613 49.497C171.58 49.53 171.554 49.5699 171.539 49.6138C171.523 49.6577 171.517 49.7045 171.522 49.7509C171.526 49.7973 171.541 49.8421 171.565 49.8821C171.589 49.9221 171.622 49.9563 171.66 49.9822C171.712 50.0169 171.773 50.0354 171.835 50.0355H179.107V53.0853H171.116C170.529 53.0924 169.952 52.9327 169.452 52.6247C168.951 52.3165 168.549 51.8729 168.29 51.3452C168.023 50.7805 167.938 50.1471 168.045 49.5318C168.152 48.9167 168.447 48.3497 168.889 47.9086L171.885 44.9094Z" fill="white" style="fill:white;fill-opacity:1;"/>
</g>
<g opacity="0.8">
<path d="M199.114 48.5665H194.805L199.396 43.9697C199.429 43.9373 199.454 43.8981 199.469 43.8549C199.484 43.8118 199.49 43.7657 199.486 43.7201C199.481 43.6745 199.467 43.6305 199.443 43.5912C199.419 43.5519 199.387 43.5182 199.349 43.4927C199.298 43.4587 199.239 43.4405 199.177 43.4404H191.885V40.3906H199.884C200.471 40.3835 201.048 40.5432 201.548 40.8512C202.049 41.1594 202.451 41.603 202.71 42.1307C202.976 42.6954 203.062 43.3288 202.955 43.9441C202.848 44.5592 202.553 45.1262 202.111 45.5673L199.114 48.5665Z" fill="white" style="fill:white;fill-opacity:1;"/>
<path d="M191.885 44.9094H196.195L191.613 49.497C191.58 49.53 191.554 49.5699 191.539 49.6138C191.523 49.6577 191.517 49.7045 191.522 49.7509C191.526 49.7973 191.541 49.8421 191.565 49.8821C191.589 49.9221 191.622 49.9563 191.66 49.9822C191.712 50.0169 191.773 50.0354 191.835 50.0355H199.107V53.0853H191.116C190.529 53.0924 189.952 52.9327 189.452 52.6247C188.951 52.3165 188.549 51.8729 188.29 51.3452C188.023 50.7805 187.938 50.1471 188.045 49.5318C188.152 48.9167 188.447 48.3497 188.889 47.9086L191.885 44.9094Z" fill="white" style="fill:white;fill-opacity:1;"/>
</g>
<path d="M219.114 48.5665H214.805L219.396 43.9697C219.429 43.9373 219.454 43.8981 219.469 43.8549C219.484 43.8118 219.49 43.7657 219.486 43.7201C219.481 43.6745 219.467 43.6305 219.443 43.5912C219.419 43.5519 219.387 43.5182 219.349 43.4927C219.298 43.4587 219.239 43.4405 219.177 43.4404H211.885V40.3906H219.884C220.471 40.3835 221.048 40.5432 221.548 40.8512C222.049 41.1594 222.451 41.603 222.71 42.1307C222.976 42.6954 223.062 43.3288 222.955 43.9441C222.848 44.5592 222.553 45.1262 222.111 45.5673L219.114 48.5665Z" fill="white" style="fill:white;fill-opacity:1;"/>
<path d="M211.885 44.9094H216.195L211.613 49.497C211.58 49.53 211.554 49.5699 211.539 49.6138C211.523 49.6577 211.517 49.7045 211.522 49.7509C211.526 49.7973 211.541 49.8421 211.565 49.8821C211.589 49.9221 211.622 49.9563 211.66 49.9822C211.712 50.0169 211.773 50.0354 211.835 50.0355H219.107V53.0853H211.116C210.529 53.0924 209.952 52.9327 209.452 52.6247C208.951 52.3165 208.549 51.8729 208.29 51.3452C208.023 50.7805 207.938 50.1471 208.045 49.5318C208.152 48.9167 208.447 48.3497 208.889 47.9086L211.885 44.9094Z" fill="white" style="fill:white;fill-opacity:1;"/>
<path d="M239.114 48.5665H234.805L239.396 43.9697C239.429 43.9373 239.454 43.8981 239.469 43.8549C239.484 43.8118 239.49 43.7657 239.486 43.7201C239.481 43.6745 239.467 43.6305 239.443 43.5912C239.419 43.5519 239.387 43.5182 239.349 43.4927C239.298 43.4587 239.239 43.4405 239.177 43.4404H231.885V40.3906H239.884C240.471 40.3835 241.048 40.5432 241.548 40.8512C242.049 41.1594 242.451 41.603 242.71 42.1307C242.976 42.6954 243.062 43.3288 242.955 43.9441C242.848 44.5592 242.553 45.1262 242.111 45.5673L239.114 48.5665Z" fill="white" style="fill:white;fill-opacity:1;"/>
<path d="M231.885 44.9094H236.195L231.613 49.497C231.58 49.53 231.554 49.5699 231.539 49.6138C231.523 49.6577 231.517 49.7045 231.522 49.7509C231.526 49.7973 231.541 49.8421 231.565 49.8821C231.589 49.9221 231.622 49.9563 231.66 49.9822C231.712 50.0169 231.773 50.0354 231.835 50.0355H239.107V53.0853H231.116C230.529 53.0924 229.952 52.9327 229.452 52.6247C228.951 52.3165 228.549 51.8729 228.29 51.3452C228.023 50.7805 227.938 50.1471 228.045 49.5318C228.152 48.9167 228.447 48.3497 228.889 47.9086L231.885 44.9094Z" fill="white" style="fill:white;fill-opacity:1;"/>
<path d="M259.114 48.5665H254.805L259.396 43.9697C259.429 43.9373 259.454 43.8981 259.469 43.8549C259.484 43.8118 259.49 43.7657 259.486 43.7201C259.481 43.6745 259.467 43.6305 259.443 43.5912C259.419 43.5519 259.387 43.5182 259.349 43.4927C259.298 43.4587 259.239 43.4405 259.177 43.4404H251.885V40.3906H259.884C260.471 40.3835 261.048 40.5432 261.548 40.8512C262.049 41.1594 262.451 41.603 262.71 42.1307C262.976 42.6954 263.062 43.3288 262.955 43.9441C262.848 44.5592 262.553 45.1262 262.111 45.5673L259.114 48.5665Z" fill="white" style="fill:white;fill-opacity:1;"/>
<path d="M251.885 44.9094H256.195L251.613 49.497C251.58 49.53 251.554 49.5699 251.539 49.6138C251.523 49.6577 251.517 49.7045 251.522 49.7509C251.526 49.7973 251.541 49.8421 251.565 49.8821C251.589 49.9221 251.622 49.9563 251.66 49.9822C251.712 50.0169 251.773 50.0354 251.835 50.0355H259.107V53.0853H251.116C250.529 53.0924 249.952 52.9327 249.452 52.6247C248.951 52.3165 248.549 51.8729 248.29 51.3452C248.023 50.7805 247.938 50.1471 248.045 49.5318C248.152 48.9167 248.447 48.3497 248.889 47.9086L251.885 44.9094Z" fill="white" style="fill:white;fill-opacity:1;"/>
<path d="M279.114 48.5665H274.805L279.396 43.9697C279.429 43.9373 279.454 43.8981 279.469 43.8549C279.484 43.8118 279.49 43.7657 279.486 43.7201C279.481 43.6745 279.467 43.6305 279.443 43.5912C279.419 43.5519 279.387 43.5182 279.349 43.4927C279.298 43.4587 279.239 43.4405 279.177 43.4404H271.885V40.3906H279.884C280.471 40.3835 281.048 40.5432 281.548 40.8512C282.049 41.1594 282.451 41.603 282.71 42.1307C282.976 42.6954 283.062 43.3288 282.955 43.9441C282.848 44.5592 282.553 45.1262 282.111 45.5673L279.114 48.5665Z" fill="white" style="fill:white;fill-opacity:1;"/>
<path d="M271.885 44.9094H276.195L271.613 49.497C271.58 49.53 271.554 49.5699 271.539 49.6138C271.523 49.6577 271.517 49.7045 271.522 49.7509C271.526 49.7973 271.541 49.8421 271.565 49.8821C271.589 49.9221 271.622 49.9563 271.66 49.9822C271.712 50.0169 271.773 50.0354 271.835 50.0355H279.107V53.0853H271.116C270.529 53.0924 269.952 52.9327 269.452 52.6247C268.951 52.3165 268.549 51.8729 268.29 51.3452C268.023 50.7805 267.938 50.1471 268.045 49.5318C268.152 48.9167 268.447 48.3497 268.889 47.9086L271.885 44.9094Z" fill="white" style="fill:white;fill-opacity:1;"/>
</g>
<g opacity="0.4">
<g opacity="0.2">
<path d="M139.114 66.2616H134.805L139.396 61.6648C139.429 61.6323 139.454 61.5931 139.469 61.55C139.484 61.5068 139.49 61.4608 139.486 61.4152C139.481 61.3696 139.467 61.3256 139.443 61.2862C139.419 61.2469 139.387 61.2133 139.349 61.1878C139.298 61.1537 139.239 61.1356 139.177 61.1355H131.885V58.0857H139.884C140.471 58.0785 141.048 58.2383 141.548 58.5462C142.049 58.8544 142.451 59.2981 142.71 59.8258C142.976 60.3905 143.062 61.0239 142.955 61.6392C142.848 62.2543 142.553 62.8213 142.111 63.2624L139.114 66.2616Z" fill="white" style="fill:white;fill-opacity:1;"/>
<path d="M131.885 62.6045H136.195L131.613 67.1921C131.58 67.2251 131.554 67.265 131.539 67.3089C131.523 67.3528 131.517 67.3996 131.522 67.446C131.526 67.4923 131.541 67.5371 131.565 67.5771C131.589 67.6171 131.622 67.6513 131.66 67.6773C131.712 67.7119 131.773 67.7305 131.835 67.7305H139.107V70.7804H131.116C130.529 70.7875 129.952 70.6278 129.452 70.3198C128.951 70.0116 128.549 69.568 128.29 69.0403C128.023 68.4756 127.938 67.8422 128.045 67.2269C128.152 66.6118 128.447 66.0448 128.889 65.6036L131.885 62.6045Z" fill="white" style="fill:white;fill-opacity:1;"/>
</g>
<g opacity="0.4">
<path d="M159.114 66.2616H154.805L159.396 61.6648C159.429 61.6323 159.454 61.5931 159.469 61.55C159.484 61.5068 159.49 61.4608 159.486 61.4152C159.481 61.3696 159.467 61.3256 159.443 61.2862C159.419 61.2469 159.387 61.2133 159.349 61.1878C159.298 61.1537 159.239 61.1356 159.177 61.1355H151.885V58.0857H159.884C160.471 58.0785 161.048 58.2383 161.548 58.5462C162.049 58.8544 162.451 59.2981 162.71 59.8258C162.976 60.3905 163.062 61.0239 162.955 61.6392C162.848 62.2543 162.553 62.8213 162.111 63.2624L159.114 66.2616Z" fill="white" style="fill:white;fill-opacity:1;"/>
<path d="M151.885 62.6045H156.195L151.613 67.1921C151.58 67.2251 151.554 67.265 151.539 67.3089C151.523 67.3528 151.517 67.3996 151.522 67.446C151.526 67.4923 151.541 67.5371 151.565 67.5771C151.589 67.6171 151.622 67.6513 151.66 67.6773C151.712 67.7119 151.773 67.7305 151.835 67.7305H159.107V70.7804H151.116C150.529 70.7875 149.952 70.6278 149.452 70.3198C148.951 70.0116 148.549 69.568 148.29 69.0403C148.023 68.4756 147.938 67.8422 148.045 67.2269C148.152 66.6118 148.447 66.0448 148.889 65.6036L151.885 62.6045Z" fill="white" style="fill:white;fill-opacity:1;"/>
</g>
<g opacity="0.6">
<path d="M179.114 66.2616H174.805L179.396 61.6648C179.429 61.6323 179.454 61.5931 179.469 61.55C179.484 61.5068 179.49 61.4608 179.486 61.4152C179.481 61.3696 179.467 61.3256 179.443 61.2862C179.419 61.2469 179.387 61.2133 179.349 61.1878C179.298 61.1537 179.239 61.1356 179.177 61.1355H171.885V58.0857H179.884C180.471 58.0785 181.048 58.2383 181.548 58.5462C182.049 58.8544 182.451 59.2981 182.71 59.8258C182.976 60.3905 183.062 61.0239 182.955 61.6392C182.848 62.2543 182.553 62.8213 182.111 63.2624L179.114 66.2616Z" fill="white" style="fill:white;fill-opacity:1;"/>
<path d="M171.885 62.6045H176.195L171.613 67.1921C171.58 67.2251 171.554 67.265 171.539 67.3089C171.523 67.3528 171.517 67.3996 171.522 67.446C171.526 67.4923 171.541 67.5371 171.565 67.5771C171.589 67.6171 171.622 67.6513 171.66 67.6773C171.712 67.7119 171.773 67.7305 171.835 67.7305H179.107V70.7804H171.116C170.529 70.7875 169.952 70.6278 169.452 70.3198C168.951 70.0116 168.549 69.568 168.29 69.0403C168.023 68.4756 167.938 67.8422 168.045 67.2269C168.152 66.6118 168.447 66.0448 168.889 65.6036L171.885 62.6045Z" fill="white" style="fill:white;fill-opacity:1;"/>
</g>
<g opacity="0.8">
<path d="M199.114 66.2616H194.805L199.396 61.6648C199.429 61.6323 199.454 61.5931 199.469 61.55C199.484 61.5068 199.49 61.4608 199.486 61.4152C199.481 61.3696 199.467 61.3256 199.443 61.2862C199.419 61.2469 199.387 61.2133 199.349 61.1878C199.298 61.1537 199.239 61.1356 199.177 61.1355H191.885V58.0857H199.884C200.471 58.0785 201.048 58.2383 201.548 58.5462C202.049 58.8544 202.451 59.2981 202.71 59.8258C202.976 60.3905 203.062 61.0239 202.955 61.6392C202.848 62.2543 202.553 62.8213 202.111 63.2624L199.114 66.2616Z" fill="white" style="fill:white;fill-opacity:1;"/>
<path d="M191.885 62.6045H196.195L191.613 67.1921C191.58 67.2251 191.554 67.265 191.539 67.3089C191.523 67.3528 191.517 67.3996 191.522 67.446C191.526 67.4923 191.541 67.5371 191.565 67.5771C191.589 67.6171 191.622 67.6513 191.66 67.6773C191.712 67.7119 191.773 67.7305 191.835 67.7305H199.107V70.7804H191.116C190.529 70.7875 189.952 70.6278 189.452 70.3198C188.951 70.0116 188.549 69.568 188.29 69.0403C188.023 68.4756 187.938 67.8422 188.045 67.2269C188.152 66.6118 188.447 66.0448 188.889 65.6036L191.885 62.6045Z" fill="white" style="fill:white;fill-opacity:1;"/>
</g>
<path d="M219.114 66.2616H214.805L219.396 61.6648C219.429 61.6323 219.454 61.5931 219.469 61.55C219.484 61.5068 219.49 61.4608 219.486 61.4152C219.481 61.3696 219.467 61.3256 219.443 61.2862C219.419 61.2469 219.387 61.2133 219.349 61.1878C219.298 61.1537 219.239 61.1356 219.177 61.1355H211.885V58.0857H219.884C220.471 58.0785 221.048 58.2383 221.548 58.5462C222.049 58.8544 222.451 59.2981 222.71 59.8258C222.976 60.3905 223.062 61.0239 222.955 61.6392C222.848 62.2543 222.553 62.8213 222.111 63.2624L219.114 66.2616Z" fill="white" style="fill:white;fill-opacity:1;"/>
<path d="M211.885 62.6045H216.195L211.613 67.1921C211.58 67.2251 211.554 67.265 211.539 67.3089C211.523 67.3528 211.517 67.3996 211.522 67.446C211.526 67.4923 211.541 67.5371 211.565 67.5771C211.589 67.6171 211.622 67.6513 211.66 67.6773C211.712 67.7119 211.773 67.7305 211.835 67.7305H219.107V70.7804H211.116C210.529 70.7875 209.952 70.6278 209.452 70.3198C208.951 70.0116 208.549 69.568 208.29 69.0403C208.023 68.4756 207.938 67.8422 208.045 67.2269C208.152 66.6118 208.447 66.0448 208.889 65.6036L211.885 62.6045Z" fill="white" style="fill:white;fill-opacity:1;"/>
<path d="M239.114 66.2616H234.805L239.396 61.6648C239.429 61.6323 239.454 61.5931 239.469 61.55C239.484 61.5068 239.49 61.4608 239.486 61.4152C239.481 61.3696 239.467 61.3256 239.443 61.2862C239.419 61.2469 239.387 61.2133 239.349 61.1878C239.298 61.1537 239.239 61.1356 239.177 61.1355H231.885V58.0857H239.884C240.471 58.0785 241.048 58.2383 241.548 58.5462C242.049 58.8544 242.451 59.2981 242.71 59.8258C242.976 60.3905 243.062 61.0239 242.955 61.6392C242.848 62.2543 242.553 62.8213 242.111 63.2624L239.114 66.2616Z" fill="white" style="fill:white;fill-opacity:1;"/>
<path d="M231.885 62.6045H236.195L231.613 67.1921C231.58 67.2251 231.554 67.265 231.539 67.3089C231.523 67.3528 231.517 67.3996 231.522 67.446C231.526 67.4923 231.541 67.5371 231.565 67.5771C231.589 67.6171 231.622 67.6513 231.66 67.6773C231.712 67.7119 231.773 67.7305 231.835 67.7305H239.107V70.7804H231.116C230.529 70.7875 229.952 70.6278 229.452 70.3198C228.951 70.0116 228.549 69.568 228.29 69.0403C228.023 68.4756 227.938 67.8422 228.045 67.2269C228.152 66.6118 228.447 66.0448 228.889 65.6036L231.885 62.6045Z" fill="white" style="fill:white;fill-opacity:1;"/>
<path d="M259.114 66.2616H254.805L259.396 61.6648C259.429 61.6323 259.454 61.5931 259.469 61.55C259.484 61.5068 259.49 61.4608 259.486 61.4152C259.481 61.3696 259.467 61.3256 259.443 61.2862C259.419 61.2469 259.387 61.2133 259.349 61.1878C259.298 61.1537 259.239 61.1356 259.177 61.1355H251.885V58.0857H259.884C260.471 58.0785 261.048 58.2383 261.548 58.5462C262.049 58.8544 262.451 59.2981 262.71 59.8258C262.976 60.3905 263.062 61.0239 262.955 61.6392C262.848 62.2543 262.553 62.8213 262.111 63.2624L259.114 66.2616Z" fill="white" style="fill:white;fill-opacity:1;"/>
<path d="M251.885 62.6045H256.195L251.613 67.1921C251.58 67.2251 251.554 67.265 251.539 67.3089C251.523 67.3528 251.517 67.3996 251.522 67.446C251.526 67.4923 251.541 67.5371 251.565 67.5771C251.589 67.6171 251.622 67.6513 251.66 67.6773C251.712 67.7119 251.773 67.7305 251.835 67.7305H259.107V70.7804H251.116C250.529 70.7875 249.952 70.6278 249.452 70.3198C248.951 70.0116 248.549 69.568 248.29 69.0403C248.023 68.4756 247.938 67.8422 248.045 67.2269C248.152 66.6118 248.447 66.0448 248.889 65.6036L251.885 62.6045Z" fill="white" style="fill:white;fill-opacity:1;"/>
<path d="M279.114 66.2616H274.805L279.396 61.6648C279.429 61.6323 279.454 61.5931 279.469 61.55C279.484 61.5068 279.49 61.4608 279.486 61.4152C279.481 61.3696 279.467 61.3256 279.443 61.2862C279.419 61.2469 279.387 61.2133 279.349 61.1878C279.298 61.1537 279.239 61.1356 279.177 61.1355H271.885V58.0857H279.884C280.471 58.0785 281.048 58.2383 281.548 58.5462C282.049 58.8544 282.451 59.2981 282.71 59.8258C282.976 60.3905 283.062 61.0239 282.955 61.6392C282.848 62.2543 282.553 62.8213 282.111 63.2624L279.114 66.2616Z" fill="white" style="fill:white;fill-opacity:1;"/>
<path d="M271.885 62.6045H276.195L271.613 67.1921C271.58 67.2251 271.554 67.265 271.539 67.3089C271.523 67.3528 271.517 67.3996 271.522 67.446C271.526 67.4923 271.541 67.5371 271.565 67.5771C271.589 67.6171 271.622 67.6513 271.66 67.6773C271.712 67.7119 271.773 67.7305 271.835 67.7305H279.107V70.7804H271.116C270.529 70.7875 269.952 70.6278 269.452 70.3198C268.951 70.0116 268.549 69.568 268.29 69.0403C268.023 68.4756 267.938 67.8422 268.045 67.2269C268.152 66.6118 268.447 66.0448 268.889 65.6036L271.885 62.6045Z" fill="white" style="fill:white;fill-opacity:1;"/>
</g>
<g opacity="0.3">
<g opacity="0.2">
<path d="M139.114 83.9569H134.805L139.396 79.3601C139.429 79.3276 139.454 79.2884 139.469 79.2453C139.484 79.2021 139.49 79.1561 139.486 79.1105C139.481 79.0649 139.467 79.0209 139.443 78.9815C139.419 78.9422 139.387 78.9086 139.349 78.8831C139.298 78.8491 139.239 78.8309 139.177 78.8308H131.885V75.781H139.884C140.471 75.7739 141.048 75.9336 141.548 76.2415C142.049 76.5497 142.451 76.9934 142.71 77.5211C142.976 78.0858 143.062 78.7192 142.955 79.3345C142.848 79.9496 142.553 80.5166 142.111 80.9577L139.114 83.9569Z" fill="white" style="fill:white;fill-opacity:1;"/>
<path d="M131.885 80.2998H136.195L131.613 84.8874C131.58 84.9204 131.554 84.9603 131.539 85.0042C131.523 85.0481 131.517 85.0949 131.522 85.1413C131.526 85.1876 131.541 85.2324 131.565 85.2724C131.589 85.3124 131.622 85.3466 131.66 85.3726C131.712 85.4073 131.773 85.4258 131.835 85.4259H139.107V88.4757H131.116C130.529 88.4828 129.952 88.3231 129.452 88.0151C128.951 87.7069 128.549 87.2633 128.29 86.7356C128.023 86.1709 127.938 85.5375 128.045 84.9222C128.152 84.3071 128.447 83.7401 128.889 83.299L131.885 80.2998Z" fill="white" style="fill:white;fill-opacity:1;"/>
</g>
<g opacity="0.4">
<path d="M159.114 83.9569H154.805L159.396 79.3601C159.429 79.3276 159.454 79.2884 159.469 79.2453C159.484 79.2021 159.49 79.1561 159.486 79.1105C159.481 79.0649 159.467 79.0209 159.443 78.9815C159.419 78.9422 159.387 78.9086 159.349 78.8831C159.298 78.8491 159.239 78.8309 159.177 78.8308H151.885V75.781H159.884C160.471 75.7739 161.048 75.9336 161.548 76.2415C162.049 76.5497 162.451 76.9934 162.71 77.5211C162.976 78.0858 163.062 78.7192 162.955 79.3345C162.848 79.9496 162.553 80.5166 162.111 80.9577L159.114 83.9569Z" fill="white" style="fill:white;fill-opacity:1;"/>
<path d="M151.885 80.2998H156.195L151.613 84.8874C151.58 84.9204 151.554 84.9603 151.539 85.0042C151.523 85.0481 151.517 85.0949 151.522 85.1413C151.526 85.1876 151.541 85.2324 151.565 85.2724C151.589 85.3124 151.622 85.3466 151.66 85.3726C151.712 85.4073 151.773 85.4258 151.835 85.4259H159.107V88.4757H151.116C150.529 88.4828 149.952 88.3231 149.452 88.0151C148.951 87.7069 148.549 87.2633 148.29 86.7356C148.023 86.1709 147.938 85.5375 148.045 84.9222C148.152 84.3071 148.447 83.7401 148.889 83.299L151.885 80.2998Z" fill="white" style="fill:white;fill-opacity:1;"/>
</g>
<g opacity="0.6">
<path d="M179.114 83.9569H174.805L179.396 79.3601C179.429 79.3276 179.454 79.2884 179.469 79.2453C179.484 79.2021 179.49 79.1561 179.486 79.1105C179.481 79.0649 179.467 79.0209 179.443 78.9815C179.419 78.9422 179.387 78.9086 179.349 78.8831C179.298 78.8491 179.239 78.8309 179.177 78.8308H171.885V75.781H179.884C180.471 75.7739 181.048 75.9336 181.548 76.2415C182.049 76.5497 182.451 76.9934 182.71 77.5211C182.976 78.0858 183.062 78.7192 182.955 79.3345C182.848 79.9496 182.553 80.5166 182.111 80.9577L179.114 83.9569Z" fill="white" style="fill:white;fill-opacity:1;"/>
<path d="M171.885 80.2998H176.195L171.613 84.8874C171.58 84.9204 171.554 84.9603 171.539 85.0042C171.523 85.0481 171.517 85.0949 171.522 85.1413C171.526 85.1876 171.541 85.2324 171.565 85.2724C171.589 85.3124 171.622 85.3466 171.66 85.3726C171.712 85.4073 171.773 85.4258 171.835 85.4259H179.107V88.4757H171.116C170.529 88.4828 169.952 88.3231 169.452 88.0151C168.951 87.7069 168.549 87.2633 168.29 86.7356C168.023 86.1709 167.938 85.5375 168.045 84.9222C168.152 84.3071 168.447 83.7401 168.889 83.299L171.885 80.2998Z" fill="white" style="fill:white;fill-opacity:1;"/>
</g>
<g opacity="0.8">
<path d="M199.114 83.9569H194.805L199.396 79.3601C199.429 79.3276 199.454 79.2884 199.469 79.2453C199.484 79.2021 199.49 79.1561 199.486 79.1105C199.481 79.0649 199.467 79.0209 199.443 78.9815C199.419 78.9422 199.387 78.9086 199.349 78.8831C199.298 78.8491 199.239 78.8309 199.177 78.8308H191.885V75.781H199.884C200.471 75.7739 201.048 75.9336 201.548 76.2415C202.049 76.5497 202.451 76.9934 202.71 77.5211C202.976 78.0858 203.062 78.7192 202.955 79.3345C202.848 79.9496 202.553 80.5166 202.111 80.9577L199.114 83.9569Z" fill="white" style="fill:white;fill-opacity:1;"/>
<path d="M191.885 80.2998H196.195L191.613 84.8874C191.58 84.9204 191.554 84.9603 191.539 85.0042C191.523 85.0481 191.517 85.0949 191.522 85.1413C191.526 85.1876 191.541 85.2324 191.565 85.2724C191.589 85.3124 191.622 85.3466 191.66 85.3726C191.712 85.4073 191.773 85.4258 191.835 85.4259H199.107V88.4757H191.116C190.529 88.4828 189.952 88.3231 189.452 88.0151C188.951 87.7069 188.549 87.2633 188.29 86.7356C188.023 86.1709 187.938 85.5375 188.045 84.9222C188.152 84.3071 188.447 83.7401 188.889 83.299L191.885 80.2998Z" fill="white" style="fill:white;fill-opacity:1;"/>
</g>
<path d="M219.114 83.9569H214.805L219.396 79.3601C219.429 79.3276 219.454 79.2884 219.469 79.2453C219.484 79.2021 219.49 79.1561 219.486 79.1105C219.481 79.0649 219.467 79.0209 219.443 78.9815C219.419 78.9422 219.387 78.9086 219.349 78.8831C219.298 78.8491 219.239 78.8309 219.177 78.8308H211.885V75.781H219.884C220.471 75.7739 221.048 75.9336 221.548 76.2415C222.049 76.5497 222.451 76.9934 222.71 77.5211C222.976 78.0858 223.062 78.7192 222.955 79.3345C222.848 79.9496 222.553 80.5166 222.111 80.9577L219.114 83.9569Z" fill="white" style="fill:white;fill-opacity:1;"/>
<path d="M211.885 80.2998H216.195L211.613 84.8874C211.58 84.9204 211.554 84.9603 211.539 85.0042C211.523 85.0481 211.517 85.0949 211.522 85.1413C211.526 85.1876 211.541 85.2324 211.565 85.2724C211.589 85.3124 211.622 85.3466 211.66 85.3726C211.712 85.4073 211.773 85.4258 211.835 85.4259H219.107V88.4757H211.116C210.529 88.4828 209.952 88.3231 209.452 88.0151C208.951 87.7069 208.549 87.2633 208.29 86.7356C208.023 86.1709 207.938 85.5375 208.045 84.9222C208.152 84.3071 208.447 83.7401 208.889 83.299L211.885 80.2998Z" fill="white" style="fill:white;fill-opacity:1;"/>
<path d="M239.114 83.9569H234.805L239.396 79.3601C239.429 79.3276 239.454 79.2884 239.469 79.2453C239.484 79.2021 239.49 79.1561 239.486 79.1105C239.481 79.0649 239.467 79.0209 239.443 78.9815C239.419 78.9422 239.387 78.9086 239.349 78.8831C239.298 78.8491 239.239 78.8309 239.177 78.8308H231.885V75.781H239.884C240.471 75.7739 241.048 75.9336 241.548 76.2415C242.049 76.5497 242.451 76.9934 242.71 77.5211C242.976 78.0858 243.062 78.7192 242.955 79.3345C242.848 79.9496 242.553 80.5166 242.111 80.9577L239.114 83.9569Z" fill="white" style="fill:white;fill-opacity:1;"/>
<path d="M231.885 80.2998H236.195L231.613 84.8874C231.58 84.9204 231.554 84.9603 231.539 85.0042C231.523 85.0481 231.517 85.0949 231.522 85.1413C231.526 85.1876 231.541 85.2324 231.565 85.2724C231.589 85.3124 231.622 85.3466 231.66 85.3726C231.712 85.4073 231.773 85.4258 231.835 85.4259H239.107V88.4757H231.116C230.529 88.4828 229.952 88.3231 229.452 88.0151C228.951 87.7069 228.549 87.2633 228.29 86.7356C228.023 86.1709 227.938 85.5375 228.045 84.9222C228.152 84.3071 228.447 83.7401 228.889 83.299L231.885 80.2998Z" fill="white" style="fill:white;fill-opacity:1;"/>
<path d="M259.114 83.9569H254.805L259.396 79.3601C259.429 79.3276 259.454 79.2884 259.469 79.2453C259.484 79.2021 259.49 79.1561 259.486 79.1105C259.481 79.0649 259.467 79.0209 259.443 78.9815C259.419 78.9422 259.387 78.9086 259.349 78.8831C259.298 78.8491 259.239 78.8309 259.177 78.8308H251.885V75.781H259.884C260.471 75.7739 261.048 75.9336 261.548 76.2415C262.049 76.5497 262.451 76.9934 262.71 77.5211C262.976 78.0858 263.062 78.7192 262.955 79.3345C262.848 79.9496 262.553 80.5166 262.111 80.9577L259.114 83.9569Z" fill="white" style="fill:white;fill-opacity:1;"/>
<path d="M251.885 80.2998H256.195L251.613 84.8874C251.58 84.9204 251.554 84.9603 251.539 85.0042C251.523 85.0481 251.517 85.0949 251.522 85.1413C251.526 85.1876 251.541 85.2324 251.565 85.2724C251.589 85.3124 251.622 85.3466 251.66 85.3726C251.712 85.4073 251.773 85.4258 251.835 85.4259H259.107V88.4757H251.116C250.529 88.4828 249.952 88.3231 249.452 88.0151C248.951 87.7069 248.549 87.2633 248.29 86.7356C248.023 86.1709 247.938 85.5375 248.045 84.9222C248.152 84.3071 248.447 83.7401 248.889 83.299L251.885 80.2998Z" fill="white" style="fill:white;fill-opacity:1;"/>
<path d="M279.114 83.9569H274.805L279.396 79.3601C279.429 79.3276 279.454 79.2884 279.469 79.2453C279.484 79.2021 279.49 79.1561 279.486 79.1105C279.481 79.0649 279.467 79.0209 279.443 78.9815C279.419 78.9422 279.387 78.9086 279.349 78.8831C279.298 78.8491 279.239 78.8309 279.177 78.8308H271.885V75.781H279.884C280.471 75.7739 281.048 75.9336 281.548 76.2415C282.049 76.5497 282.451 76.9934 282.71 77.5211C282.976 78.0858 283.062 78.7192 282.955 79.3345C282.848 79.9496 282.553 80.5166 282.111 80.9577L279.114 83.9569Z" fill="white" style="fill:white;fill-opacity:1;"/>
<path d="M271.885 80.2998H276.195L271.613 84.8874C271.58 84.9204 271.554 84.9603 271.539 85.0042C271.523 85.0481 271.517 85.0949 271.522 85.1413C271.526 85.1876 271.541 85.2324 271.565 85.2724C271.589 85.3124 271.622 85.3466 271.66 85.3726C271.712 85.4073 271.773 85.4258 271.835 85.4259H279.107V88.4757H271.116C270.529 88.4828 269.952 88.3231 269.452 88.0151C268.951 87.7069 268.549 87.2633 268.29 86.7356C268.023 86.1709 267.938 85.5375 268.045 84.9222C268.152 84.3071 268.447 83.7401 268.889 83.299L271.885 80.2998Z" fill="white" style="fill:white;fill-opacity:1;"/>
</g>
<g opacity="0.2">
<g opacity="0.2">
<path d="M139.114 101.652H134.805L139.396 97.0551C139.429 97.0227 139.454 96.9835 139.469 96.9404C139.484 96.8972 139.49 96.8512 139.486 96.8056C139.481 96.76 139.467 96.7159 139.443 96.6766C139.419 96.6373 139.387 96.6037 139.349 96.5782C139.298 96.5441 139.239 96.5259 139.177 96.5259H131.885V93.4761H139.884C140.471 93.4689 141.048 93.6286 141.548 93.9366C142.049 94.2448 142.451 94.6885 142.71 95.2161C142.976 95.7809 143.062 96.4142 142.955 97.0295C142.848 97.6447 142.553 98.2117 142.111 98.6528L139.114 101.652Z" fill="white" style="fill:white;fill-opacity:1;"/>
<path d="M131.885 97.9949H136.195L131.613 102.582C131.58 102.615 131.554 102.655 131.539 102.699C131.523 102.743 131.517 102.79 131.522 102.836C131.526 102.883 131.541 102.928 131.565 102.968C131.589 103.008 131.622 103.042 131.66 103.068C131.712 103.102 131.773 103.121 131.835 103.121H139.107V106.171H131.116C130.529 106.178 129.952 106.018 129.452 105.71C128.951 105.402 128.549 104.958 128.29 104.431C128.023 103.866 127.938 103.233 128.045 102.617C128.152 102.002 128.447 101.435 128.889 100.994L131.885 97.9949Z" fill="white" style="fill:white;fill-opacity:1;"/>
</g>
<g opacity="0.4">
<path d="M159.114 101.652H154.805L159.396 97.0551C159.429 97.0227 159.454 96.9835 159.469 96.9404C159.484 96.8972 159.49 96.8512 159.486 96.8056C159.481 96.76 159.467 96.7159 159.443 96.6766C159.419 96.6373 159.387 96.6037 159.349 96.5782C159.298 96.5441 159.239 96.5259 159.177 96.5259H151.885V93.4761H159.884C160.471 93.4689 161.048 93.6286 161.548 93.9366C162.049 94.2448 162.451 94.6885 162.71 95.2161C162.976 95.7809 163.062 96.4142 162.955 97.0295C162.848 97.6447 162.553 98.2117 162.111 98.6528L159.114 101.652Z" fill="white" style="fill:white;fill-opacity:1;"/>
<path d="M151.885 97.9949H156.195L151.613 102.582C151.58 102.615 151.554 102.655 151.539 102.699C151.523 102.743 151.517 102.79 151.522 102.836C151.526 102.883 151.541 102.928 151.565 102.968C151.589 103.008 151.622 103.042 151.66 103.068C151.712 103.102 151.773 103.121 151.835 103.121H159.107V106.171H151.116C150.529 106.178 149.952 106.018 149.452 105.71C148.951 105.402 148.549 104.958 148.29 104.431C148.023 103.866 147.938 103.233 148.045 102.617C148.152 102.002 148.447 101.435 148.889 100.994L151.885 97.9949Z" fill="white" style="fill:white;fill-opacity:1;"/>
</g>
<g opacity="0.6">
<path d="M179.114 101.652H174.805L179.396 97.0551C179.429 97.0227 179.454 96.9835 179.469 96.9404C179.484 96.8972 179.49 96.8512 179.486 96.8056C179.481 96.76 179.467 96.7159 179.443 96.6766C179.419 96.6373 179.387 96.6037 179.349 96.5782C179.298 96.5441 179.239 96.5259 179.177 96.5259H171.885V93.4761H179.884C180.471 93.4689 181.048 93.6286 181.548 93.9366C182.049 94.2448 182.451 94.6885 182.71 95.2161C182.976 95.7809 183.062 96.4142 182.955 97.0295C182.848 97.6447 182.553 98.2117 182.111 98.6528L179.114 101.652Z" fill="white" style="fill:white;fill-opacity:1;"/>
<path d="M171.885 97.9949H176.195L171.613 102.582C171.58 102.615 171.554 102.655 171.539 102.699C171.523 102.743 171.517 102.79 171.522 102.836C171.526 102.883 171.541 102.928 171.565 102.968C171.589 103.008 171.622 103.042 171.66 103.068C171.712 103.102 171.773 103.121 171.835 103.121H179.107V106.171H171.116C170.529 106.178 169.952 106.018 169.452 105.71C168.951 105.402 168.549 104.958 168.29 104.431C168.023 103.866 167.938 103.233 168.045 102.617C168.152 102.002 168.447 101.435 168.889 100.994L171.885 97.9949Z" fill="white" style="fill:white;fill-opacity:1;"/>
</g>
<g opacity="0.8">
<path d="M199.114 101.652H194.805L199.396 97.0551C199.429 97.0227 199.454 96.9835 199.469 96.9404C199.484 96.8972 199.49 96.8512 199.486 96.8056C199.481 96.76 199.467 96.7159 199.443 96.6766C199.419 96.6373 199.387 96.6037 199.349 96.5782C199.298 96.5441 199.239 96.5259 199.177 96.5259H191.885V93.4761H199.884C200.471 93.4689 201.048 93.6286 201.548 93.9366C202.049 94.2448 202.451 94.6885 202.71 95.2161C202.976 95.7809 203.062 96.4142 202.955 97.0295C202.848 97.6447 202.553 98.2117 202.111 98.6528L199.114 101.652Z" fill="white" style="fill:white;fill-opacity:1;"/>
<path d="M191.885 97.9949H196.195L191.613 102.582C191.58 102.615 191.554 102.655 191.539 102.699C191.523 102.743 191.517 102.79 191.522 102.836C191.526 102.883 191.541 102.928 191.565 102.968C191.589 103.008 191.622 103.042 191.66 103.068C191.712 103.102 191.773 103.121 191.835 103.121H199.107V106.171H191.116C190.529 106.178 189.952 106.018 189.452 105.71C188.951 105.402 188.549 104.958 188.29 104.431C188.023 103.866 187.938 103.233 188.045 102.617C188.152 102.002 188.447 101.435 188.889 100.994L191.885 97.9949Z" fill="white" style="fill:white;fill-opacity:1;"/>
</g>
<path d="M219.114 101.652H214.805L219.396 97.0551C219.429 97.0227 219.454 96.9835 219.469 96.9404C219.484 96.8972 219.49 96.8512 219.486 96.8056C219.481 96.76 219.467 96.7159 219.443 96.6766C219.419 96.6373 219.387 96.6037 219.349 96.5782C219.298 96.5441 219.239 96.5259 219.177 96.5259H211.885V93.4761H219.884C220.471 93.4689 221.048 93.6286 221.548 93.9366C222.049 94.2448 222.451 94.6885 222.71 95.2161C222.976 95.7809 223.062 96.4142 222.955 97.0295C222.848 97.6447 222.553 98.2117 222.111 98.6528L219.114 101.652Z" fill="white" style="fill:white;fill-opacity:1;"/>
<path d="M211.885 97.9949H216.195L211.613 102.582C211.58 102.615 211.554 102.655 211.539 102.699C211.523 102.743 211.517 102.79 211.522 102.836C211.526 102.883 211.541 102.928 211.565 102.968C211.589 103.008 211.622 103.042 211.66 103.068C211.712 103.102 211.773 103.121 211.835 103.121H219.107V106.171H211.116C210.529 106.178 209.952 106.018 209.452 105.71C208.951 105.402 208.549 104.958 208.29 104.431C208.023 103.866 207.938 103.233 208.045 102.617C208.152 102.002 208.447 101.435 208.889 100.994L211.885 97.9949Z" fill="white" style="fill:white;fill-opacity:1;"/>
<path d="M239.114 101.652H234.805L239.396 97.0551C239.429 97.0227 239.454 96.9835 239.469 96.9404C239.484 96.8972 239.49 96.8512 239.486 96.8056C239.481 96.76 239.467 96.7159 239.443 96.6766C239.419 96.6373 239.387 96.6037 239.349 96.5782C239.298 96.5441 239.239 96.5259 239.177 96.5259H231.885V93.4761H239.884C240.471 93.4689 241.048 93.6286 241.548 93.9366C242.049 94.2448 242.451 94.6885 242.71 95.2161C242.976 95.7809 243.062 96.4142 242.955 97.0295C242.848 97.6447 242.553 98.2117 242.111 98.6528L239.114 101.652Z" fill="white" style="fill:white;fill-opacity:1;"/>
<path d="M231.885 97.9949H236.195L231.613 102.582C231.58 102.615 231.554 102.655 231.539 102.699C231.523 102.743 231.517 102.79 231.522 102.836C231.526 102.883 231.541 102.928 231.565 102.968C231.589 103.008 231.622 103.042 231.66 103.068C231.712 103.102 231.773 103.121 231.835 103.121H239.107V106.171H231.116C230.529 106.178 229.952 106.018 229.452 105.71C228.951 105.402 228.549 104.958 228.29 104.431C228.023 103.866 227.938 103.233 228.045 102.617C228.152 102.002 228.447 101.435 228.889 100.994L231.885 97.9949Z" fill="white" style="fill:white;fill-opacity:1;"/>
<path d="M259.114 101.652H254.805L259.396 97.0551C259.429 97.0227 259.454 96.9835 259.469 96.9404C259.484 96.8972 259.49 96.8512 259.486 96.8056C259.481 96.76 259.467 96.7159 259.443 96.6766C259.419 96.6373 259.387 96.6037 259.349 96.5782C259.298 96.5441 259.239 96.5259 259.177 96.5259H251.885V93.4761H259.884C260.471 93.4689 261.048 93.6286 261.548 93.9366C262.049 94.2448 262.451 94.6885 262.71 95.2161C262.976 95.7809 263.062 96.4142 262.955 97.0295C262.848 97.6447 262.553 98.2117 262.111 98.6528L259.114 101.652Z" fill="white" style="fill:white;fill-opacity:1;"/>
<path d="M251.885 97.9949H256.195L251.613 102.582C251.58 102.615 251.554 102.655 251.539 102.699C251.523 102.743 251.517 102.79 251.522 102.836C251.526 102.883 251.541 102.928 251.565 102.968C251.589 103.008 251.622 103.042 251.66 103.068C251.712 103.102 251.773 103.121 251.835 103.121H259.107V106.171H251.116C250.529 106.178 249.952 106.018 249.452 105.71C248.951 105.402 248.549 104.958 248.29 104.431C248.023 103.866 247.938 103.233 248.045 102.617C248.152 102.002 248.447 101.435 248.889 100.994L251.885 97.9949Z" fill="white" style="fill:white;fill-opacity:1;"/>
<path d="M279.114 101.652H274.805L279.396 97.0551C279.429 97.0227 279.454 96.9835 279.469 96.9404C279.484 96.8972 279.49 96.8512 279.486 96.8056C279.481 96.76 279.467 96.7159 279.443 96.6766C279.419 96.6373 279.387 96.6037 279.349 96.5782C279.298 96.5441 279.239 96.5259 279.177 96.5259H271.885V93.4761H279.884C280.471 93.4689 281.048 93.6286 281.548 93.9366C282.049 94.2448 282.451 94.6885 282.71 95.2161C282.976 95.7809 283.062 96.4142 282.955 97.0295C282.848 97.6447 282.553 98.2117 282.111 98.6528L279.114 101.652Z" fill="white" style="fill:white;fill-opacity:1;"/>
<path d="M271.885 97.9949H276.195L271.613 102.582C271.58 102.615 271.554 102.655 271.539 102.699C271.523 102.743 271.517 102.79 271.522 102.836C271.526 102.883 271.541 102.928 271.565 102.968C271.589 103.008 271.622 103.042 271.66 103.068C271.712 103.102 271.773 103.121 271.835 103.121H279.107V106.171H271.116C270.529 106.178 269.952 106.018 269.452 105.71C268.951 105.402 268.549 104.958 268.29 104.431C268.023 103.866 267.938 103.233 268.045 102.617C268.152 102.002 268.447 101.435 268.889 100.994L271.885 97.9949Z" fill="white" style="fill:white;fill-opacity:1;"/>
</g>
<g opacity="0.1">
<g opacity="0.2">
<path d="M139.114 119.347H134.805L139.396 114.75C139.429 114.718 139.454 114.679 139.469 114.635C139.484 114.592 139.49 114.546 139.486 114.501C139.481 114.455 139.467 114.411 139.443 114.372C139.419 114.332 139.387 114.299 139.349 114.273C139.298 114.239 139.239 114.221 139.177 114.221H131.885V111.171H139.884C140.471 111.164 141.048 111.324 141.548 111.632C142.049 111.94 142.451 112.384 142.71 112.911C142.976 113.476 143.062 114.109 142.955 114.725C142.848 115.34 142.553 115.907 142.111 116.348L139.114 119.347Z" fill="white" style="fill:white;fill-opacity:1;"/>
<path d="M131.885 115.69H136.195L131.613 120.278C131.58 120.311 131.554 120.35 131.539 120.394C131.523 120.438 131.517 120.485 131.522 120.531C131.526 120.578 131.541 120.623 131.565 120.663C131.589 120.703 131.622 120.737 131.66 120.763C131.712 120.797 131.773 120.816 131.835 120.816H139.107V123.866H131.116C130.529 123.873 129.952 123.713 129.452 123.405C128.951 123.097 128.549 122.653 128.29 122.126C128.023 121.561 127.938 120.928 128.045 120.312C128.152 119.697 128.447 119.13 128.889 118.689L131.885 115.69Z" fill="white" style="fill:white;fill-opacity:1;"/>
</g>
<g opacity="0.4">
<path d="M159.114 119.347H154.805L159.396 114.75C159.429 114.718 159.454 114.679 159.469 114.635C159.484 114.592 159.49 114.546 159.486 114.501C159.481 114.455 159.467 114.411 159.443 114.372C159.419 114.332 159.387 114.299 159.349 114.273C159.298 114.239 159.239 114.221 159.177 114.221H151.885V111.171H159.884C160.471 111.164 161.048 111.324 161.548 111.632C162.049 111.94 162.451 112.384 162.71 112.911C162.976 113.476 163.062 114.109 162.955 114.725C162.848 115.34 162.553 115.907 162.111 116.348L159.114 119.347Z" fill="white" style="fill:white;fill-opacity:1;"/>
<path d="M151.885 115.69H156.195L151.613 120.278C151.58 120.311 151.554 120.35 151.539 120.394C151.523 120.438 151.517 120.485 151.522 120.531C151.526 120.578 151.541 120.623 151.565 120.663C151.589 120.703 151.622 120.737 151.66 120.763C151.712 120.797 151.773 120.816 151.835 120.816H159.107V123.866H151.116C150.529 123.873 149.952 123.713 149.452 123.405C148.951 123.097 148.549 122.653 148.29 122.126C148.023 121.561 147.938 120.928 148.045 120.312C148.152 119.697 148.447 119.13 148.889 118.689L151.885 115.69Z" fill="white" style="fill:white;fill-opacity:1;"/>
</g>
<g opacity="0.6">
<path d="M179.114 119.347H174.805L179.396 114.75C179.429 114.718 179.454 114.679 179.469 114.635C179.484 114.592 179.49 114.546 179.486 114.501C179.481 114.455 179.467 114.411 179.443 114.372C179.419 114.332 179.387 114.299 179.349 114.273C179.298 114.239 179.239 114.221 179.177 114.221H171.885V111.171H179.884C180.471 111.164 181.048 111.324 181.548 111.632C182.049 111.94 182.451 112.384 182.71 112.911C182.976 113.476 183.062 114.109 182.955 114.725C182.848 115.34 182.553 115.907 182.111 116.348L179.114 119.347Z" fill="white" style="fill:white;fill-opacity:1;"/>
<path d="M171.885 115.69H176.195L171.613 120.278C171.58 120.311 171.554 120.35 171.539 120.394C171.523 120.438 171.517 120.485 171.522 120.531C171.526 120.578 171.541 120.623 171.565 120.663C171.589 120.703 171.622 120.737 171.66 120.763C171.712 120.797 171.773 120.816 171.835 120.816H179.107V123.866H171.116C170.529 123.873 169.952 123.713 169.452 123.405C168.951 123.097 168.549 122.653 168.29 122.126C168.023 121.561 167.938 120.928 168.045 120.312C168.152 119.697 168.447 119.13 168.889 118.689L171.885 115.69Z" fill="white" style="fill:white;fill-opacity:1;"/>
</g>
<g opacity="0.8">
<path d="M199.114 119.347H194.805L199.396 114.75C199.429 114.718 199.454 114.679 199.469 114.635C199.484 114.592 199.49 114.546 199.486 114.501C199.481 114.455 199.467 114.411 199.443 114.372C199.419 114.332 199.387 114.299 199.349 114.273C199.298 114.239 199.239 114.221 199.177 114.221H191.885V111.171H199.884C200.471 111.164 201.048 111.324 201.548 111.632C202.049 111.94 202.451 112.384 202.71 112.911C202.976 113.476 203.062 114.109 202.955 114.725C202.848 115.34 202.553 115.907 202.111 116.348L199.114 119.347Z" fill="white" style="fill:white;fill-opacity:1;"/>
<path d="M191.885 115.69H196.195L191.613 120.278C191.58 120.311 191.554 120.35 191.539 120.394C191.523 120.438 191.517 120.485 191.522 120.531C191.526 120.578 191.541 120.623 191.565 120.663C191.589 120.703 191.622 120.737 191.66 120.763C191.712 120.797 191.773 120.816 191.835 120.816H199.107V123.866H191.116C190.529 123.873 189.952 123.713 189.452 123.405C188.951 123.097 188.549 122.653 188.29 122.126C188.023 121.561 187.938 120.928 188.045 120.312C188.152 119.697 188.447 119.13 188.889 118.689L191.885 115.69Z" fill="white" style="fill:white;fill-opacity:1;"/>
</g>
<path d="M219.114 119.347H214.805L219.396 114.75C219.429 114.718 219.454 114.679 219.469 114.635C219.484 114.592 219.49 114.546 219.486 114.501C219.481 114.455 219.467 114.411 219.443 114.372C219.419 114.332 219.387 114.299 219.349 114.273C219.298 114.239 219.239 114.221 219.177 114.221H211.885V111.171H219.884C220.471 111.164 221.048 111.324 221.548 111.632C222.049 111.94 222.451 112.384 222.71 112.911C222.976 113.476 223.062 114.109 222.955 114.725C222.848 115.34 222.553 115.907 222.111 116.348L219.114 119.347Z" fill="white" style="fill:white;fill-opacity:1;"/>
<path d="M211.885 115.69H216.195L211.613 120.278C211.58 120.311 211.554 120.35 211.539 120.394C211.523 120.438 211.517 120.485 211.522 120.531C211.526 120.578 211.541 120.623 211.565 120.663C211.589 120.703 211.622 120.737 211.66 120.763C211.712 120.797 211.773 120.816 211.835 120.816H219.107V123.866H211.116C210.529 123.873 209.952 123.713 209.452 123.405C208.951 123.097 208.549 122.653 208.29 122.126C208.023 121.561 207.938 120.928 208.045 120.312C208.152 119.697 208.447 119.13 208.889 118.689L211.885 115.69Z" fill="white" style="fill:white;fill-opacity:1;"/>
<path d="M239.114 119.347H234.805L239.396 114.75C239.429 114.718 239.454 114.679 239.469 114.635C239.484 114.592 239.49 114.546 239.486 114.501C239.481 114.455 239.467 114.411 239.443 114.372C239.419 114.332 239.387 114.299 239.349 114.273C239.298 114.239 239.239 114.221 239.177 114.221H231.885V111.171H239.884C240.471 111.164 241.048 111.324 241.548 111.632C242.049 111.94 242.451 112.384 242.71 112.911C242.976 113.476 243.062 114.109 242.955 114.725C242.848 115.34 242.553 115.907 242.111 116.348L239.114 119.347Z" fill="white" style="fill:white;fill-opacity:1;"/>
<path d="M231.885 115.69H236.195L231.613 120.278C231.58 120.311 231.554 120.35 231.539 120.394C231.523 120.438 231.517 120.485 231.522 120.531C231.526 120.578 231.541 120.623 231.565 120.663C231.589 120.703 231.622 120.737 231.66 120.763C231.712 120.797 231.773 120.816 231.835 120.816H239.107V123.866H231.116C230.529 123.873 229.952 123.713 229.452 123.405C228.951 123.097 228.549 122.653 228.29 122.126C228.023 121.561 227.938 120.928 228.045 120.312C228.152 119.697 228.447 119.13 228.889 118.689L231.885 115.69Z" fill="white" style="fill:white;fill-opacity:1;"/>
<path d="M259.114 119.347H254.805L259.396 114.75C259.429 114.718 259.454 114.679 259.469 114.635C259.484 114.592 259.49 114.546 259.486 114.501C259.481 114.455 259.467 114.411 259.443 114.372C259.419 114.332 259.387 114.299 259.349 114.273C259.298 114.239 259.239 114.221 259.177 114.221H251.885V111.171H259.884C260.471 111.164 261.048 111.324 261.548 111.632C262.049 111.94 262.451 112.384 262.71 112.911C262.976 113.476 263.062 114.109 262.955 114.725C262.848 115.34 262.553 115.907 262.111 116.348L259.114 119.347Z" fill="white" style="fill:white;fill-opacity:1;"/>
<path d="M251.885 115.69H256.195L251.613 120.278C251.58 120.311 251.554 120.35 251.539 120.394C251.523 120.438 251.517 120.485 251.522 120.531C251.526 120.578 251.541 120.623 251.565 120.663C251.589 120.703 251.622 120.737 251.66 120.763C251.712 120.797 251.773 120.816 251.835 120.816H259.107V123.866H251.116C250.529 123.873 249.952 123.713 249.452 123.405C248.951 123.097 248.549 122.653 248.29 122.126C248.023 121.561 247.938 120.928 248.045 120.312C248.152 119.697 248.447 119.13 248.889 118.689L251.885 115.69Z" fill="white" style="fill:white;fill-opacity:1;"/>
<path d="M279.114 119.347H274.805L279.396 114.75C279.429 114.718 279.454 114.679 279.469 114.635C279.484 114.592 279.49 114.546 279.486 114.501C279.481 114.455 279.467 114.411 279.443 114.372C279.419 114.332 279.387 114.299 279.349 114.273C279.298 114.239 279.239 114.221 279.177 114.221H271.885V111.171H279.884C280.471 111.164 281.048 111.324 281.548 111.632C282.049 111.94 282.451 112.384 282.71 112.911C282.976 113.476 283.062 114.109 282.955 114.725C282.848 115.34 282.553 115.907 282.111 116.348L279.114 119.347Z" fill="white" style="fill:white;fill-opacity:1;"/>
<path d="M271.885 115.69H276.195L271.613 120.278C271.58 120.311 271.554 120.35 271.539 120.394C271.523 120.438 271.517 120.485 271.522 120.531C271.526 120.578 271.541 120.623 271.565 120.663C271.589 120.703 271.622 120.737 271.66 120.763C271.712 120.797 271.773 120.816 271.835 120.816H279.107V123.866H271.116C270.529 123.873 269.952 123.713 269.452 123.405C268.951 123.097 268.549 122.653 268.29 122.126C268.023 121.561 267.938 120.928 268.045 120.312C268.152 119.697 268.447 119.13 268.889 118.689L271.885 115.69Z" fill="white" style="fill:white;fill-opacity:1;"/>
</g>
</g>
</g>
<defs>
<clipPath id="clip0_85_2">
<rect width="288" height="120" fill="white" style="fill:white;fill-opacity:1;"/>
</clipPath>
</defs>
</svg>
